<?xml version="1.0"?><svg height="512" viewBox="0 0 512 512" width="512" xmlns="http://www.w3.org/2000/svg" xmlns:xlink="http://www.w3.org/1999/xlink"><defs><clipPath id="a"><circle cx="182.865" cy="205.058" fill="none" r="126.833"/></clipPath></defs><title/><g><g opacity="0.2"><circle cx="270.434" cy="256" fill="#6556ff" r="200" transform="translate(-101.811 266.206) rotate(-45)"/></g><g><g><g clip-path="url(#a)"><g><circle cx="182.865" cy="205.058" fill="#fff" r="126.833"/><path d="M182.865,332.891A127.833,127.833,0,1,1,310.7,205.058,127.978,127.978,0,0,1,182.865,332.891Zm0-253.666A125.833,125.833,0,1,0,308.7,205.058,125.975,125.975,0,0,0,182.865,79.225Z" fill="#090817"/></g><path d="M125.2,78.225s2.694,21.953,29.638,22.492,15.627,30.715,42.57,34.487,21.555-23.71,38.26-25.327,25.866,4.311,35.565-10.238C271.237,99.639,190.946,30.406,125.2,78.225Z" fill="#080717"/><path d="M60,135.559s18.321-7.36,30.715,4.5,0,25.327,15.628,29.638,23.171-21.842,42.031-18.2,18.861,24.662,4.311,32.206S114.427,203.64,125.2,211.724s11.855,20.476-4.311,29.637-6.466,14.55-3.772,29.1-44.187,21.016-44.187,21.016L29.285,245.133Z" fill="#080717"/><path d="M315.253,166.084s-43.493-9.448-61.851,1.006-5.923,30.182-11.25,40.855-37.826-9.589-53.924,4.108,8.3,29.684,22.022,36.533-17.89,26.3-6.3,40.471,1.3,6.172-21.287,17.657-11.2,50.114-11.2,50.114l95.394-24,57.858-85.393Z" fill="#080717"/></g><g><rect fill="#080717" height="60.401" rx="2.25" width="72.46" x="59.859" y="350.268"/><g><rect fill="#fff" height="59.335" rx="2.974" width="61.627" x="41.566" y="350.8"/><path d="M100.219,411.136H44.54a3.979,3.979,0,0,1-3.974-3.975V353.774A3.979,3.979,0,0,1,44.54,349.8h55.679a3.979,3.979,0,0,1,3.974,3.974v53.387A3.979,3.979,0,0,1,100.219,411.136ZM44.54,351.8a1.977,1.977,0,0,0-1.974,1.974v53.387a1.977,1.977,0,0,0,1.974,1.975h55.679a1.977,1.977,0,0,0,1.974-1.975V353.774a1.977,1.977,0,0,0-1.974-1.974Z" fill="#090817"/></g><g><path d="M77.811,366.821l-6.653-3.1-6.761,3.1V350.974H77.811Z" fill="#fff"/><path d="M64.4,367.821a1,1,0,0,1-1-1V350.975a1,1,0,0,1,1-1H77.811a1,1,0,0,1,1,1v15.846a1,1,0,0,1-1.423.907l-6.234-2.91C64.269,367.981,64.711,367.821,64.4,367.821Zm1-15.846v13.287l5.343-2.454a1.012,1.012,0,0,1,.841,0l5.23,2.44V351.975Z" fill="#090817"/></g></g><g><rect fill="#080717" height="60.401" rx="2.25" width="72.46" x="139.531" y="350.268"/><g><rect fill="#fff" height="59.335" rx="2.974" width="61.627" x="121.239" y="350.8"/><path d="M179.892,411.136h-55.68a3.978,3.978,0,0,1-3.973-3.975V353.774a3.978,3.978,0,0,1,3.973-3.974h55.68a3.978,3.978,0,0,1,3.973,3.974v53.387A3.978,3.978,0,0,1,179.892,411.136ZM124.212,351.8a1.976,1.976,0,0,0-1.973,1.974v53.387a1.976,1.976,0,0,0,1.973,1.975h55.68a1.976,1.976,0,0,0,1.973-1.975V353.774a1.976,1.976,0,0,0-1.973-1.974Z" fill="#090817"/></g><g><path d="M157.483,366.821l-6.653-3.1-6.76,3.1V350.974h13.413Z" fill="#fff"/><path d="M144.07,367.821a1,1,0,0,1-1-1V350.975a1,1,0,0,1,1-1h13.413a1,1,0,0,1,1,1v15.846a1,1,0,0,1-1.423.907l-6.233-2.91C143.941,367.981,144.384,367.821,144.07,367.821Zm1-15.846v13.287l5.343-2.454a1.01,1.01,0,0,1,.84,0l5.23,2.44V351.975Z" fill="#090817"/></g></g><g><rect fill="#080717" height="60.401" rx="2.25" width="72.46" x="76.109" y="290.574"/><g><rect fill="#fff" height="59.335" rx="2.974" width="61.627" x="57.816" y="291.106"/><path d="M116.469,351.441H60.79a3.978,3.978,0,0,1-3.974-3.973V294.08a3.979,3.979,0,0,1,3.974-3.974h55.679a3.979,3.979,0,0,1,3.974,3.974v53.388A3.978,3.978,0,0,1,116.469,351.441ZM60.79,292.106a1.977,1.977,0,0,0-1.974,1.974v53.388a1.976,1.976,0,0,0,1.974,1.973h55.679a1.975,1.975,0,0,0,1.974-1.973V294.08a1.976,1.976,0,0,0-1.974-1.974Z" fill="#090817"/></g><g><path d="M94.061,307.127l-6.653-3.1-6.761,3.1V291.281H94.061Z" fill="#fff"/><path d="M94.061,308.127c-.316,0,.111.155-6.657-3l-6.34,2.911a1,1,0,0,1-1.417-.909V291.28a1,1,0,0,1,1-1H94.061a1,1,0,0,1,1,1v15.847A1,1,0,0,1,94.061,308.127ZM81.647,292.28v13.287l5.344-2.453a1.01,1.01,0,0,1,.84,0l5.23,2.44V292.28Z" fill="#090817"/></g></g><g><path d="M43.041,172.177,62.61,201.758l19.569-29.581A45.683,45.683,0,0,1,43.041,172.177Z" fill="#6556ff"/><path d="M62.61,148.157a19.979,19.979,0,1,0,19.978,19.979A19.978,19.978,0,0,0,62.61,148.157Zm0,26.151a9.5,9.5,0,1,1,9.5-9.5A9.5,9.5,0,0,1,62.61,174.308Z" fill="#6556ff"/></g><g><path d="M170,76.935,184.132,98.3l14.131-21.36A32.991,32.991,0,0,1,170,76.935Z" fill="#6556ff"/><path d="M184.132,59.59a14.427,14.427,0,1,0,14.426,14.427A14.427,14.427,0,0,0,184.132,59.59Zm0,18.883a6.861,6.861,0,1,1,6.861-6.861A6.861,6.861,0,0,1,184.132,78.473Z" fill="#6556ff"/></g><g><path d="M241.524,159.617l23.631,35.72,23.631-35.72A55.163,55.163,0,0,1,241.524,159.617Z" fill="#6556ff"/><path d="M265.155,130.612a24.125,24.125,0,1,0,24.125,24.125A24.125,24.125,0,0,0,265.155,130.612Zm0,31.578a11.474,11.474,0,1,1,11.474-11.474A11.474,11.474,0,0,1,265.155,162.19Z" fill="#6556ff"/></g><path d="M103.306,227.786a1,1,0,0,1,.888-1.1,33.229,33.229,0,0,0,11.109-3.3,1,1,0,1,1,.881,1.8,35.25,35.25,0,0,1-11.778,3.5A1,1,0,0,1,103.306,227.786Zm-11.151-.162A41.72,41.72,0,0,1,81,222.556a1,1,0,1,1,1.072-1.689A39.666,39.666,0,0,0,92.689,225.7,1,1,0,0,1,92.155,227.624Zm32.68-9.946a1,1,0,0,1-.779-1.625,59.713,59.713,0,0,0,6.274-9.975,1,1,0,0,1,1.779.913,60.684,60.684,0,0,1-6.493,10.312A1,1,0,0,1,124.835,217.678Zm-52.654-2.467a1,1,0,0,1-.7-.285,62.534,62.534,0,0,1-7.919-9.319,1,1,0,1,1,1.671-1.1A61.817,61.817,0,0,0,72.88,213.5,1,1,0,0,1,72.181,215.211Zm185.337-8.626a1,1,0,1,1,.5-1.938,25.419,25.419,0,0,0,7.111.785,1,1,0,0,1,.06,2A27.417,27.417,0,0,1,257.518,206.585Zm-10.445-5.133a.992.992,0,0,1-.582-.188A55,55,0,0,1,237.533,193a1,1,0,1,1,1.5-1.325,53.056,53.056,0,0,0,8.627,7.968A1,1,0,0,1,247.073,201.452Zm-110.962-4.887a1,1,0,0,1-.929-1.367c1.328-3.373,2.655-7.054,4.055-11.255a1,1,0,0,1,1.9.633c-1.411,4.234-2.75,7.948-4.092,11.355A1,1,0,0,1,136.111,196.565Zm94.872-12.756a1,1,0,0,1-.829-.44c-2.092-3.089-4.172-6.452-6.359-10.283a1,1,0,0,1,1.738-.991c2.161,3.785,4.214,7.107,6.277,10.153A1,1,0,0,1,230.983,183.809ZM143.805,173.8a1,1,0,0,1-.957-1.29c1.152-3.814,2.28-7.674,3.4-11.519a1,1,0,1,1,1.92.559c-1.121,3.852-2.25,7.718-3.405,11.539A1,1,0,0,1,143.805,173.8Zm75.16-10.794a1,1,0,0,1-.891-.544c-1.589-3.1-3.29-6.53-5.352-10.788a1,1,0,1,1,1.8-.872c2.056,4.244,3.75,7.659,5.333,10.748A1,1,0,0,1,218.965,163.009Zm-68.381-12.272a1,1,0,0,1-.959-1.285c1.348-4.534,2.478-8.191,3.556-11.509a1,1,0,1,1,1.9.619c-1.073,3.3-2.2,6.942-3.541,11.46A1,1,0,0,1,150.584,150.737Zm57.831-9.327a1,1,0,0,1-.9-.567c-1.57-3.259-3.427-7.087-5.3-10.764a1,1,0,1,1,1.782-.909c1.883,3.7,3.747,7.536,5.321,10.806A1,1,0,0,1,208.415,141.41Zm-50.291-13.493a1,1,0,0,1-.933-1.362,100.454,100.454,0,0,1,4.973-11.065,1,1,0,0,1,1.764.943,98.372,98.372,0,0,0-4.872,10.844A1,1,0,0,1,158.124,127.917Zm39.227-7.846a1,1,0,0,1-.86-.489,67.811,67.811,0,0,0-6.767-9.7,1,1,0,1,1,1.511-1.309,69.578,69.578,0,0,1,6.974,9.983A1,1,0,0,1,197.351,120.071Zm-27.32-12.784a1,1,0,0,1-.68-1.732c3.243-3.016,7.333-4.884,11.7-3.976a1,1,0,1,1-.407,1.958c-3.708-.771-7.159.9-9.931,3.483A1,1,0,0,1,170.031,107.287Z" fill="#6556ff"/></g><g><g><circle cx="316.922" cy="204.617" fill="#fff" r="35.085"/><path d="M316.922,240.7a36.085,36.085,0,1,1,36.085-36.084A36.125,36.125,0,0,1,316.922,240.7Zm0-70.169a34.085,34.085,0,1,0,34.085,34.085A34.123,34.123,0,0,0,316.922,170.532Z" fill="#090817"/></g><g><path d="M356.042,305.211c.431-32.156,6.028-37.5,0-45.419-4.071-5.344-11.134-8.818-19.246-10.322a6.165,6.165,0,0,1-4.977-6.091V229.21h-21.8v18.207a5.77,5.77,0,0,1-3.485,5.307A36.919,36.919,0,0,0,294.273,261c-5.26,5.52-7.791,12.282-10.3,33.307a406.263,406.263,0,0,0-2.119,70.853h78.119C355.966,310.927,356.042,305.211,356.042,305.211Z" fill="#fff"/><path d="M359.979,366.163h-78.12a1,1,0,0,1-1-.944,409.524,409.524,0,0,1,2.125-71.027c2.406-20.2,4.775-27.8,10.564-33.879a37.769,37.769,0,0,1,12.59-8.508,4.762,4.762,0,0,0,2.879-4.388V229.21a1,1,0,0,1,1-1h21.8a1,1,0,0,1,1,1v14.169a5.152,5.152,0,0,0,4.159,5.108c8.793,1.63,15.845,5.43,19.859,10.7,6.353,8.34.637,13.807.2,46.036.136,0-.706-2.835,3.934,59.867A1,1,0,0,1,359.979,366.163Zm-77.173-2h76.1c-3.891-52.671-3.863-58.732-3.86-58.966h0c.428-31.942,5.889-37.336.205-44.8-3.713-4.873-10.33-8.4-18.633-9.943a7.153,7.153,0,0,1-5.795-7.075V230.21h-19.8v17.207a6.76,6.76,0,0,1-4.091,6.226,35.776,35.776,0,0,0-11.93,8.05c-4.843,5.082-7.44,11.016-10.026,32.736A407.276,407.276,0,0,0,282.806,364.163Z" fill="#090817"/></g><polygon fill="#080717" points="281.859 341.545 275.5 456 331.819 456 340.297 352.75 281.859 341.545"/><path d="M359.07,352.75s12.112,33,12.717,52.381S380.265,456,380.265,456h-53.9l-26.04-103.25Z" fill="#080717"/><path d="M308.939,247.056a18.038,18.038,0,0,0,6.075,7.854,33.55,33.55,0,0,0,17.713-11.241l2.574,3.747s14.231,5.261,20.741,12.376,3.634,29.036,3.936,43.586,3.254,61.785,3.254,61.785-37.435,8.024-82.719.606c-.512-5.07-5.206-53.3.687-81.526,2.322-11.122,5.987-17.7,10.31-22.6A42.733,42.733,0,0,1,306.1,251.03Z" fill="#6556ff"/><path d="M332.006,248.627c9.864-.933,25.833-.75,38.928,9.112,3.435,2.587,5.151,4.7,12.014,13.456,28.336,36.176,29.07,38.535,29.076,41.811.028,17.056-19.725,30.889-28.115,36.765a83.315,83.315,0,0,1-17.541,9.371l-7.209-16.82,20.906-28.355L351.23,285.132C334,280.193,322.578,264.425,332.006,248.627Z" fill="#6556ff"/><path d="M307.947,347.547a1,1,0,0,1-1-1.079l7.068-88.682a1,1,0,1,1,1.994.158l-7.068,88.682A1,1,0,0,1,307.947,347.547Z" fill="#fff"/><g><rect fill="#fff" height="87.246" rx="3.304" transform="translate(-69.83 78.859) rotate(-12.717)" width="67.522" x="285.157" y="309.127"/><path d="M298.076,403.09a4.306,4.306,0,0,1-4.191-3.36l-17.751-78.658a4.31,4.31,0,0,1,3.251-5.146l59.42-13.409a4.31,4.31,0,0,1,5.146,3.252L361.7,384.427a4.3,4.3,0,0,1-3.251,5.146C294.82,403.933,298.8,403.09,298.076,403.09Zm41.676-98.679c-.4,0,3.77-.908-59.926,13.466a2.309,2.309,0,0,0-1.741,2.756l17.751,78.658a2.3,2.3,0,0,0,2.756,1.74c62.047-14,59.319-13.409,59.419-13.409a2.3,2.3,0,0,0,1.74-2.756L342,306.208A2.309,2.309,0,0,0,339.752,304.411Z" fill="#090817"/></g><path d="M325.847,454.936a1,1,0,0,1-.969-.756l-13.067-51.815a1,1,0,1,1,1.939-.488l13.068,51.814A1,1,0,0,1,325.847,454.936Z" fill="#fff"/><g><path d="M366.211,335.6l-5.033,6.45a30.923,30.923,0,0,1-9.834,1.163c-5.076-.317-9.728-.211-10.257,1.163s1.692,3.49,8.142,4.019c0,0-5.393,3.842-11.032,4.406s-12.132,2.116-9.326,5.358c0,0-4.7,3.665,1.007,5.463,0,0-1.586,2.22.635,3.383s6.767.846,6.767.846-3.042,1.9-1.1,3.067,14.1,0,19.18-2.221,9.94-5.921,17.977-14.063C373.339,354.638,378.978,339.441,366.211,335.6Z" fill="#fff"/><path d="M335.669,371.78a2.032,2.032,0,0,1-.83-2.9,12.179,12.179,0,0,1-4.79-.984,2.932,2.932,0,0,1-1.54-3.72c-3.037-1.375-3.15-3.892-.956-6.16a2.556,2.556,0,0,1-.183-2.231c.8-2.007,4.408-3.344,10.727-3.975a22.851,22.851,0,0,0,8.189-2.789c-2.975-.56-5.02-1.567-5.872-2.923a2.292,2.292,0,0,1-.26-2.077c.489-1.27,2.193-2.368,11.253-1.8a29.959,29.959,0,0,0,9.182-1.037l4.833-6.195a1,1,0,0,1,1.077-.342,11.944,11.944,0,0,1,7.674,6.1c3.05,6.129.224,13.907.1,14.235a1.006,1.006,0,0,1-.226.355c-7.948,8.053-12.905,11.923-18.287,14.277C350.893,371.748,338.144,373.261,335.669,371.78Zm.869-1.819c.017,0,.065.047.157.1,1.4.839,13.039.009,18.266-2.278,5.091-2.227,9.849-5.945,17.506-13.688.4-1.192,2.334-7.608-.088-12.464a9.8,9.8,0,0,0-5.811-4.862c-4.966,6.365-4.673,6.107-5.093,6.238a31.84,31.84,0,0,1-10.193,1.207c-8.149-.512-9.192.455-9.284.567a.658.658,0,0,0,.109.251c.543.864,2.756,2,7.2,2.367a1,1,0,0,1,.5,1.812c-.229.163-5.677,4-11.514,4.587-5.743.574-8.692,1.782-9.068,2.724-.1.239.04.57.4.985a1,1,0,0,1-.142,1.443c-.523.412-1.562,1.513-1.423,2.277.1.524.868,1.05,2.117,1.443a1,1,0,0,1,.513,1.535,1.915,1.915,0,0,0-.339,1.266c.353,1.427,5.271,1.5,6.858,1.384a1,1,0,0,1,.6,1.845A3.481,3.481,0,0,0,336.538,369.961Zm24.64-27.907h0Z" fill="#090817"/></g><polygon fill="#6556ff" points="367.117 331.529 361.069 339.732 370.31 357.489 382.453 350.767 382.453 334.392 367.117 331.529"/><g><path d="M186.466,237.2l-7.247-10.1s-1.649-10.222-3.957-13.189-6.76-2.8-6.76-2.8-14.512-14.192-16.68-12.126,8.354,13.28,8.354,13.28-4.781-.5-3.627,3.3c0,0-3.957-.329-3.215,2.886a3.674,3.674,0,0,0-2.892.958c-1.2,1.408-.223,3.939,1.137,7.452a22.611,22.611,0,0,0,8.083,11.113,34.094,34.094,0,0,1,8.84,11.493A18.988,18.988,0,0,0,186.466,237.2Z" fill="#fff"/><path d="M168.5,250.464a1,1,0,0,1-.892-.547c-7.09-13.957-11.957-9.77-16.964-22.7-1.484-3.832-2.556-6.6-.963-8.461a3.888,3.888,0,0,1,2.565-1.256c.1-1.725,1.421-2.661,3.126-2.892a3.081,3.081,0,0,1,2.667-3.188c-4.088-4.537-9.153-11.022-6.909-13.16,1.04-.993,3.031-1.045,10.488,5.248,3.25,2.742,6.346,5.7,7.29,6.6,1.279.04,4.976.4,7.141,3.187,2.272,2.92,3.815,11.6,4.116,13.41l7.111,9.908a1,1,0,0,1,.122.94A19.985,19.985,0,0,1,168.5,250.464Zm-17.3-30.406c-.815.953.169,3.5,1.309,6.439,4.733,12.221,9.348,8.123,16.6,21.957a17.95,17.95,0,0,0,16.228-11.114c-7.543-10.509-7.048-9.741-7.1-10.076-.447-2.774-2-10.468-3.759-12.736-1.97-2.533-5.893-2.417-5.932-2.417a.974.974,0,0,1-.737-.284c-2.016-1.972-12.8-12.055-15.309-12.055-.248,1.229,3.608,6.689,8.412,11.81a1,1,0,0,1-.833,1.679c-.611-.061-2.031.007-2.513.6a1.531,1.531,0,0,0-.054,1.415,1,1,0,0,1-1.04,1.288,2.9,2.9,0,0,0-2.035.533c-.075.087-.3.351-.122,1.131a1,1,0,0,1-1,1.224A2.8,2.8,0,0,0,151.2,220.058Z" fill="#090817"/></g><path d="M309.6,251.138a76.416,76.416,0,0,0-26.538,6.216,77.3,77.3,0,0,0-11.715,6.455c-8.166,5.217-21.688,11.241-44.946,14.106q-21.759-22.434-43.517-44.867l-17.214,13.388c6.226,11.909,12.03,21.5,16.417,28.371,22.972,36,30.9,35.654,46.859,35.7,32.572.1,61.27-15.511,62-15.779A80.5,80.5,0,0,0,309.6,251.138Z" fill="#6556ff"/><path d="M321.555,266.232l-6.713-7.093-9.437,5.71a1,1,0,0,1-1.517-.832L303.6,251.76a1,1,0,1,1,2-.047l.247,10.531,8.65-5.234a1,1,0,0,1,1.244.168l6.523,6.894,13.79-15.272a1,1,0,1,1,1.484,1.341l-14.515,16.074A1,1,0,0,1,321.555,266.232Z" fill="#fff"/><g><path d="M361.05,202.219a11.5,11.5,0,0,0-8.7-11.149,35.734,35.734,0,0,0-70.52,4.963c-1.184,16.214.121,37.278,13.514,43.668,22.7,10.833,49.728-1.393,55.481-26.049A11.507,11.507,0,0,0,361.05,202.219Z" fill="#fff"/><path d="M294.916,240.6c-13.851-6.609-15.3-27.925-14.08-44.644a36.735,36.735,0,0,1,72.36-5.693,12.5,12.5,0,0,1-1.556,24.281C345.4,239.379,318.009,251.624,294.916,240.6Zm22.363-76.621a34.665,34.665,0,0,0-34.448,32.122c-1.177,16.1.114,36.571,12.946,42.694,22.329,10.651,48.519-1.553,54.077-25.374a1,1,0,0,1,.863-.767,10.5,10.5,0,0,0,1.392-20.618,1,1,0,0,1-.733-.756A34.788,34.788,0,0,0,317.279,163.983Z" fill="#090817"/></g><path d="M327.872,358.206a1,1,0,0,1,.956-1.042c.092,0,9.323-.424,14.6-2.416a1,1,0,1,1,.707,1.871c-5.573,2.106-14.825,2.527-15.216,2.543A1,1,0,0,1,327.872,358.206Z" fill="#080717"/><path d="M329.878,364.626a1,1,0,0,1-.01-2c.1,0,9.678-.133,14.155-2.616a1,1,0,1,1,.971,1.748C341.237,363.842,333.81,364.626,329.878,364.626Z" fill="#080717"/><path d="M336.323,368.891a1,1,0,0,1-.191-1.982c.075-.014,7.461-1.463,9.863-2.721a1,1,0,1,1,.929,1.771C344.508,367.225,336.814,368.891,336.323,368.891Z" fill="#080717"/><circle cx="316.922" cy="350.689" fill="#080717" r="11.566"/><path d="M278.259,301.4a1,1,0,0,1-.993-1.125L280.5,274.58a1,1,0,1,1,1.984.25l-3.234,25.695A1,1,0,0,1,278.259,301.4Z" fill="#fff"/><path d="M360.205,293.19a.994.994,0,0,1-.611-.209c-5.17-4-9.539-16.288-9.722-16.809a1,1,0,1,1,1.886-.664c.043.122,4.355,12.257,9.059,15.891A1,1,0,0,1,360.205,293.19Z" fill="#fff"/><path d="M380.066,314.968a1,1,0,0,1-.54-1.843c.4-.257,9.93-6.26,18.012-3.563a1,1,0,1,1-.633,1.9c-7.17-2.385-16.212,3.295-16.3,3.353A1,1,0,0,1,380.066,314.968Z" fill="#fff"/><path d="M217.138,294.78a1,1,0,0,1-.985-1.177c.1-.568,2.593-13.931,9.9-16.626a1,1,0,0,1,.692,1.877c-6.24,2.3-8.6,14.976-8.628,15.1A1,1,0,0,1,217.138,294.78Z" fill="#fff"/><path d="M334.09,198.032a1,1,0,0,1-.71-.3,13.461,13.461,0,0,0-13.288-3.67,1,1,0,1,1-.654-1.889,15.285,15.285,0,0,1,15.361,4.149A1,1,0,0,1,334.09,198.032Z" fill="#080717"/><circle cx="323.322" cy="203.905" fill="#080717" r="3.737"/><path d="M287.247,194.775a1,1,0,0,1-.674-1.74,12.781,12.781,0,0,1,14.034-2.109,1,1,0,1,1-.85,1.809,10.782,10.782,0,0,0-11.838,1.78A1,1,0,0,1,287.247,194.775Z" fill="#080717"/><circle cx="294.1" cy="201.575" fill="#080717" r="3.737"/><path d="M303.937,210.863c-.877-1.529,1.209-6.675,3.115-10.722a1,1,0,1,1,1.81.852c-1.7,3.6-3.367,8.057-3.156,8.952.246.37,2.407.723,4.42.663a1,1,0,0,1,.068,2C308.318,212.671,304.867,212.484,303.937,210.863Z" fill="#080717"/><ellipse cx="328.772" cy="213.728" fill="#6556ff" rx="3.37" ry="5.162" transform="translate(112.015 540.511) rotate(-89.471)"/><ellipse cx="290.963" cy="212.441" fill="#6556ff" rx="3.37" ry="5.162" transform="translate(75.843 501.428) rotate(-89.471)"/><path d="M285.137,183.442s-3.016-12.066,4.375-20.467a14.009,14.009,0,0,1,16.631-3.709s32.722-5.83,44.5,3.709,5.544,20.467,5.544,20.467c10.831,10.254,10.744,24.519,3.032,37.593-8.253,13.993-24.617,20.5-26.607,18.243-1.62-1.835,7.041-8.626,10.862-19.3.473-1.319,1.628-4.812,4.845-6.812,1.782-1.109,2.526-.681,4.112-1.55,4.24-2.325,7.166-9.788,4.215-13.741-1.485-1.989-4.756-3.489-6.813-2.574-1.594.709-2.8,3.118-4.387,1.734-1.984-1.726-2.553-11.942-5.151-16.873-1.967-3.733-5.506-5.215-10.767-7.419-10.925-4.574-23.464-3.208-23.464-3.208S295.622,167.8,285.137,183.442Z" fill="#6556ff"/><g><path d="M280.95,178.872l81.386,13.42a3.411,3.411,0,0,0,3.951-3.553c-1.047-20.669-13.84-38.019-31.289-43.25C312.142,138.637,286.155,152.639,280.95,178.872Z" fill="#fff"/><path d="M362.9,193.337c-.565,0,5.138.907-82.107-13.479a1,1,0,0,1-.819-1.181A44.9,44.9,0,0,1,296,152.2a44.059,44.059,0,0,1,39.284-7.666c18.077,5.419,30.937,23.164,32,44.157A4.414,4.414,0,0,1,362.9,193.337Zm-80.749-15.282,80.353,13.25a2.411,2.411,0,0,0,2.79-2.515c-1.022-20.15-13.31-37.166-30.578-42.343a42.028,42.028,0,0,0-37.473,7.322A43.485,43.485,0,0,0,282.146,178.055Z" fill="#090817"/></g><g><path d="M287.246,172.921c8.846-18.03,21.394-29.564,31.553-31.671,1.913-.4,9.011-1.869,15.442.757,5.237,2.138,6.264,3.573,9.754,7.486a26.068,26.068,0,0,0-13.2-1.619c-6.725.968-11.109,4.444-14.186,6.947-9.7,7.892-13.369,18.5-14.768,23.753A25.178,25.178,0,0,1,287.246,172.921Z" fill="#fff"/><path d="M301.843,179.574a26.179,26.179,0,0,1-15.23-5.878,1,1,0,0,1-.265-1.215c8.468-17.26,21.126-29.9,32.248-32.21,6.176-1.282,11.568-1.009,16.023.81,5.585,2.28,6.743,3.956,10.123,7.747a1,1,0,0,1-1.113,1.6,25.057,25.057,0,0,0-12.69-1.561c-6.588.949-10.866,4.43-13.7,6.734-8.7,7.081-12.652,16.543-14.434,23.234A1,1,0,0,1,301.843,179.574ZM288.5,172.64a24.17,24.17,0,0,0,12.593,4.879c1.956-6.917,6.11-16.332,14.885-23.474,2.819-2.294,7.538-6.134,14.674-7.161a26.526,26.526,0,0,1,10.138.541,17.361,17.361,0,0,0-6.929-4.492c-4.08-1.666-9.08-1.9-14.861-.7C308.615,144.384,296.7,156.286,288.5,172.64Z" fill="#090817"/></g><g><path d="M283.914,169.532c-13.968,4.752-16.512,7.98-16.362,10.021.456,6.22,26.471,8.855,28.841,9.084a116.112,116.112,0,0,0,34.972-1.968A172.064,172.064,0,0,1,283.914,169.532Z" fill="#fff"/><path d="M296.3,189.632c-6.853-.661-29.253-3.336-29.742-10.006-.16-2.2,1.431-5.731,17.038-11.041a1.007,1.007,0,0,1,.8.066,171.285,171.285,0,0,0,47.175,17.037,1,1,0,0,1,.006,1.959A116.982,116.982,0,0,1,296.3,189.632Zm-12.471-19.013c-14.011,4.815-15.354,7.8-15.276,8.86.2,2.737,9.862,6.418,27.94,8.162a114.724,114.724,0,0,0,29.852-1.045A172.917,172.917,0,0,1,283.825,170.619Z" fill="#090817"/></g><path d="M309.6,230.21c-3.6,0-6.413-1.869-6.413-4.254s2.817-4.255,6.413-4.255,6.412,1.869,6.412,4.255S313.2,230.21,309.6,230.21Zm0-6.509c-2.6,0-4.413,1.188-4.413,2.255S307,228.21,309.6,228.21s4.412-1.188,4.412-2.254S312.2,223.7,309.6,223.7Z" fill="#080717"/><path d="M349.683,210.071a1,1,0,0,1-.769-1.638c1.413-1.706,1.961-3.182,1.627-4.388-.48-1.733-2.678-2.526-2.7-2.534a1,1,0,0,1,.021-1.9l6.056-1.957a1,1,0,0,1,.615,1.9l-3.92,1.267c2.4,1.931,3.037,5.024-.159,8.881A1,1,0,0,1,349.683,210.071Z" fill="#080717"/><path d="M168.183,227.194a1,1,0,0,1-.9-.557c-.953-1.93.193-5.206,1.162-7.349-2.277.431-6.238.957-6.431-1.349-.179-2.152,3.846-5.262,5.586-6.5a1,1,0,0,1,1.159,1.63c-2.289,1.63-4.394,3.667-4.711,4.521.832.239,3.47-.063,5.983-.7a1,1,0,0,1,1.121,1.454c-1.259,2.273-2.736,6.074-2.076,7.41A1,1,0,0,1,168.183,227.194Z" fill="#080717"/><path d="M158.505,228.142c-2.13,0-5.223-2.7-6.55-3.959a1,1,0,1,1,1.377-1.451,17.968,17.968,0,0,0,4.563,3.3,44.08,44.08,0,0,0-5.3-6.912,1,1,0,0,1,1.485-1.341c2.975,3.3,6.431,7.582,5.994,9.289A1.475,1.475,0,0,1,158.505,228.142Z" fill="#080717"/><path d="M159.048,225.969a1,1,0,0,1,.144-2c.991.072,2.247-.185,2.3-.576-.073-.858-2.984-4.4-5.659-7.136a1,1,0,0,1,1.431-1.4c2.428,2.486,6.464,6.934,6.21,8.8C163.216,225.57,160.959,226.105,159.048,225.969Z" fill="#080717"/><path d="M163.817,217.141c-.543,0-.417-.029-4.969-4.152a1,1,0,1,1,1.343-1.483l4.3,3.894A1,1,0,0,1,163.817,217.141Z" fill="#080717"/><path d="M164.168,223.8a6.453,6.453,0,0,1-2.018-.356,1,1,0,0,1,.677-1.882c.652.231,1.781.378,2.118.038.243-.246.3-1.059-.269-2.6a1,1,0,1,1,1.876-.693C167.984,222.183,166.431,223.8,164.168,223.8Z" fill="#080717"/><path d="M344.485,229.94c6.334-2.392,11.944-15.374,12-15.5a1,1,0,0,1,1.84.786c-.242.566-6,13.9-13.133,16.591A1,1,0,0,1,344.485,229.94Z" fill="#fff"/></g></g></g></svg>