<?xml version="1.0"?><svg height="512" viewBox="0 0 512 512" width="512" xmlns="http://www.w3.org/2000/svg"><title/><g><g opacity="0.2"><circle cx="235.961" cy="255.211" fill="#6556ff" r="200" transform="translate(-111.35 241.599) rotate(-45)"/></g><g><g><rect fill="#fff" height="70.062" width="34.03" x="160.153" y="201.591"/><path d="M194.184,272.653H160.153a1,1,0,0,1-1-1V201.591a1,1,0,0,1,1-1h34.031a1,1,0,0,1,1,1v70.062A1,1,0,0,1,194.184,272.653Zm-33.031-2h32.031V202.591H161.153Z" fill="#090817"/></g><g><path d="M190.847,238.29c13.1-1.309,30.921-.773,45.374,9.842,12.8,9.4,15.414,21.171,25.522,38.034,7.826,13.055,20.882,30.395,43.539,47.542a598.208,598.208,0,0,0,31.528-90.08l37.533,4a295.239,295.239,0,0,1-10.509,62.055C353.6,346,345.335,375.335,324.8,384.754c-26.231,12.03-69.055-10.006-103.592-53.047A251.03,251.03,0,0,1,190.847,238.29Z" fill="#fff"/><path d="M308.844,389.025c-26.008,0-59.89-21.141-88.416-56.693a.971.971,0,0,1-.093-.137,252.147,252.147,0,0,1-30.481-93.787,1,1,0,0,1,.894-1.113c18.923-1.894,34.424,1.482,46.064,10.031,13.038,9.576,15.669,21.44,25.789,38.326,10.361,17.285,24.583,32.922,42.278,46.492a597.791,597.791,0,0,0,30.964-88.77,1,1,0,0,1,1.073-.74l37.533,4a1,1,0,0,1,.892,1.054A296.541,296.541,0,0,1,364.8,309.958c-10.4,36.928-18.624,66.094-39.58,75.7A38.96,38.96,0,0,1,308.844,389.025Zm-86.8-57.88c34.431,42.88,76.507,64.549,102.343,52.7,20.116-9.226,28.224-38,38.489-74.427a294.571,294.571,0,0,0,10.414-60.894l-35.727-3.81a599.713,599.713,0,0,1-31.361,89.4,1,1,0,0,1-1.518.394c-18.369-13.9-33.1-29.993-43.794-47.826-10.082-16.821-12.7-28.522-25.256-37.742-11.023-8.095-25.709-11.376-43.666-9.75A250.1,250.1,0,0,0,222.039,331.145Z" fill="#090817"/></g><path d="M106.105,442.805c-.594-28.407-1.065-63.552-1-103.947.083-51.841.972-63.973,10.009-75.689,25-32.412,92.275-35.595,119.106-7.064,15.565,16.551,9.637,35.395,16.014,96.882a729,729,0,0,0,15.013,89.818Z" fill="#6556ff"/><g><g><path d="M367.738,129.4H474.253a1.786,1.786,0,0,1,1.786,1.786V288.845a1.786,1.786,0,0,1-1.786,1.786H362.209a11.359,11.359,0,0,1-11.359-11.359V146.286A16.888,16.888,0,0,1,367.738,129.4Z" fill="#fff"/><path d="M474.253,291.631H362.209a12.373,12.373,0,0,1-12.359-12.36V146.286A17.909,17.909,0,0,1,367.738,128.4H474.253a2.789,2.789,0,0,1,2.786,2.787V288.845A2.789,2.789,0,0,1,474.253,291.631ZM367.738,130.4a15.907,15.907,0,0,0-15.888,15.889V279.271a10.372,10.372,0,0,0,10.359,10.36H474.253a.787.787,0,0,0,.786-.786V131.184a.787.787,0,0,0-.786-.787Z" fill="#090817"/></g><g><path d="M364,265.391h112.04a0,0,0,0,1,0,0v25.239a0,0,0,0,1,0,0H361.2a10.346,10.346,0,0,1-10.346-10.346V278.54A13.149,13.149,0,0,1,364,265.391Z" fill="#fff"/><path d="M476.039,291.631H361.2a11.359,11.359,0,0,1-11.346-11.347V278.54A14.164,14.164,0,0,1,364,264.392h112.04a1,1,0,0,1,1,1v25.239A1,1,0,0,1,476.039,291.631ZM364,266.392A12.163,12.163,0,0,0,351.85,278.54v1.744a9.357,9.357,0,0,0,9.346,9.347H475.039V266.392Z" fill="#090817"/></g><path d="M367.189,266.392a1,1,0,0,1-1-1V129.4a1,1,0,0,1,2,0v136A1,1,0,0,1,367.189,266.392Z" fill="#080717"/><g><g><path d="M422.764,228.882a35.748,35.748,0,1,1,34.481-26.594A35.669,35.669,0,0,1,422.764,228.882Zm-.106-62.486a26.727,26.727,0,1,0,20.027,44.469C457.8,193.879,445.906,166.4,422.658,166.4Z" fill="#080717"/><path d="M414.57,235.266c-.164,0,.257.1-5.475-1.422a.866.866,0,0,1-.628-1.007l1.879-9.421a.868.868,0,0,1,.846-.7c.162,0-.343-.121,6.629,1.728a.868.868,0,0,1,.6,1.112c-3.334,10.005-3.046,9.233-3.209,9.415A.852.852,0,0,1,414.57,235.266Z" fill="#080717"/><path d="M434.338,163.058c-.165,0,.395.135-6.633-1.728a.87.87,0,0,1-.6-1.117c3.324-9.982,3.038-9.22,3.21-9.413a.854.854,0,0,1,.866-.261l5.249,1.391a.867.867,0,0,1,.627,1.009c-2.05,10.281-1.858,9.579-2.08,9.829A.853.853,0,0,1,434.338,163.058Z" fill="#080717"/><path d="M414.57,235.266c-.164,0,.257.1-5.475-1.422a.866.866,0,0,1-.628-1.007l1.879-9.421a.868.868,0,0,1,.846-.7c.162,0-.343-.121,6.629,1.728a.868.868,0,0,1,.6,1.112c-3.334,10.005-3.046,9.233-3.209,9.415A.852.852,0,0,1,414.57,235.266Z" fill="#080717"/><path d="M434.338,163.058c-.165,0,.395.135-6.633-1.728a.87.87,0,0,1-.6-1.117c3.324-9.982,3.038-9.22,3.21-9.413a.854.854,0,0,1,.866-.261l5.249,1.391a.867.867,0,0,1,.627,1.009c-2.05,10.281-1.858,9.579-2.08,9.829A.853.853,0,0,1,434.338,163.058Z" fill="#080717"/><path d="M390.371,188.59c-.206,0,.575.239-9.393-3.08a.874.874,0,0,1-.563-1.047l1.391-5.243a.868.868,0,0,1,.842-.644c.122,0-.485-.114,9.587,1.894a.869.869,0,0,1,.669,1.073c-1.8,6.787-1.692,6.536-1.888,6.756A.862.862,0,0,1,390.371,188.59Z" fill="#080717"/><path d="M462.879,207.2c-.124,0,.51.118-9.587-1.895a.869.869,0,0,1-.669-1.074c1.824-6.874,1.695-6.538,1.886-6.754a.869.869,0,0,1,.926-.248l9.114,3.037a.868.868,0,0,1,.562,1.047c-1.5,5.663-1.384,5.375-1.579,5.6A.889.889,0,0,1,462.879,207.2Z" fill="#080717"/><path d="M386.863,216.877l-2.726-4.692a.865.865,0,0,1,.271-1.16c8.662-5.781,8.093-5.477,8.472-5.477a.872.872,0,0,1,.747.43l3.327,5.729a.871.871,0,0,1-.1,1.013c-.162.182.594-.229-8.852,4.5A.871.871,0,0,1,386.863,216.877Z" fill="#080717"/><path d="M451.9,179.792l-3.325-5.726a.863.863,0,0,1,.1-1.013c.169-.187-.389.129,8.853-4.493a.874.874,0,0,1,1.137.337l2.726,4.7a.857.857,0,0,1-.1,1.011c-.12.129.284-.155-8.158,5.478A.867.867,0,0,1,451.9,179.792Z" fill="#080717"/><path d="M402.734,166.721l-4.3-8.6a.843.843,0,0,1,.127-.963c.131-.147-.237.087,4.9-2.9a.869.869,0,0,1,1.158.271l5.332,7.987a.871.871,0,0,1-.073,1.059c-.129.147.335-.145-5.941,3.5A.869.869,0,0,1,402.734,166.721Z" fill="#080717"/><path d="M440.9,231.244l-5.331-7.99a.865.865,0,0,1,.287-1.231c6.221-3.613,5.831-3.443,6.165-3.443a.859.859,0,0,1,.773.481l4.3,8.59a.85.85,0,0,1-.128.964c-.129.147.252-.1-4.9,2.9A.868.868,0,0,1,440.9,231.244Z" fill="#080717"/></g><path d="M411.343,205.715a17.175,17.175,0,1,1,24.249-1.408A17.193,17.193,0,0,1,411.343,205.715Z" fill="#080717"/></g><path d="M476.039,274.278h-111.1a1,1,0,0,1,0-2h111.1a1,1,0,0,1,0,2Z" fill="#080717"/><path d="M476.039,283.743h-111.1a1,1,0,0,1,0-2h111.1a1,1,0,0,1,0,2Z" fill="#080717"/><rect fill="#080717" height="9.014" rx="3.921" width="65.936" x="389.796" y="239.701"/></g><g><path d="M336.14,246.15s7.921-24.148,11.316-26.29,20.018-6.813,22.353-5.478-14.985,11.652-16.834,14.5-2.125,22.032-2.125,22.032" fill="#fff"/><path d="M350.851,251.914h-.015a1,1,0,0,1-.986-1.015c.047-3.251.377-19.62,2.286-22.562,1.578-2.429,14.2-10.393,16.582-13.207-3.429-.173-17.38,3.463-20.729,5.576-2.25,1.421-7.879,16.552-10.9,25.756a1,1,0,1,1-1.9-.623c1.341-4.09,8.212-24.6,11.732-26.824,3.34-2.109,20.5-7.152,23.383-5.5a1.387,1.387,0,0,1,.718,1.145c.085,1.616-2.734,3.811-9.677,8.8-3.219,2.315-6.867,4.939-7.533,5.964-1.232,1.9-1.858,14.2-1.963,21.5A1,1,0,0,1,350.851,251.914Z" fill="#090817"/></g><polygon fill="#6556ff" points="196.655 250.432 154.785 250.432 154.785 232.509 196.655 234.298 196.655 250.432"/><g><path d="M242.8,152.244a48.557,48.557,0,0,0-23.646-36.19A60.78,60.78,0,0,0,123.2,182.722a19.787,19.787,0,0,0,2.426,6.063,60.788,60.788,0,0,0,17.424,22.05c13.6,12.751,33.989,23.567,62.175,18.148C244.458,221.441,246.088,179.449,242.8,152.244Z" fill="#fff"/><path d="M142.368,211.564a61.948,61.948,0,0,1-17.646-22.358,20.487,20.487,0,0,1-2.485-6.216,61.78,61.78,0,0,1,97.49-67.761A49.74,49.74,0,0,1,243.8,152.124h0c3.106,25.719,2.251,70.029-38.378,77.841C181.505,234.56,160.3,228.373,142.368,211.564Zm38.5-108.19a59.855,59.855,0,0,0-59.578,66,61.784,61.784,0,0,0,2.891,13.138,18.7,18.7,0,0,0,2.265,5.69,60.8,60.8,0,0,0,17.229,21.852c17.5,16.4,38.121,22.422,61.366,17.949,34.455-6.623,40.961-40.946,36.771-75.636h0a47.731,47.731,0,0,0-23.156-35.446A59.764,59.764,0,0,0,180.866,103.374Z" fill="#090817"/></g><path d="M158.637,164.172a1,1,0,0,1-.741-1.67,25,25,0,0,1,24.324-7.858,1,1,0,0,1-.562,1.919,22.575,22.575,0,0,0-22.278,7.279A1,1,0,0,1,158.637,164.172Z" fill="#080717"/><circle cx="176.923" cy="173.653" fill="#080717" r="6.165"/><path d="M235.583,155.124a1,1,0,0,1-.636-.228,18.432,18.432,0,0,0-20.367-2.076,1,1,0,1,1-.936-1.767,20.438,20.438,0,0,1,22.577,2.3A1,1,0,0,1,235.583,155.124Z" fill="#080717"/><circle cx="224.901" cy="167.519" fill="#080717" r="6.165"/><path d="M199.219,186.313a1,1,0,0,1-.013-2c3.326-.045,7.274-.794,7.853-1.923.511-1.27-2.668-8.772-5.958-14.977a1,1,0,1,1,1.766-.937c2.232,4.208,7.281,14.27,5.972,16.826C207.6,185.727,201.958,186.313,199.219,186.313Z" fill="#080717"/><ellipse cx="168.713" cy="190.27" fill="#6556ff" rx="8.517" ry="5.56" transform="translate(-10.539 9.894) rotate(-3.258)"/><ellipse cx="230.925" cy="185.179" fill="#6556ff" rx="8.517" ry="5.56" transform="translate(-10.149 13.421) rotate(-3.258)"/><path d="M192.485,236.622S214,234.4,228.35,241.406s17.432,12.01,25.189,25.522,25.9,41.412,25.9,41.412L245.7,347.75l-16.682-55.731Z" fill="#6556ff"/><path d="M154.785,237.78s-35.226,8.479-40.8,17.813,7.124-.6,16.828,35.038-11.2,56.518-11.2,56.518-19.2,58.9-20.706,99.939c0,0,62.95,8.508,78.266,8.008s17.015-8.508,17.015-8.508-.2,8.758,15.817,10.009,60.3-4,60.3-4-25.19-169.943-29.637-187.2-2.9-21.683-17.366-26-25.481-3.064-25.481-3.064,9,21.359-2.253,29.068S160.289,254.839,154.785,237.78Z" fill="#080717"/><g><path d="M148.809,242.958s-36.031,6.008-52.046,35.7S38.045,395.1,66.07,425.123s112.1-33.363,138.79-62.723l-10.677-31.361-77.4,29.36,19.351-66.059S164.155,272.313,148.809,242.958Z" fill="#fff"/><path d="M65.338,425.806c-27.583-29.556,11.4-112.115,30.545-147.621,16.061-29.78,52.4-36.153,52.761-36.213a1,1,0,0,1,1.051.523c14.753,28.22-9.878,50.061-12.69,52.421l-18.7,63.835L193.829,330.1a1,1,0,0,1,1.3.613l10.676,31.361a1,1,0,0,1-.207,1C177.706,393.755,93.809,456.308,65.338,425.806Zm82.923-181.724c-5.109,1.047-36.26,8.432-50.617,35.052C83.343,305.651,38.854,394.5,66.8,424.44c27.081,29.019,109.651-32.584,136.922-62.278L193.57,332.341l-76.434,28.992a1,1,0,0,1-1.314-1.216c20.61-70.359,19.3-66.255,19.692-66.563a52.777,52.777,0,0,0,11.868-14.44C153.807,267.488,154.1,255.705,148.261,244.082Z" fill="#090817"/></g><path d="M164.2,237.78c-15.38,1.29-39.51,6.181-57.793,24.394-10.194,10.156-16.019,21.912-22.52,35.031A209.477,209.477,0,0,0,69.25,335.99a269.92,269.92,0,0,0,55.675,11.76l28.025-38.617,17.015-41.371Z" fill="#6556ff"/><path d="M154.785,237.78s7.486,16.818,17.2,22.338.982,15.318.982,15.318l-12.814,42.538c-.41,2.413-3.392,18.362-18.213,27.024a37.908,37.908,0,0,1-22.52,4.837c6.881-11.639,10.673-30.683,11.392-44.623,1.369-26.523-22.513-41.437-16.828-49.619S142.607,238.658,154.785,237.78Z" fill="#080717"/><path d="M140.272,190.27s-12.845-1.516-14.513-14.141,3.169-13.758,7.256-14.777,8.386-.071,11.825,5.044,9.444-1.058,9.945-20.075,41.87-29.693,41.87-29.693,11.677-2.669,19.351,9.676,6.409,18.349,6.409,18.349,12.725,1.335,21.507-3.67c0,0-1.049-42.516-35.835-38.606,0,0-47.13-13.106-74.822,4.242s-27.637,61.388-20.157,81.74,28.994,38.386,47.1,34.707C160.2,223.066,142.607,209.864,140.272,190.27Z" fill="#080717"/><path d="M128.722,322.374s88.9-7.281,119.453-14.265l2.015,12.623S159.116,337.8,125.84,334.227Z" fill="#fff"/><path d="M194.185,447.588a1,1,0,0,1-.992-1.136,587.787,587.787,0,0,0-2.528-176.523,1,1,0,1,1,1.972-.328,589.726,589.726,0,0,1,2.537,177.123A1,1,0,0,1,194.185,447.588Z" fill="#fff"/><g><path d="M177.555,337.408a24.7,24.7,0,0,1,7.423-11.177c3.247-2.685,4.274-1.907,7.257-4.254,7.889-6.208,7.646-16.966,10.952-16.933,1.241.012,2.141,1.538,2.81,2.671,3.7,6.27-1.046,13.051.887,14.679,3.91,3.294,26.766-21.554,33.643-16.931a3.667,3.667,0,0,1,1.432,2.113l-19.03,17.43s4.2,5.178,0,8.4c0,0,3.638,4.2.28,7.416a6.416,6.416,0,0,1,.14,5.737c-1.4,3.358-10.38,16.183-22.471,18.866l-9.144,9.6" fill="#fff"/><path d="M191.734,376.024a1,1,0,0,1-.724-1.689c9.957-10.458,9.227-9.8,9.651-9.891,11.693-2.593,20.458-15.137,21.765-18.274a5.437,5.437,0,0,0-.061-4.816,1.009,1.009,0,0,1,.152-1.257c2.641-2.533-.22-5.9-.344-6.039a1,1,0,0,1,.148-1.45,3.428,3.428,0,0,0,1.449-2.377c.261-2.208-1.6-4.571-1.618-4.594a1,1,0,0,1,.1-1.367L240.8,307.285a2.462,2.462,0,0,0-.827-.992c-3.236-2.177-12.428,4.686-19.138,9.695-7.823,5.84-12.357,9.057-14.592,7.171-2.716-2.287,2.5-8.819-1.105-14.936-.479-.813-1.281-2.172-1.958-2.179h0c-.741,0-1.543,2.131-2.319,4.192-1.407,3.737-3.333,8.853-8,12.528a13.583,13.583,0,0,1-3.615,2.075c-5.3,2.219-8.888,7.5-10.738,12.893a1,1,0,1,1-1.891-.648c2.036-5.935,6-11.642,11.857-14.09a11.681,11.681,0,0,0,3.15-1.8c7.959-6.263,7.07-17.147,11.553-17.147,1.739,0,2.82,1.689,3.689,3.163,2.405,4.076,1.554,8.241.933,11.282-.248,1.21-.586,2.867-.263,3.141,1.138.948,8-4.18,12.107-7.244,8.376-6.254,17.04-12.718,21.45-9.753a4.625,4.625,0,0,1,1.848,2.719,1,1,0,0,1-.3.961l-18.382,16.838c1.774,2.776,2.309,6.026.029,8.385,1.214,1.828,2.249,4.9.127,7.46a7.683,7.683,0,0,1-.136,5.943c-1.438,3.452-10.4,16.448-22.877,19.389l-8.937,9.386A1,1,0,0,1,191.734,376.024Z" fill="#090817"/></g><path d="M202.846,207.554a12.121,12.121,0,0,1-11.308-8.366,1,1,0,0,1,.8-1.31l21.186-3.026a1,1,0,0,1,1.14,1.042A12.166,12.166,0,0,1,202.846,207.554Zm-8.959-7.876a10,10,0,0,0,9.393,5.865,10.128,10.128,0,0,0,9.256-8.529Z" fill="#080717"/><path d="M136.56,184.229a1,1,0,0,1-.707-.292c-5.456-5.455-4.4-10.292.855-13.237l-4.833-2.311a1,1,0,1,1,.863-1.805l6.756,3.231a1,1,0,0,1-.114,1.851c-.043.015-4.353,1.5-5.057,4.5-.429,1.832.561,3.969,2.944,6.351A1,1,0,0,1,136.56,184.229Z" fill="#080717"/><path d="M216.882,329.608a1,1,0,0,1-.512-1.859l6.047-3.6a1,1,0,1,1,1.024,1.719C216.885,329.77,217.267,329.608,216.882,329.608Z" fill="#080717"/><path d="M218.508,337.865a1,1,0,0,1-.617-1.787l4.421-3.463a1,1,0,0,1,1.234,1.574C218.665,338.013,218.975,337.865,218.508,337.865Z" fill="#080717"/><path d="M218.508,345.5a1,1,0,0,1-.616-1.787l4.7-3.679a1,1,0,1,1,1.232,1.574C218.945,345.424,219,345.5,218.508,345.5Z" fill="#080717"/><path d="M305.282,369.519a1,1,0,0,1-.96-.721c-4.829-16.59-.206-34.586-.007-35.344a1,1,0,0,1,1.935.508c-.048.181-4.678,18.23-.008,34.277A1,1,0,0,1,305.282,369.519Z" fill="#080717"/><path d="M84.388,393.04a1,1,0,0,1-.831-1.555c.711-1.068,17.608-26.232,32.87-32.021a1,1,0,1,1,.709,1.869c-14.662,5.563-31.744,31-31.915,31.262A1,1,0,0,1,84.388,393.04Z" fill="#080717"/><path d="M231.066,130.4a1,1,0,0,1-.991-.883c-1.663-14.175-18.548-19.887-18.719-19.943a1,1,0,0,1,.624-1.9,37.931,37.931,0,0,1,9.311,4.9c6.292,4.512,10.017,10.289,10.77,16.709A1,1,0,0,1,231.066,130.4Z" fill="#fff"/><path d="M127.93,146.709a1,1,0,0,1,.944-1.053c18.393-.994,35.746-26.935,35.919-27.2a1,1,0,0,1,1.669,1.1,98.893,98.893,0,0,1-11.307,13.591c-9.184,9.18-17.99,14.059-26.173,14.5A1,1,0,0,1,127.93,146.709Z" fill="#fff"/><path d="M123.923,141.649a1,1,0,0,1-.048-2c12.438-.616,24.293-10.9,24.412-11a1,1,0,1,1,1.319,1.5C143.441,135.561,132.062,141.649,123.923,141.649Z" fill="#fff"/><path d="M139.062,211.014a.993.993,0,0,1-.526-.151c-12.121-7.515-15.459-24.639-15.595-25.365a1,1,0,0,1,1.966-.369c.031.169,3.319,16.988,14.682,24.035A1,1,0,0,1,139.062,211.014Z" fill="#fff"/><g><path d="M334.255,76.4H285.828a24.609,24.609,0,0,0-24.609,24.609v5.62a24.594,24.594,0,0,0,12.373,21.348A29.777,29.777,0,0,1,260.5,143.646a1.609,1.609,0,0,0,.99,2.994c8.911-1.142,22.372-4.676,29.922-15.4h42.839a24.609,24.609,0,0,0,24.609-24.609v-5.62A24.609,24.609,0,0,0,334.255,76.4Z" fill="#fff"/><path d="M259.993,142.786A28.686,28.686,0,0,0,272.36,128.41a25.693,25.693,0,0,1-12.141-21.777v-5.62A25.639,25.639,0,0,1,285.828,75.4h48.426a25.64,25.64,0,0,1,25.61,25.61v5.62a25.639,25.639,0,0,1-25.61,25.609H291.929c-7.651,10.477-20.67,14.154-30.308,15.39A2.609,2.609,0,0,1,259.993,142.786ZM285.828,77.4a23.636,23.636,0,0,0-23.609,23.61v5.62a23.687,23.687,0,0,0,11.871,20.481,1,1,0,0,1,.442,1.21,30.649,30.649,0,0,1-13.518,16.181.608.608,0,0,0,.352,1.142c9.369-1.2,22.045-4.775,29.232-14.981a1,1,0,0,1,.818-.424h42.838a23.636,23.636,0,0,0,23.61-23.609v-5.62a23.636,23.636,0,0,0-23.61-23.61Z" fill="#090817"/></g><g><circle cx="287.343" cy="104.125" fill="#080717" r="6.009"/><circle cx="309.279" cy="104.125" fill="#080717" r="6.009"/><circle cx="331.215" cy="104.125" fill="#080717" r="6.009"/></g></g></g></svg>