<?xml version="1.0" encoding="utf-8"?>
<!-- Generator: Adobe Illustrator 28.0.0, SVG Export Plug-In . SVG Version: 6.00 Build 0)  -->
<svg version="1.1" id="Layer_1" xmlns="http://www.w3.org/2000/svg" xmlns:xlink="http://www.w3.org/1999/xlink" x="0px" y="0px"
	 viewBox="0 0 1920 313.5" style="enable-background:new 0 0 1920 313.5;" xml:space="preserve">
<style type="text/css">
	.st0{fill:url(#SVGID_1_);}
	.st1{fill:url(#SVGID_00000127745787200550113510000002824276095854941086_);}
	.st2{fill:url(#SVGID_00000132087196860001296510000016476776528459951749_);}
	.st3{fill:#140857;}
	.st4{fill:#00AEEF;}
</style>
<linearGradient id="SVGID_1_" gradientUnits="userSpaceOnUse" x1="281.1885" y1="82.7625" x2="-61.083" y2="432.3165" gradientTransform="matrix(1 0 0 1 0 14.5511)">
	<stop  offset="0" style="stop-color:#00AEEF"/>
	<stop  offset="0.4136" style="stop-color:#0068A8"/>
	<stop  offset="0.8201" style="stop-color:#0A3176"/>
	<stop  offset="1" style="stop-color:#1C1666"/>
</linearGradient>
<path class="st0" d="M237.1,227.5c-4.6,46.3-44.5,81.1-91.1,81.1H22c-8.1,0-14.7-6.6-14.7-14.7v-20.1c0-8.2,4.3-15.8,11.2-20.1
	l23.6-14.4c5.4-3.3,12.4-1.6,15.7,3.8l2.5,4l2.9,4.8c5.1,8.3,15.9,10.9,24.2,5.8l4.8-2.9L200,188.8c6.2-3.8,14.2-1.8,18,4.3
	l6.4,10.5c2,3.2,6.6,3.1,8.5-0.2l0,0c0.8-1.5,3.1-1.1,3.3,0.6C237.7,211.6,238,219.4,237.1,227.5z"/>
<linearGradient id="SVGID_00000171698640215004074660000013150575588799662742_" gradientUnits="userSpaceOnUse" x1="-27.5691" y1="123.8144" x2="240.3615" y2="-59.0089" gradientTransform="matrix(1 0 0 1 0 14.5511)">
	<stop  offset="0" style="stop-color:#00AEEF"/>
	<stop  offset="0.4136" style="stop-color:#0068A8"/>
	<stop  offset="0.8201" style="stop-color:#0A3176"/>
	<stop  offset="1" style="stop-color:#1C1666"/>
</linearGradient>
<path style="fill:url(#SVGID_00000171698640215004074660000013150575588799662742_);" d="M196.8,77.5c8.2-0.3,14-8.4,11.4-16.3
	c-10-31.1-39.2-53.5-73.5-53.5H19.8c-6.9,0-12.5,5.6-12.5,12.5v116.6c0,9.7,10.7,15.7,19,10.6l21.1-12.9l9.7-5.9l17.7-10.8l4.5-2.7
	c8.5-5.2,19.5-2.5,24.7,5.9l2.7,4.5l1.9,3.1l0,0c3.6,5.9,11.3,7.7,17.1,4.1l6.8-4.2l22.7-13.9c5.9-3.6,7.7-11.3,4.1-17.1l0,0
	c-5-8.1,0.6-18.6,10.2-19l18.4-0.7L196.8,77.5z"/>
<linearGradient id="SVGID_00000149339609211040216680000005557612523931679113_" gradientUnits="userSpaceOnUse" x1="288.5422" y1="59.0246" x2="-46.8568" y2="254.3669" gradientTransform="matrix(1 0 0 1 0 14.5511)">
	<stop  offset="0" style="stop-color:#FCED00"/>
	<stop  offset="0.6034" style="stop-color:#1BB24B"/>
	<stop  offset="1" style="stop-color:#00652E"/>
</linearGradient>
<path style="fill:url(#SVGID_00000149339609211040216680000005557612523931679113_);" d="M262.4,103.2l-31.7,56.7
	c-1.2,2.1-4.2,2.2-5.5,0.1l-2.9-4.8c-1.8-2.9-5.6-3.9-8.6-2.1l-2.6,1.6L87,230.8c-3.7,2.3-8.6,1.1-10.9-2.6l-13.2-21.5
	c-1.8-2.9-5.6-3.9-8.6-2.1l-37.6,22.9c-4.2,2.5-9.5-0.4-9.5-5.3v-32.3c0-2.2,1.1-4.2,3-5.3l36.6-22.3l12.7-7.8l20.6-12.6
	c3.7-2.3,8.6-1.1,10.9,2.6l10.9,17.8l2.3,3.7c1.8,2.9,5.6,3.9,8.6,2.1l9.5-5.8l49.5-30.3l20.9-12.8c2.9-1.8,3.9-5.6,2.1-8.6
	l-2.9-4.8c-1.3-2.1,0.2-4.8,2.6-4.9l15.9-0.6l49-1.8C261.9,98.3,263.6,101,262.4,103.2z"/>
<g>
	<path class="st3" d="M351.3,187.7v-118H414c19,0,35.7,11.2,35.7,30.8c0,11.8-4.6,20.6-15.1,26.6c14.5,4.9,21,15.7,21,28.4
		c0,20.2-16,32.3-36,32.3H351.3z M384.7,95.8v20h22c5.7,0,9.1-4.2,9.1-10.3c0-5.6-3.6-9.7-9.8-9.7C406.1,95.8,384.7,95.8,384.7,95.8
		z M384.7,140.7v22.1H409c6.6,0,10.8-4.8,10.8-10.8c0-6.5-4.1-11.3-10.8-11.3H384.7z"/>
	<path class="st3" d="M556.5,187.7l-22.9-32.1h-15.1v32.1h-34.4v-118h59.8c29.5,0,46,18.6,46,42.5c0,17.1-9.9,30.9-21.3,36.1
		l29.2,39.5H556.5z M518.5,98.4v29.1h19.4c10.1,0,16.7-5,16.7-14.6c0-9.9-6.2-14.4-16.7-14.4C537.9,98.4,518.5,98.4,518.5,98.4z"/>
	<path class="st3" d="M716.4,187.7h-92v-118H716v27.9h-56.9v16.6h51.2v27.7h-51.2v18.3h57.3L716.4,187.7L716.4,187.7z"/>
	<path class="st3" d="M836.9,187.7h-92v-118h91.6v27.9h-56.9v16.6h51.2v27.7h-51.2v18.3h57.3L836.9,187.7L836.9,187.7z"/>
	<path class="st3" d="M899.2,187.7h-33.7v-118h28.3l53.8,63v-63h33.7v118h-27l-55-62.3V187.7z"/>
	<path class="st3" d="M1142,67.9c12.1,0,23.8,1.9,36.7,7.3l-2.4,29.7c-8.2-4.1-19.1-6.9-31-6.9c-19.7,0-37.9,8.2-37.9,30.3
		c0,21.2,17.9,31.1,37.7,31.1c11.4,0,20.6-2.8,31.1-9.2l5.3,29.2c-14.9,8.2-28.5,10.1-43.5,10.1c-36.4,0-65.9-23.5-66-60.7
		C1072,88.1,1104.5,68,1142,67.9z"/>
	<path class="st3" d="M1289.8,167.9H1247l-7.5,19.7h-37l45.4-118h41.4l45.3,118h-37L1289.8,167.9z M1255,141.8h27l-13.4-39.5
		L1255,141.8z"/>
	<path class="st3" d="M1394.6,156v31.8h-34.7V69.6h59.7c29.5,0,46,18.6,46,42.5c0,24-16.5,43.8-46,43.8L1394.6,156L1394.6,156z
		 M1394.6,98.3v29.2h19.1c10.1,0,16.7-5,16.7-14.6c0-10.1-6.2-14.6-16.7-14.6h-19.1V98.3z"/>
	<path class="st3" d="M1527.6,187.7h-34.7v-118h34.7V187.7z"/>
	<path class="st3" d="M1587.2,98h-33.7V69.6h102.8V98h-34.5v89.7h-34.7V98z"/>
	<path class="st3" d="M1750.6,167.9h-42.8l-7.5,19.7h-37l45.4-118h41.4l45.3,118h-37L1750.6,167.9z M1715.7,141.8h27l-13.4-39.5
		L1715.7,141.8z"/>
	<path class="st3" d="M1912,187.7h-91.4v-118h34.7V160h56.6L1912,187.7L1912,187.7z"/>
</g>
<g>
	<path class="st3" d="M351.3,245.2l2.1-4.1c2.5,2,5.5,3.6,10.1,3.6c3.3,0,6.6-1.5,6.6-4.3c0-2.8-3.1-3.6-6.2-4.4
		c-5.6-1.3-11.3-3.1-11.3-9.1c0-5.7,5.4-8.6,11-8.6c4.4,0,7.7,1.2,10.8,3.3l-2.1,4.2c-2.7-1.7-5.5-2.5-8.7-2.5c-2,0-5.5,0.8-5.5,3.6
		c0,2.4,2.7,3.2,6.4,4.1c5.8,1.4,11.3,3.5,11.3,9.4c0,6.4-6.3,9.2-12.3,9.2C356.8,249.6,353.3,247.1,351.3,245.2z"/>
	<path class="st3" d="M393,223.4h-10.7v-4.7h26.8v4.7h-10.7v25.7H393V223.4z"/>
	<path class="st3" d="M417.2,218.7H430c8.7,0,13.4,5.2,13.4,11.6c0,4.1-2.2,7.9-6.2,9.8l6.7,8.9h-6.3l-5.3-7.4
		c-0.8,0.1-1.8,0.2-2.7,0.2h-6.9v7.2h-5.4V218.7z M430.3,237.2c4.4,0,7.4-3.1,7.4-6.9c0-3.9-3-7-7.4-7h-7.7v13.9H430.3z"/>
	<path class="st3" d="M452.2,218.7h23.6v4.7h-18.1v7.4h17.1v4.6h-17.1v9h18.8v4.7h-24.2V218.7z"/>
	<path class="st3" d="M484.6,218.7h5.5l10.9,14.9c2.2,3,4.6,7.2,4.6,7.2v-22.1h5.4v30.4h-5.6l-10.4-14.2c-2.6-3.6-5.1-7.7-5.1-7.7
		v21.9h-5.4V218.7z"/>
	<path class="st3" d="M520.1,233.9c0-8.7,6.8-15.7,16-15.7c4.1,0,7.6,1.4,10.4,3.7l-3.2,3.7c-2.1-1.7-4.4-2.4-7.1-2.4
		c-6,0-10.4,4.9-10.4,10.7c0,5.9,4.4,10.7,10.4,10.7c3.2,0,6-1.5,7.8-3.7v-5.2h-5.6v-4.5h10.8V243c-2.7,4.1-7.6,6.6-13.1,6.6
		C526.9,249.6,520.1,242.6,520.1,233.9z"/>
	<path class="st3" d="M567.7,223.4H557v-4.7h26.8v4.7h-10.7v25.7h-5.4V223.4z"/>
	<path class="st3" d="M591.9,218.7h5.4v12.1h14.8v-12.1h5.4v30.4h-5.4v-13.6h-14.8v13.6h-5.4V218.7z"/>
	<path class="st4" d="M655.2,235.6c0-3.7,3-6.7,6.7-6.7c3.7,0,6.7,3,6.7,6.7s-3,6.7-6.7,6.7C658.2,242.3,655.2,239.3,655.2,235.6z"
		/>
	<path class="st3" d="M705,245.2l2.1-4.1c2.5,2,5.5,3.6,10.1,3.6c3.3,0,6.6-1.5,6.6-4.3c0-2.8-3.1-3.6-6.2-4.4
		c-5.6-1.3-11.3-3.1-11.3-9.1c0-5.7,5.4-8.6,11-8.6c4.4,0,7.7,1.2,10.8,3.3l-2.1,4.2c-2.7-1.7-5.5-2.5-8.7-2.5c-2,0-5.5,0.8-5.5,3.6
		c0,2.4,2.7,3.2,6.4,4.1c5.8,1.4,11.3,3.5,11.3,9.4c0,6.4-6.3,9.2-12.3,9.2C710.5,249.6,707,247.1,705,245.2z"/>
	<path class="st3" d="M746.7,223.4H736v-4.7h26.8v4.7h-10.7v25.7h-5.4V223.4z"/>
	<path class="st3" d="M778.1,218.7h5.2l13.7,30.4h-5.5l-2.4-5.2h-16.7l-2.4,5.2h-5.5L778.1,218.7z M787.2,239.5l-3.5-7.9
		c-1.3-3-3-7.1-3-7.1s-1.6,4-3,7.1l-3.5,7.9H787.2z"/>
	<path class="st3" d="M804.5,218.7h14.2c5,0,9.1,2.3,9.1,7.7c0,2.4-1.5,4.6-3.2,5.4c3.5,0.7,6,3.8,6,7.8c0,6.2-4.7,9.5-11.5,9.5
		h-14.6V218.7z M818.3,230.2c2.3,0,3.7-1.3,3.7-3.3c0-2.1-1.3-3.5-3.9-3.5h-8.2v6.8H818.3z M818.7,244.4c3.8,0,6.2-1.5,6.2-4.7
		c0-3.2-2.2-4.9-5.7-4.9h-9.3v9.6H818.7z"/>
	<path class="st3" d="M839.7,218.7h5.4v30.4h-5.4V218.7z"/>
	<path class="st3" d="M855.4,218.7h5.4v25.7H879v4.7h-23.6V218.7z"/>
	<path class="st3" d="M887.7,218.7h5.4v30.4h-5.4V218.7z"/>
	<path class="st3" d="M911.8,223.4h-10.7v-4.7h26.8v4.7h-10.7v25.7h-5.4V223.4z"/>
	<path class="st3" d="M945,235.1l-11.8-16.4h6.2l6,8.3c1.4,1.9,2.3,3.4,2.3,3.4s1.1-1.6,2.4-3.4l5.8-8.3h6.2L950.4,235v14.1H945
		V235.1z"/>
	<path class="st4" d="M997,235.6c0-3.7,3-6.7,6.7-6.7c3.7,0,6.7,3,6.7,6.7s-3,6.7-6.7,6.7C1000,242.3,997,239.3,997,235.6z"/>
	<path class="st3" d="M1048,218.7h12.8c8.7,0,13.4,5.2,13.4,11.6c0,6.4-4.6,11.6-13.4,11.6h-7.3v7.2h-5.4V218.7z M1061.1,237.2
		c4.5,0,7.4-3.1,7.4-6.9c0-3.8-2.8-6.9-7.3-6.9h-7.7v13.8H1061.1z"/>
	<path class="st3" d="M1083,218.7h12.8c8.7,0,13.4,5.2,13.4,11.6c0,4.1-2.2,7.9-6.2,9.8l6.7,8.9h-6.3l-5.3-7.4
		c-0.8,0.1-1.8,0.2-2.7,0.2h-6.9v7.2h-5.4V218.7z M1096.1,237.2c4.4,0,7.4-3.1,7.4-6.9c0-3.9-3-7-7.4-7h-7.7v13.9H1096.1z"/>
	<path class="st3" d="M1116.8,233.9c0-8.7,6.8-15.7,16-15.7c9.2,0,16,7,16,15.7c0,8.7-6.8,15.7-16,15.7
		C1123.6,249.6,1116.8,242.6,1116.8,233.9z M1143.1,233.9c0-5.9-4.4-10.7-10.3-10.7c-6,0-10.4,4.9-10.4,10.7
		c0,5.9,4.4,10.7,10.4,10.7C1138.7,244.6,1143.1,239.8,1143.1,233.9z"/>
	<path class="st3" d="M1157.9,218.7h22.4v4.7h-16.9v7.4h14.3v4.6h-14.3v13.6h-5.4V218.7z"/>
	<path class="st3" d="M1187.9,218.7h23.6v4.7h-18.1v7.4h17.1v4.6h-17.1v9h18.8v4.7h-24.2V218.7z"/>
	<path class="st3" d="M1219,245.2l2.1-4.1c2.5,2,5.5,3.6,10.1,3.6c3.3,0,6.6-1.5,6.6-4.3c0-2.8-3.1-3.6-6.2-4.4
		c-5.6-1.3-11.3-3.1-11.3-9.1c0-5.7,5.4-8.6,11-8.6c4.4,0,7.7,1.2,10.8,3.3l-2.1,4.2c-2.7-1.7-5.5-2.5-8.7-2.5c-2,0-5.5,0.8-5.5,3.6
		c0,2.4,2.7,3.2,6.4,4.1c5.8,1.4,11.3,3.5,11.3,9.4c0,6.4-6.3,9.2-12.3,9.2C1224.6,249.6,1221,247.1,1219,245.2z"/>
	<path class="st3" d="M1251.4,245.2l2.1-4.1c2.5,2,5.5,3.6,10.1,3.6c3.3,0,6.6-1.5,6.6-4.3c0-2.8-3.1-3.6-6.2-4.4
		c-5.6-1.3-11.3-3.1-11.3-9.1c0-5.7,5.4-8.6,11-8.6c4.4,0,7.7,1.2,10.8,3.3l-2.1,4.2c-2.7-1.7-5.5-2.5-8.7-2.5c-2,0-5.5,0.8-5.5,3.6
		c0,2.4,2.7,3.2,6.4,4.1c5.8,1.4,11.3,3.5,11.3,9.4c0,6.4-6.3,9.2-12.3,9.2C1256.9,249.6,1253.4,247.1,1251.4,245.2z"/>
	<path class="st3" d="M1285,218.7h5.4v30.4h-5.4V218.7z"/>
	<path class="st3" d="M1299.5,233.9c0-8.7,6.8-15.7,16-15.7c9.2,0,16,7,16,15.7c0,8.7-6.8,15.7-16,15.7
		C1306.3,249.6,1299.5,242.6,1299.5,233.9z M1325.8,233.9c0-5.9-4.4-10.7-10.3-10.7c-6,0-10.4,4.9-10.4,10.7
		c0,5.9,4.4,10.7,10.4,10.7C1321.3,244.6,1325.8,239.8,1325.8,233.9z"/>
	<path class="st3" d="M1340.5,218.7h5.5l10.9,14.9c2.2,3,4.6,7.2,4.6,7.2v-22.1h5.4v30.4h-5.6l-10.4-14.2c-2.6-3.6-5.1-7.7-5.1-7.7
		v21.9h-5.4V218.7z"/>
	<path class="st3" d="M1388.2,218.7h5.2l13.7,30.4h-5.5l-2.4-5.2h-16.7l-2.4,5.2h-5.5L1388.2,218.7z M1397.2,239.5l-3.5-7.9
		c-1.3-3-3-7.1-3-7.1s-1.6,4-3,7.1l-3.5,7.9H1397.2z"/>
	<path class="st3" d="M1414.5,218.7h5.4v25.7h18.2v4.7h-23.6V218.7z"/>
	<path class="st3" d="M1446.8,218.7h5.4v30.4h-5.4V218.7z"/>
	<path class="st3" d="M1461.3,245.2l2.1-4.1c2.5,2,5.5,3.6,10.1,3.6c3.3,0,6.6-1.5,6.6-4.3c0-2.8-3.1-3.6-6.2-4.4
		c-5.6-1.3-11.3-3.1-11.3-9.1c0-5.7,5.4-8.6,11-8.6c4.4,0,7.7,1.2,10.8,3.3l-2.1,4.2c-2.7-1.7-5.5-2.5-8.7-2.5c-2,0-5.5,0.8-5.5,3.6
		c0,2.4,2.7,3.2,6.4,4.1c5.8,1.4,11.3,3.5,11.3,9.4c0,6.4-6.3,9.2-12.3,9.2C1466.8,249.6,1463.3,247.1,1461.3,245.2z"/>
	<path class="st3" d="M1494.8,218.7h4.7l4.2,5.9c2.2,3,6.9,9.8,6.9,9.8s4.7-6.7,6.8-9.7l4.2-5.9h4.7v30.4h-5.4V228
		c0,0-0.9,1.7-2.9,4.5l-7.5,10.7l-7.5-10.8c-1.9-2.7-2.9-4.5-2.9-4.5v21.1h-5.4V218.7z"/>
	<path class="st4" d="M1564.1,235.6c0-3.7,3-6.7,6.7-6.7c3.7,0,6.7,3,6.7,6.7s-3,6.7-6.7,6.7
		C1567.1,242.3,1564.1,239.3,1564.1,235.6z"/>
	<path class="st3" d="M1615.1,218.7h11.9c9.9,0,16.1,6.9,16.1,15.2c0,8.3-6.2,15.2-16.1,15.2h-11.9V218.7z M1626.7,244.4
		c6.4,0,10.7-4.5,10.7-10.5c0-6-4.3-10.5-10.7-10.5h-6.2v21H1626.7z"/>
	<path class="st3" d="M1652.2,218.7h5.4v30.4h-5.4V218.7z"/>
	<path class="st3" d="M1667.8,218.7h12.8c8.7,0,13.4,5.2,13.4,11.6c0,6.4-4.6,11.6-13.4,11.6h-7.3v7.2h-5.4V218.7z M1681,237.2
		c4.5,0,7.4-3.1,7.4-6.9c0-3.8-2.8-6.9-7.3-6.9h-7.7v13.8H1681z"/>
	<path class="st3" d="M1702.8,218.7h5.4v25.7h18.2v4.7h-23.6V218.7z"/>
	<path class="st3" d="M1732.8,233.9c0-8.7,6.8-15.7,16-15.7c9.2,0,16,7,16,15.7c0,8.7-6.8,15.7-16,15.7
		C1739.6,249.6,1732.8,242.6,1732.8,233.9z M1759.1,233.9c0-5.9-4.4-10.7-10.3-10.7c-6,0-10.4,4.9-10.4,10.7
		c0,5.9,4.4,10.7,10.4,10.7C1754.7,244.6,1759.1,239.8,1759.1,233.9z"/>
	<path class="st3" d="M1773.9,218.7h4.7l4.2,5.9c2.2,3,6.9,9.8,6.9,9.8s4.7-6.7,6.8-9.7l4.2-5.9h4.7v30.4h-5.4V228
		c0,0-0.9,1.7-2.9,4.5l-7.5,10.7l-7.5-10.8c-1.9-2.7-2.9-4.5-2.9-4.5v21.1h-5.4V218.7z"/>
	<path class="st3" d="M1826.7,218.7h5.2l13.7,30.4h-5.5l-2.4-5.2h-16.7l-2.4,5.2h-5.5L1826.7,218.7z M1835.8,239.5l-3.5-7.9
		c-1.3-3-3-7.1-3-7.1s-1.6,4-3,7.1l-3.5,7.9H1835.8z"/>
	<path class="st3" d="M1851.2,233.9c0-8.6,6.8-15.6,16-15.6c3.9,0,7.5,1.3,10.2,3.6l-3.1,3.7c-2.1-1.6-4.3-2.3-6.7-2.3
		c-6.3,0-10.7,4.9-10.7,10.7c0,5.9,4.4,10.8,10.4,10.8c3,0,5.7-1.1,7.6-3l3.3,3.8c-2.8,2.6-6.7,4.2-11,4.2
		C1858,249.6,1851.2,242.6,1851.2,233.9z"/>
	<path class="st3" d="M1894.9,235.1l-11.8-16.4h6.2l5.9,8.3c1.4,1.9,2.3,3.4,2.3,3.4s1.1-1.6,2.4-3.4l5.8-8.3h6.2l-11.7,16.3v14.1
		h-5.4V235.1z"/>
</g>
</svg>
