<?xml version="1.0"?><svg height="512" viewBox="0 0 512 512" width="512" xmlns="http://www.w3.org/2000/svg"><title/><g><g opacity="0.2"><circle cx="264.542" cy="256" fill="#6556ff" r="200" transform="translate(-103.537 262.04) rotate(-45)"/></g><g><path d="M277.336,184.7s1.231,23.536-12.925,33.787-12,28.407,0,36.1-9.232,5.847-16.31,23.388-2.77,27.427-2.77,27.427h74.445l5.566-48.353-25.317-82.165Z" fill="#080717"/><g><path d="M323.014,271.334c-10.59-1.22-25.647-1.126-39.7,6.79-16.174,9.112-18.657,21.084-62.932,82.137q-16.977-33.168-33.952-66.336l-30.3,5.745c8.04,63.965,35.091,108.188,63.977,110.213,20.217,1.417,37.8-18.084,53.278-35.258C307.414,336.886,318.716,294.842,323.014,271.334Z" fill="#fff"/><path d="M220.044,410.881c-30.258-2.121-56.945-47.8-64.9-111.086a1,1,0,0,1,.805-1.107l30.3-5.746a1,1,0,0,1,1.077.527l33.209,64.885c43.585-60.236,45.958-71.9,62.293-81.1,11.3-6.364,24.86-8.693,40.3-6.912a1,1,0,0,1,.869,1.173c-7.273,39.777-24.516,75.664-49.862,103.781C259.66,391.353,241.237,412.364,220.044,410.881Zm-62.8-110.4c3.934,30.512,12.2,57.128,23.922,77.019,11.36,19.274,25.216,30.421,39.015,31.389,19.7,1.375,37.122-17.909,52.464-34.931,24.873-27.591,41.869-62.754,49.186-101.744-14.577-1.506-27.362.776-38.027,6.784-15.927,8.974-18.412,20.9-62.614,81.853a1,1,0,0,1-1.7-.131l-33.61-65.67Z" fill="#090817"/></g><g><path d="M377.559,343.155c1.238-26.482,3.943-39.427-5.223-51.712a45.767,45.767,0,0,0-17.006-13.425,15.756,15.756,0,0,1-8.828-14.211V234.379H314.718v27.172a11.374,11.374,0,0,1-8.916,11.128c-10.6,2.315-20.2,6.949-26.964,14.063-10.176,10.707-11.207,24.139-12.536,40.743-2.339,29.232-5.609,68.372-10.577,123.532l128.1.783A536.122,536.122,0,0,1,377.559,343.155Z" fill="#fff"/><path d="M383.827,452.8c-1.384,0,15.768.1-128.107-.783a1,1,0,0,1-.991-1.09c4.9-54.438,7.506-85.7,10.6-123.751,1.35-16.877,2.416-30.208,12.789-41.122,6.554-6.895,16.055-11.858,27.476-14.352a10.429,10.429,0,0,0,8.13-10.151V234.379a1,1,0,0,1,1-1H346.5a1,1,0,0,1,1,1v29.428a14.819,14.819,0,0,0,8.263,13.311,46.4,46.4,0,0,1,17.373,13.728c9.5,12.733,6.619,26.68,5.421,52.355h0a539.61,539.61,0,0,0,6.256,108.444A1,1,0,0,1,383.827,452.8Zm-127.008-2.777,125.839.77a541.085,541.085,0,0,1-6.1-107.686c1.24-26.519,3.9-39.1-5.027-51.066A44.44,44.44,0,0,0,354.9,278.919a16.83,16.83,0,0,1-9.394-15.112V235.379H315.719v26.172a12.438,12.438,0,0,1-9.7,12.1c-11.028,2.409-20.175,7.173-26.453,13.777-9.884,10.4-10.926,23.421-12.245,39.9C265.175,355.186,260.2,412.51,256.819,450.023Z" fill="#090817"/></g><path d="M309.8,269.212s-19.234,1.378-30.158,10-59.008,76.856-59.008,76.856L193.4,305.4l-32.945,24.118s16.789,62.316,40.331,75.241,40.39,5.309,57.7-12L250.871,456h139.4s-12.893-70.625-10.139-108.476-9.143-64.337-13.119-67.866-17.67-8.9-17.67-8.9l-34.928,41.527Q312.11,290.749,309.8,269.212Z" fill="#6556ff"/><path d="M338.649,308.087c-1.175-11.693,2.924-28.47,13.543-31.881,7.171-2.3,14.315,1.667,22.78,6.37a74.89,74.89,0,0,1,19.918,16.018c11.353,13.186,71.43,93.932,50.062,119.4-15.446,18.407-71.456,5.559-133.718-32.385q5.622-14.495,11.243-28.989l69.34,19.195q-16-18.3-32.008-36.6C357.354,337.739,340.577,327.284,338.649,308.087Z" fill="#6556ff"/><g><g><rect fill="#fff" height="16.286" rx="7.503" transform="translate(381.589 -87.054) rotate(49.746)" width="86.349" x="241.507" y="359.874"/><path d="M300.754,401.148l-46.1-54.447a8.5,8.5,0,0,1,.994-11.983l.977-.827a8.512,8.512,0,0,1,11.983.994l46.1,54.447a8.5,8.5,0,0,1-.994,11.985l-.978.827A8.5,8.5,0,0,1,300.754,401.148Zm-38.646-67.272c-2.558,0-3.9,1.291-5.167,2.367a6.5,6.5,0,0,0-.761,9.165c47.954,56.637,46,54.447,46.1,54.447a6.5,6.5,0,0,0,9.164.762l.978-.827a6.511,6.511,0,0,0,.76-9.165l-46.1-54.447A6.472,6.472,0,0,0,262.108,333.876Z" fill="#090817"/></g><g><circle cx="243.801" cy="311.564" fill="#fff" r="50.615"/><path d="M243.833,363.207c-35.868,0-60.707-35.634-48.571-69.193a51.615,51.615,0,1,1,97.079,35.1h0A51.637,51.637,0,0,1,243.833,363.207Zm.018-101.261c-36.387,0-60.366,37.848-44.972,70.682a49.615,49.615,0,0,0,91.581-4.192h0C302.193,295.988,278.019,261.946,243.851,261.946Z" fill="#090817"/></g><g><circle cx="243.801" cy="311.564" fill="#fff" r="43.109"/><path d="M243.829,355.7a44.123,44.123,0,1,1,41.452-29.134A44.111,44.111,0,0,1,243.829,355.7Zm-.054-86.262A42.118,42.118,0,1,0,283.4,325.883h0A42.135,42.135,0,0,0,243.775,269.434Z" fill="#090817"/></g></g><g><path d="M189.066,380.6a649.621,649.621,0,0,1-110.53,32.39A304.1,304.1,0,0,0,47.458,257.973a783.123,783.123,0,0,1,114.425-17.785A419.517,419.517,0,0,1,189.066,380.6Z" fill="#fff"/><path d="M77.538,412.924A303.11,303.11,0,0,0,46.562,258.417,1,1,0,0,1,47.231,257,785.032,785.032,0,0,1,161.8,239.19a1,1,0,0,1,1.014.643,420.642,420.642,0,0,1,27.248,140.744,1,1,0,0,1-.634.951,651.258,651.258,0,0,1-110.7,32.441A1,1,0,0,1,77.538,412.924ZM48.913,258.662a305.093,305.093,0,0,1,30.7,153.091,649.512,649.512,0,0,0,108.436-31.832,418.672,418.672,0,0,0-26.837-138.676A782.984,782.984,0,0,0,48.913,258.662Z" fill="#090817"/></g><g><path d="M189.066,299.068s-5.776-12.325-9.041-14.937-18.282-3.395-19.457-1.567,7.182,5.975,11.622,7.754,8.553,15.085,8.553,15.085" fill="#fff"/><path d="M180.743,306.4a1,1,0,0,1-.955-.7c-1.106-3.575-4.693-13.139-7.97-14.451-.459-.185-11.255-4.542-12.266-7.712a1.755,1.755,0,0,1,.176-1.513c.383-.6,1.182-.966,2.589-1.2,4.257-.7,15.193.013,18.333,2.525,3.408,2.725,9.081,14.782,9.321,15.295a1,1,0,0,1-1.811.847c-1.579-3.369-6.231-12.558-8.76-14.58-2.892-2.313-15.79-2.924-17.887-1.843.607,1.147,5.332,4.03,11.049,6.321,4.746,1.9,8.7,14.308,9.136,15.717A1,1,0,0,1,180.743,306.4Z" fill="#090817"/></g><path d="M74.7,277.344a1,1,0,0,1-.182-1.984l72.746-13.555a1,1,0,1,1,.367,1.966C71.141,278.025,74.85,277.344,74.7,277.344Z" fill="#080717"/><path d="M81.235,290.657a1,1,0,0,1-.213-1.976l71.247-15.563a1,1,0,0,1,.427,1.953C78.156,291.353,81.4,290.657,81.235,290.657Z" fill="#080717"/><path d="M87.351,303.792a1,1,0,0,1-.213-1.977l71.246-15.561a1,1,0,0,1,.428,1.953C84.271,304.488,87.518,303.792,87.351,303.792Z" fill="#080717"/><path d="M91.932,319.7a1,1,0,0,1-.213-1.976l71.246-15.563a1,1,0,0,1,.428,1.953C88.853,320.392,92.1,319.7,91.932,319.7Z" fill="#080717"/><path d="M95.723,334.932a1,1,0,0,1-.213-1.977l71.245-15.562a1,1,0,0,1,.428,1.953C92.643,335.628,95.89,334.932,95.723,334.932Z" fill="#080717"/><path d="M96.5,348.68a1,1,0,0,1-.213-1.977l71.245-15.561a1,1,0,1,1,.428,1.953C93.419,349.376,96.666,348.68,96.5,348.68Z" fill="#080717"/><path d="M99.929,364.824a1,1,0,0,1-.213-1.976l71.246-15.563a1,1,0,0,1,.428,1.953C96.85,365.52,100.1,364.824,99.929,364.824Z" fill="#080717"/><path d="M100.815,380.528a1,1,0,0,1-.212-1.976l71.246-15.562a1,1,0,0,1,.427,1.953C97.736,381.224,100.983,380.528,100.815,380.528Z" fill="#080717"/><g><path d="M345.656,370.687a98.011,98.011,0,0,1-24.823-9.289c-4.345-2.368-7.319-4.458-12.767-5.8-5.9-1.452-10.383-.964-17.449-.195,0,0-15.083,1.641-21.732,7.923-3.895,3.679.738,7.94,4.7,8.386,0,0-3.164,7.121,6.438,8.063,0,0-3.17,7.039,6.539,7.565a4.425,4.425,0,0,0-.647,3.643c.648,1.776,2.826,2.457,4.387,2.9,8.982,2.534,13.473,3.8,20.009,2.962,5.392-.692,5.172-1.769,8.607-1.529,2.65.186,12.905,4.445,12.669,4.445A52.48,52.48,0,0,0,345.656,370.687Z" fill="#fff"/><path d="M331.188,400.676c-9.3-4.057-12.319-4.363-12.348-4.364-3.1-.218-3.037.835-8.4,1.523-6.739.859-11.306-.425-20.407-2.991-1.469-.415-4.2-1.187-5.054-3.518a4.656,4.656,0,0,1,.058-3.126c-5.3-.729-7.151-3.887-6.317-7.589-5.47-.919-7.315-4.3-6.42-8.128-3.168-.837-6.135-3.525-5.89-6.536a5.21,5.21,0,0,1,1.79-3.347c6.816-6.44,21.682-8.123,22.311-8.192,7.067-.768,11.729-1.274,17.8.22a38.221,38.221,0,0,1,10.68,4.591,97,97,0,0,0,26.9,10.494,1,1,0,0,1,.762,1.118,53.417,53.417,0,0,1-14.337,29.62A1,1,0,0,1,331.188,400.676Zm-12.2-6.36c.125.009,3.1.257,12.356,4.246a51.348,51.348,0,0,0,13.183-27.117A98.62,98.62,0,0,1,318,360.959a36.64,36.64,0,0,0-10.173-4.39c-5.725-1.41-10-.943-17.094-.173-.154.016-14.836,1.681-21.161,7.657a3.3,3.3,0,0,0-1.169,2.057c-.174,2.142,2.766,4.324,5.3,4.608a1,1,0,0,1,.8,1.4,5.086,5.086,0,0,0,.089,4.118c.828,1.41,2.689,2.265,5.532,2.544a1,1,0,0,1,.815,1.407,4.722,4.722,0,0,0,.075,3.9c.823,1.34,2.709,2.1,5.6,2.257a1,1,0,0,1,.762,1.577,3.447,3.447,0,0,0-.523,2.722c.462,1.263,2.162,1.838,3.719,2.277,8.841,2.5,13.278,3.748,19.611,2.933C315.379,395.185,315.351,394.065,318.988,394.316Z" fill="#090817"/></g><polygon fill="#6556ff" points="350.115 366.835 329.804 361.255 319.776 397.607 344.345 407.07 350.115 366.835"/><g><path d="M386.6,199.632c.946-40.675-40.121-68.329-77.145-53.217-21.523,5.872-35.754,25.755-35.744,47.527.013,31.261,6.837,67.29,46.563,67.6,34.705.273,51.349-20.519,58.244-33.122a15.01,15.01,0,1,0,8.082-28.791Z" fill="#fff"/><path d="M320.954,262.548c-37.9,0-48.223-30.77-48.24-68.606-.01-22.25,14.848-42.559,36.423-48.476,37.392-15.216,78.5,12.416,78.5,52.829,0,.179,0,.356-.008.534a16.012,16.012,0,1,1-8.641,30.816C371.85,242.311,355.093,262.546,320.954,262.548Zm9.656-119.277a54.667,54.667,0,0,0-20.889,4.109c-20.621,5.608-35.017,25.076-35.007,46.562.019,44.576,14.926,66.362,45.571,66.6,34.2.254,50.634-20.311,57.36-32.6a1,1,0,0,1,1.23-.456,14.01,14.01,0,1,0,7.545-26.872,1,1,0,0,1-.816-1C386.526,168.609,361.208,143.271,330.61,143.271Z" fill="#090817"/></g><path d="M356.306,195.516a1,1,0,0,1-.71-.3,21.223,21.223,0,0,0-21.235-5.873,1,1,0,0,1-.649-1.892,23.636,23.636,0,0,1,23.3,6.357A1,1,0,0,1,356.306,195.516Z" fill="#080717"/><g><path d="M341.549,201.744a4.224,4.224,0,0,0-3.442.011,1,1,0,0,1-.866-1.8,6.181,6.181,0,0,1,5.271.039,14.167,14.167,0,0,1,1.539,1.029c1.746,1.281,2.455,1.634,3.585.62a1,1,0,1,1,1.338,1.486C345.908,205.888,343.378,202.748,341.549,201.744Z" fill="#080717"/><circle cx="339.543" cy="205.178" fill="#080717" r="5.811"/></g><path d="M283.572,190.448a1,1,0,0,1-.672-1.741,19.326,19.326,0,0,1,21.223-3.155,1,1,0,1,1-.853,1.808,17.322,17.322,0,0,0-19.026,2.829A1,1,0,0,1,283.572,190.448Z" fill="#080717"/><g><path d="M285.189,198.17a1,1,0,0,1,1.545-1.272c.966,1.175,1.722.926,3.634-.081a14.353,14.353,0,0,1,1.676-.791,6.188,6.188,0,0,1,5.219.744,1,1,0,0,1-1.124,1.654,4.226,4.226,0,0,0-3.4-.521C290.75,198.635,287.811,201.351,285.189,198.17Z" fill="#080717"/><circle cx="294.212" cy="201.597" fill="#080717" r="5.811"/></g><path d="M309.972,215.792c-1.358-2.374,2.968-12.09,4.891-16.157a1,1,0,1,1,1.809.855c-2.808,5.94-5.471,13.111-4.958,14.32.558.975,4.3,1.531,7.42,1.43a.985.985,0,0,1,1.031.967,1,1,0,0,1-.967,1.031C316.582,218.324,311.274,218.067,309.972,215.792Z" fill="#080717"/><ellipse cx="348.107" cy="220.583" fill="#6556ff" rx="5.241" ry="8.028" transform="translate(123.768 566.282) rotate(-89.38)"/><ellipse cx="289.307" cy="218.488" fill="#6556ff" rx="5.241" ry="8.028" transform="translate(67.7 505.412) rotate(-89.38)"/><path d="M273.714,187.075a34.993,34.993,0,0,1,44.32-48.888c20.893-13.713,47.281-11.233,62.393,1.616,3.3,2.808,12.215,10.387,13.54,21.541.683,5.753-1.289,7.093,0,12.618,2.064,8.843,8.04,9.356,12.309,18.464.687,1.463,4.977,10.938,2.388,21.258-1.884,7.513-6.173,10.527-7.311,20.695-.343,3.061-.536,4.98.307,7.284,2.414,6.6,9.757,6.619,15.079,11.078,12.811,10.734,13.115,46.808-18.414,50.051-10.388-12.286-20.606-16.569-27.9-19.431-13.261-5.2-20.906-6.012-25.155-10.862a21.518,21.518,0,0,1-3.464-7.6c-.748-3.209.788-13.189,9.694-24.465a64.281,64.281,0,0,1,18-15.579,15.854,15.854,0,0,0,11.54-.923c6.1-3.089,7.687-9.179,8.078-10.683.441-1.693,1.715-7.271-.817-9.966-2.212-2.353-6.391-2.161-10.261-1.372a6.756,6.756,0,0,1-4.767-.524c-4.134-2.331-.8-10.088-3.311-16.684-3.878-10.2-18.272-8.086-33-19.741A53.373,53.373,0,0,1,323.8,149.5C299.13,147.97,279.4,164.273,273.714,187.075Z" fill="#080717"/><path d="M375.042,220.66a1,1,0,0,1-.642-1.767c2.886-2.412,4.277-4.619,4.02-6.383-.279-1.925-2.483-2.928-2.506-2.938a1,1,0,0,1,.2-1.9l9-1.8a1,1,0,1,1,.393,1.961l-6.723,1.348a5.34,5.34,0,0,1,1.613,3.044c.367,2.523-1.22,5.284-4.717,8.2A1,1,0,0,1,375.042,220.66Z" fill="#080717"/><path d="M272.8,164.585l122.213,17.488a3.6,3.6,0,0,0,4.108-3.414c.445-10.42-.539-36.406-19.929-54.858-26.017-24.758-72.5-23.9-95.09.923-11.048,12.139-13.734,27.1-14.385,36.055A3.592,3.592,0,0,0,272.8,164.585Z" fill="#6556ff"/><path d="M270.389,154.875s-25.058,9.854-18.826,20.01,91.427-1.616,91.427-1.616Z" fill="#6556ff"/><path d="M333.663,172.959c-19.933-1.352-39.1-7.133-51.663-11.744-6.448-2.366-10.426-4.174-10.465-4.192a1,1,0,0,1-.539-1.211,88.45,88.45,0,0,1,17.723-29.623c11.647-12.584,32.238-25.731,64.2-16.892a1,1,0,0,1-.533,1.928c-24.877-6.879-45.806-1.388-62.2,16.323a86.887,86.887,0,0,0-16.993,28.021c17.1,7.431,40.284,14.017,60.6,15.394a1,1,0,1,1-.135,2Z" fill="#fff"/><path d="M286.722,162.729a1,1,0,0,1-.958-1.287c.42-1.4,10.673-34.427,44.037-42.461,26.3-6.329,47.08,8.072,50.979,11.024a1,1,0,1,1-1.207,1.594c-3.773-2.856-23.886-16.8-49.3-10.672-32.258,7.765-42.491,40.758-42.59,41.09A1,1,0,0,1,286.722,162.729Z" fill="#fff"/><path d="M319.805,240.739c-5.067,0-9.693-3.7-11.27-9.024a1,1,0,0,1,.776-1.268l21-3.924a1,1,0,0,1,1.183.938C331.84,234.945,326.022,240.739,319.805,240.739Zm-8.982-8.54a10.137,10.137,0,0,0,9.049,6.54c4.727-.036,9.313-4.284,9.622-10.027Z" fill="#080717"/><path d="M379.505,358.986a1,1,0,0,1-1-1.03l.868-28.788a1,1,0,1,1,2,.061l-.868,28.788A1,1,0,0,1,379.505,358.986Z" fill="#fff"/><path d="M380.372,419.571c-.288,0,3.283,1.342-57.718-22.247a1,1,0,1,1,.721-1.865l57.357,22.18A1,1,0,0,1,380.372,419.571Z" fill="#fff"/><path d="M375.812,374.373c-.2,0,3.052.838-46.262-12.151a1,1,0,0,1,.51-1.934l46.005,12.118A1,1,0,0,1,375.812,374.373Z" fill="#fff"/><path d="M424.853,392.222a1,1,0,0,1-.76-.35c-11.146-13.03-29.353-13.655-29.535-13.66a1,1,0,0,1-.974-1.025.976.976,0,0,1,1.024-.975c.782.019,19.268.639,31,14.359A1,1,0,0,1,424.853,392.222Z" fill="#fff"/><path d="M223.791,390.376a1,1,0,0,1-.985-1.174,78.858,78.858,0,0,0,.008-27.729,1,1,0,0,1,1.952-.436,79.478,79.478,0,0,1,.008,28.513A1,1,0,0,1,223.791,390.376Z" fill="#fff"/><path d="M258.488,393.761a1,1,0,0,1-1-1.105l3.154-30.154a.982.982,0,0,1,1.1-.89,1,1,0,0,1,.89,1.1l-3.155,30.154A1,1,0,0,1,258.488,393.761Z" fill="#fff"/><path d="M313.648,315.442a1,1,0,0,1-.905-.574l-12.155-25.849a1,1,0,0,1,.166-1.1l3.626-3.977-7.426-1.762a1,1,0,0,1-.652-1.443l5.231-9.847a1,1,0,0,1,1.766.939l-4.624,8.7,7.819,1.856a1,1,0,0,1,.508,1.646l-4.319,4.737,11.386,24.215,21.778-13.9-2.993-9.267a1,1,0,0,1,1.3-1.244l11.877,4.435,6.771-15.881a1,1,0,1,1,1.84.785l-7.146,16.76a1,1,0,0,1-1.269.544l-10.835-4.046,2.6,8.034a1,1,0,0,1-.413,1.15C312.51,316.355,314.079,315.442,313.648,315.442Z" fill="#fff"/><path d="M309.5,355.664a1,1,0,0,1-1-1.1l4.154-40.222a1,1,0,0,1,1.991.205l-4.155,40.222A1,1,0,0,1,309.5,355.664Z" fill="#fff"/><path d="M306.525,454.384a1,1,0,0,1-1-1V405.07a1,1,0,0,1,2,0v48.314A1,1,0,0,1,306.525,454.384Z" fill="#fff"/><path d="M265.642,250.664a1,1,0,0,1-.707-.293c-3.644-3.642-5.411-7.707-5.253-12.078.305-8.5,7.757-15.046,8.075-15.32a1,1,0,0,1,1.309,1.511c-.071.062-7.118,6.267-7.386,13.891-.134,3.79,1.437,7.351,4.669,10.582A1,1,0,0,1,265.642,250.664Z" fill="#fff"/><path d="M399.684,255.126a.987.987,0,0,1-.418-.092c-18.6-8.582-1.109-35.327,1.884-47.613a19.548,19.548,0,0,0-5.223-19.1,1,1,0,0,1,1.311-1.509,21.544,21.544,0,0,1,5.856,21.084c-3.062,12.555-19.62,37.648-2.99,45.322A1,1,0,0,1,399.684,255.126Z" fill="#fff"/><path d="M412.43,291.978a1,1,0,0,1-.784-1.62c3.805-4.824,5.336-9.533,4.551-14-1.223-6.956-7.69-11.035-7.755-11.076a1,1,0,0,1,1.053-1.7c.3.184,7.3,4.6,8.672,12.43.888,5.047-.778,10.29-4.951,15.581A1,1,0,0,1,412.43,291.978Z" fill="#fff"/><path d="M239.036,330.559a.991.991,0,0,1-.7-.287L224.32,316.524a1,1,0,1,1,1.4-1.427l14.015,13.748A1,1,0,0,1,239.036,330.559Z" fill="#080717"/><path d="M260.672,333.118a1,1,0,0,1-.723-.308l-39.344-41.141a1,1,0,0,1,1.446-1.383L261.4,331.427A1,1,0,0,1,260.672,333.118Z" fill="#080717"/><path d="M258.487,309.441a1,1,0,0,1-.739-.326l-12.232-13.429a1,1,0,1,1,1.478-1.348l12.233,13.43A1,1,0,0,1,258.487,309.441Z" fill="#080717"/><path d="M273.588,372.711a1,1,0,0,1-.636-1.772,20.047,20.047,0,0,1,10.3-3.918.972.972,0,0,1,1.08.912,1,1,0,0,1-.912,1.08,18.384,18.384,0,0,0-9.2,3.472A.988.988,0,0,1,273.588,372.711Z" fill="#080717"/><path d="M278.462,380.547a1,1,0,0,1-.316-1.948,65.815,65.815,0,0,1,9.508-2.376,1,1,0,1,1,.289,1.978A83.438,83.438,0,0,0,278.462,380.547Z" fill="#080717"/><path d="M285.566,388.256a1,1,0,0,1-.328-1.944,29.092,29.092,0,0,1,8.408-1.475,1,1,0,0,1,0,2A31.992,31.992,0,0,0,285.566,388.256Z" fill="#080717"/><g><path d="M139.15,147.032H75.02a4.768,4.768,0,0,0-4.768,4.768v52.159a4.768,4.768,0,0,0,4.768,4.768h55.852l4.389,13.209a.88.88,0,0,0,1.71-.182l1.416-13.027h.763a4.768,4.768,0,0,0,4.768-4.768V151.8A4.768,4.768,0,0,0,139.15,147.032Z" fill="#fff"/><path d="M134.312,222.252l-4.162-12.525H75.02a5.774,5.774,0,0,1-5.768-5.768V151.8a5.774,5.774,0,0,1,5.768-5.768h64.129a5.775,5.775,0,0,1,5.769,5.768v52.159a5.775,5.775,0,0,1-5.634,5.766l-1.319,12.137A1.881,1.881,0,0,1,134.312,222.252ZM75.02,148.032a3.773,3.773,0,0,0-3.768,3.768v52.159a3.773,3.773,0,0,0,3.768,3.768h55.852a1,1,0,0,1,.949.684l4.215,12.688,1.357-12.481a1,1,0,0,1,.994-.891h.762a3.773,3.773,0,0,0,3.769-3.768V151.8a3.773,3.773,0,0,0-3.769-3.768Z" fill="#090817"/></g><path d="M130.979,189.873H83.238a1,1,0,0,1,0-2h47.741a1,1,0,0,1,0,2Z" fill="#080717"/><rect fill="#080717" height="23.647" width="10.601" x="82.848" y="165.449"/><rect fill="#080717" height="30.117" width="10.601" x="101.808" y="158.98"/><rect fill="#080717" height="35.304" width="10.601" x="120.769" y="153.793"/><rect fill="#080717" height="9.035" rx="0.761" width="14.082" x="83.239" y="192.861"/><path d="M131.37,196.538H101.809a1,1,0,1,1,0-2H131.37a1,1,0,0,1,0,2Z" fill="#080717"/><path d="M131.37,200.983H101.809a1,1,0,0,1,0-2H131.37a1,1,0,0,1,0,2Z" fill="#080717"/><g><path d="M237.193,150c-1.325-5-1.266-5.123-1.8-5.718a2.528,2.528,0,0,0-2.374-.8l-4.584.914a33.59,33.59,0,0,0-9.632-12.468l2.136-4.272a2.5,2.5,0,0,0-.37-2.8c-.4-.444-.4-.379-4.815-2.943a2.523,2.523,0,0,0-3.365.787l-2.664,3.991a33.483,33.483,0,0,0-15.526-2.036l-1.536-4.61a2.516,2.516,0,0,0-3.028-1.641l-4.7,1.246a2.522,2.522,0,0,0-1.823,2.934l.949,4.759a33.339,33.339,0,0,0-12.453,9.476l-4.324-2.163a2.526,2.526,0,0,0-3.3.983l-2.441,4.2a2.505,2.505,0,0,0,.3,2.939c.305.343.3.3,4.459,3.074a33.341,33.341,0,0,0-2.191,15.6l-4.435,1.478a2.521,2.521,0,0,0-1.634,3.045l1.241,4.683a2.523,2.523,0,0,0,2.932,1.823l4.514-.9a33.46,33.46,0,0,0,9.578,12.695l-2.017,4.032a2.513,2.513,0,0,0,1.023,3.326l4.162,2.417a2.521,2.521,0,0,0,3.366-.786l2.459-3.686a33.466,33.466,0,0,0,15.873,2.159c1.514,4.544,1.446,4.55,1.9,5.061a2.508,2.508,0,0,0,2.529.76l4.693-1.244a2.523,2.523,0,0,0,1.824-2.928l-.862-4.323a33.361,33.361,0,0,0,12.7-9.751l3.99,2a2.524,2.524,0,0,0,3.3-.986l2.439-4.2a2.521,2.521,0,0,0-.756-3.346l-3.781-2.523a33.349,33.349,0,0,0,2.046-15.77l4.361-1.453A2.526,2.526,0,0,0,237.193,150Z" fill="#080717"/><g><path d="M195.2,176.78c-4.773-.129-8.832-1.637-9.871-3.665-.908-1.774.033-4.692,1.38-5.408.595-.316,1.189-.084,2.652.4,2.873.943,11.334,3.586,13.058,1.116a3.812,3.812,0,0,0,.559-1.729c.171-6.3-7.189-6.384-13.04-8.911-5.387-2.326-6.348-15.8,1.88-18.865,5.342-1.99,10.978.469,15.261,4.253a1.637,1.637,0,0,1,.448,1.765c-.9,2.635-2.469,3.333-5.419,1.6-2.7-1.582-7.244-1.707-8.591.88a4.426,4.426,0,0,0,.078,3.451c2.218,5.26,10.239,3.038,14.285,7.472,2.877,3.154,2.928,8.494,1.325,11.632C206.83,175.423,200.176,176.915,195.2,176.78Z" fill="#fff"/><rect fill="#fff" height="45.574" rx="0.956" transform="translate(4.355 -5.306) rotate(1.553)" width="4.539" x="195.638" y="135.196"/></g></g></g></g></svg>