<svg xmlns="http://www.w3.org/2000/svg" width="799" height="235" viewBox="0 0 799 235" fill="none"><mask id="mask0_55_1229" style="mask-type:alpha" maskUnits="userSpaceOnUse" x="0" y="0" width="799" height="235"><rect width="799" height="235" fill="#26C485"></rect></mask><g mask="url(#mask0_55_1229)"><path fill-rule="evenodd" clip-rule="evenodd" d="M799 -331.5C799 -590.798 588.798 -801 329.5 -801C70.2023 -801 -140 -590.798 -140 -331.5C-140 -72.2023 70.2023 138 329.5 138C588.798 138 799 -72.2023 799 -331.5ZM893 -331.5C893 -642.712 640.712 -895 329.5 -895C18.2876 -895 -234 -642.712 -234 -331.5C-234 -20.2875 18.2875 232 329.5 232C640.712 232 893 -20.2875 893 -331.5Z" fill="url(#paint0_linear_55_1229)"></path></g><defs><linearGradient id="paint0_linear_55_1229" x1="-234" y1="-331.5" x2="893" y2="-331.5" gradientUnits="userSpaceOnUse"><stop stop-color="#FF9913"></stop><stop offset="1" stop-color="#FF9913" stop-opacity="0"></stop></linearGradient></defs></svg>