<?xml version="1.0"?><svg height="512" viewBox="0 0 512 512" width="512" xmlns="http://www.w3.org/2000/svg"><title/><g><g opacity="0.2"><circle cx="256" cy="256" fill="#FF9913" r="200" transform="translate(-106.039 256) rotate(-45)"/></g><g><g><path d="M411.654,174.743H345.9a8.461,8.461,0,0,0-8.461,8.461v56.714a8.461,8.461,0,0,0,8.461,8.461h42.121l4.6,13.379a1.028,1.028,0,0,0,1.982-.145l2.487-13.234h14.568a8.461,8.461,0,0,0,8.46-8.461V183.2A8.461,8.461,0,0,0,411.654,174.743Z" fill="#fff"/><path d="M391.672,262.083,387.3,249.378H345.9a9.471,9.471,0,0,1-9.46-9.461V183.2a9.471,9.471,0,0,1,9.46-9.461h65.757a9.471,9.471,0,0,1,9.461,9.461v56.713a9.471,9.471,0,0,1-9.461,9.461H397.915l-2.334,12.42A2.027,2.027,0,0,1,391.672,262.083ZM345.9,175.743a7.469,7.469,0,0,0-7.46,7.461v56.713a7.469,7.469,0,0,0,7.46,7.461h42.122a1,1,0,0,1,.945.675l4.6,13.38,2.542-13.239a1,1,0,0,1,.982-.816h14.567a7.469,7.469,0,0,0,7.461-7.461V183.2a7.469,7.469,0,0,0-7.461-7.461Z" fill="#090817"/></g><circle cx="142.51" cy="232.396" fill="#080717" r="28.502"/><g><rect fill="#080717" height="64.15" rx="2.39" width="76.958" x="308.282" y="165.591"/><g><rect fill="#fff" height="63.018" rx="2.715" transform="translate(743.885 395.332) rotate(-180)" width="65.452" x="339.217" y="166.157"/><path d="M401.954,230.175H341.932a3.719,3.719,0,0,1-3.715-3.715V168.872a3.719,3.719,0,0,1,3.715-3.715h60.022a3.719,3.719,0,0,1,3.715,3.715V226.46A3.719,3.719,0,0,1,401.954,230.175Zm-60.022-63.018a1.716,1.716,0,0,0-1.715,1.715V226.46a1.716,1.716,0,0,0,1.715,1.715h60.022a1.717,1.717,0,0,0,1.715-1.715V168.872a1.717,1.717,0,0,0-1.715-1.715Z" fill="#090817"/></g><g><path d="M366.174,183.172l7.066-3.3,7.18,3.3v-16.83H366.174Z" fill="#fff"/><path d="M380.421,184.172c-.317,0,.237.209-7.178-3.194l-6.645,3.1a1,1,0,0,1-1.423-.906v-16.83a1,1,0,0,1,1-1h14.246a1,1,0,0,1,1,1v16.83A1,1,0,0,1,380.421,184.172Zm-7.181-5.3c.312,0-.072-.133,6.181,2.737v-14.27H367.175V181.6C373.129,178.824,372.923,178.875,373.24,178.875Z" fill="#090817"/></g></g><g><rect fill="#fff" height="77.005" width="31.921" x="177.934" y="211.037"/><path d="M209.855,289.042h-31.92a1,1,0,0,1-1-1v-77a1,1,0,0,1,1-1h31.92a1,1,0,0,1,1,1v77A1,1,0,0,1,209.855,289.042Zm-30.92-2h29.92v-75h-29.92Z" fill="#090817"/></g><g><path d="M252.38,169.74A49.2,49.2,0,0,0,211,128.856c-38.876-12.308-78.282,19.062-74.4,60.109a57.078,57.078,0,0,0,14.082,32.52l0,.02.116.12A57.563,57.563,0,0,0,174.761,237.7a71.369,71.369,0,0,0,48.287,3.861C253.148,233.427,257.291,200.758,252.38,169.74Z" fill="#fff"/><path d="M174.357,238.618a58.547,58.547,0,0,1-24.3-16.329,1.236,1.236,0,0,1-.2-.229,57.911,57.911,0,0,1-14.251-33c-3.934-41.578,35.99-73.664,75.62-61.181a49.9,49.9,0,0,1,42.145,41.705c3.676,23.215,4.658,63.561-30.058,72.946A71.9,71.9,0,0,1,174.357,238.618Zm.736-1.859a70.035,70.035,0,0,0,47.694,3.84c33.208-8.977,32.176-48.151,28.606-70.7a47.908,47.908,0,0,0-40.542-40.051.94.94,0,0,1-.157-.036c-38.2-12.092-76.91,18.794-73.1,59.062a55.93,55.93,0,0,0,13.837,31.952A56.658,56.658,0,0,0,175.093,236.759Z" fill="#090817"/></g><path d="M216.577,318.342c-23.334-12.5-29.275-42.416-8.729-61.76,10.3-.333,20.151,1.388,29.074,6.553,15.1,8.741,21.217,23.693,25.265,33.587,9.447,23.056,24.4,45.961,51.35,70.974l-32.456,21.753C252.247,371.389,230.68,347.216,216.577,318.342Z" fill="#6556ff"/><path d="M123.172,446.527a463.744,463.744,0,0,0,8.165-90.538c-.383-43.341-6.8-61.968,6.035-79.267,14.351-19.339,41.58-22.226,56.534-22.226a95.934,95.934,0,0,1,11.31.592c8.108,1.055,15.766,2.053,23.3,7.649,17.877,13.281,19.543,39.959,21.012,63.5,2.6,41.625,6.222,80.765,10.841,122.046Z" fill="#6556ff"/><path d="M101.437,400.1c-17.383,0-30.1-4.562-35.806-12.849-17.888-25.971,31.457-88.669,54.324-110.168,19.995-18.8,44.39-26.039,72.5-22.494,4.276,8.816,5.022,17.312,1.6,26.2-9,23.36-42.83,37.821-46.271,39.24l-26.5,32.494,59.036-6.732,7.808,30.269C162.518,388.7,129.773,400.1,101.437,400.1Z" fill="#6556ff"/><rect fill="#6556ff" height="15.471" width="42.047" x="173.576" y="249.539"/><g><path d="M172.444,254.013a58.826,58.826,0,0,0-16.576,1.213c-3.061.671-22.727,5.215-23.53,14.07-.212,2.333.978,3.354,2.911,7.035,7.418,14.123,5.849,29.465,5.125,36.548a67.949,67.949,0,0,1-8.8,27.345,771.7,771.7,0,0,1-12.829,105.757c26.381,12.162,55.806,13.96,82.963,1.456,20.727,10.693,43.871,10.689,65.5,2.426a416.842,416.842,0,0,1-6.792-42.209c-3.543-32.559-4.456-76.635-4.689-90.118-.5-28.988-.011-40.821-9.374-50.181-8.874-8.872-21.576-10.5-30.241-10.593,3.917,9.015,1.341,19.347-5.9,24.9-7.82,6-18.161,4.2-24.015.243-4.883-3.3-7.017-8.351-9.946-15.283A61.79,61.79,0,0,1,172.444,254.013Z" fill="#fff"/><path d="M118.327,446.89a1,1,0,0,1-.563-1.1c12.162-63.3,12.157-104.71,12.944-106.069a67,67,0,0,0,8.671-26.947c.735-7.18,2.264-22.123-5.016-35.982-1.9-3.62-3.267-4.881-3.021-7.59.827-9.111,18.818-13.751,24.312-14.955a59.691,59.691,0,0,1,16.858-1.234,1,1,0,0,1,.915.813,60.768,60.768,0,0,0,3.739,12.408c2.873,6.8,4.948,11.711,9.584,14.845,5.965,4.03,15.729,5.255,22.848-.208,6.908-5.3,9.26-15.274,5.593-23.713a1,1,0,0,1,.928-1.4c13.452.148,23.861,3.81,30.939,10.886,9.654,9.651,9.2,22.073,9.666,50.871.361,20.867,1.45,60.309,4.683,90.026a416.661,416.661,0,0,0,6.776,42.107,1,1,0,0,1-.621,1.145c-21.972,8.4-45.2,8.254-65.877-2.249C174.856,460.738,145.406,459.373,118.327,446.89Zm1.549-1.492c25.919,11.733,54.733,13.419,81.415,1.13a.992.992,0,0,1,.876.02c19.946,10.291,42.418,10.659,63.881,2.681a418.616,418.616,0,0,1-6.629-41.467c-3.168-29.114-4.318-66.781-4.787-95.907-.39-25.007-.551-35.358-8.988-43.793-6.435-6.432-15.868-9.883-28.054-10.268,3.184,8.945.463,19.112-6.776,24.666-7.866,6.038-18.623,4.714-25.183.278-5.128-3.465-7.3-8.6-10.306-15.718a62.772,62.772,0,0,1-3.715-12.056,57.735,57.735,0,0,0-15.528,1.239c-10.144,2.225-22.188,7.012-22.748,13.184-.178,1.957.881,2.821,2.8,6.478,7.559,14.393,5.989,29.74,5.235,37.115a69.014,69.014,0,0,1-8.808,27.535A773.228,773.228,0,0,1,119.876,445.4Z" fill="#090817"/></g><path d="M177.438,187.431a1,1,0,0,1-.824-1.564,21.633,21.633,0,0,1,20.3-9.74,1,1,0,0,1-.3,1.977A19.653,19.653,0,0,0,178.265,187,1,1,0,0,1,177.438,187.431Z" fill="#080717"/><g><path d="M185.544,193.132a1,1,0,1,1,1.049-1.7c1.774,1.091,2.492-.868,4.323-2.359a5.837,5.837,0,0,1,4.875-.93,1,1,0,0,1-.527,1.929,3.841,3.841,0,0,0-3.084.552C190.693,191.833,188.82,195.153,185.544,193.132Z" fill="#080717"/><circle cx="194.543" cy="193.37" fill="#080717" r="5.399"/></g><path d="M224.172,171.262a1,1,0,0,1-.584-1.812,18.017,18.017,0,0,1,20-.67,1,1,0,1,1-1.055,1.7,16.028,16.028,0,0,0-17.781.6A1,1,0,0,1,224.172,171.262Z" fill="#080717"/><g><path d="M232.43,180.269a1,1,0,0,1-.7-1.708,5.836,5.836,0,0,1,4.707-1.572c2.3.4,3.913,1.766,4.924-.056a1,1,0,1,1,1.748.972c-1.874,3.376-5.116,1.388-7.016,1.054a3.833,3.833,0,0,0-2.961,1.027A1,1,0,0,1,232.43,180.269Z" fill="#080717"/><circle cx="235.371" cy="182.513" fill="#080717" r="5.399"/></g><path d="M214.194,201.131a1,1,0,0,1,.841-1.136c2.858-.43,6.148-1.542,6.489-2.514.225-1.2-3.4-7.271-6.92-12.181a1,1,0,1,1,1.625-1.166c2.444,3.4,8.037,11.583,7.182,14.011-.9,2.566-6.413,3.578-8.08,3.827A1,1,0,0,1,214.194,201.131Z" fill="#080717"/><ellipse cx="189.294" cy="208.882" fill="#6556ff" rx="7.459" ry="4.869" transform="translate(-36.366 39.939) rotate(-10.996)"/><ellipse cx="242.681" cy="197.128" fill="#6556ff" rx="7.459" ry="4.869" transform="translate(-33.144 49.906) rotate(-10.996)"/><path d="M200.709,447.445l-1.455-159.618a1,1,0,1,1,2-.017l1.455,159.618a1,1,0,1,1-2,.017Z" fill="#080717"/><g><rect fill="#fff" height="114.715" rx="4.334" width="136.994" x="278.006" y="289.823"/><path d="M410.665,405.539H282.34a5.34,5.34,0,0,1-5.334-5.335V294.158a5.34,5.34,0,0,1,5.334-5.335H410.665A5.342,5.342,0,0,1,416,294.158V400.2A5.341,5.341,0,0,1,410.665,405.539ZM282.34,290.823a3.338,3.338,0,0,0-3.334,3.335V400.2a3.338,3.338,0,0,0,3.334,3.335H410.665A3.339,3.339,0,0,0,414,400.2V294.158a3.339,3.339,0,0,0-3.335-3.335Z" fill="#090817"/></g><g><g><path d="M387.912,285.546c-.312-.771-.993-2.453-2.395-2.748-1.3-.275-2.848.727-4.012,2.486,0,0-4.772-6.887-8.242-2.532,0,0-3.933-6.487-8.325-1.762,0,0-4.565-4.427-8.051-.9s-.678,18.194,2.211,20.316,4.94-4.511,4.94-4.511,2.961,9.29,6.749,1.44c0,0,2.581,9.458,8.1,1.478,1.089,3.465,2.2,4.338,3.061,4.423C385.344,303.568,390.6,292.171,387.912,285.546Z" fill="#fff"/><path d="M378.558,300.851c-3.032,3.394-6.065,2.634-7.954-1.22-2.183,3.015-4.769,2.179-6.544-1.135-.664,1.315-1.663,2.753-2.987,3.19a2.73,2.73,0,0,1-2.567-.477c-3.35-2.461-6.292-17.822-2.33-21.825,2.924-2.955,6.642-1.375,8.726.254,2.885-2.474,6.06-1.4,8.483,1.58,2.711-2.146,5.871-.18,8.115,2.438,1.3-1.436,2.841-2.128,4.225-1.837,1.921.407,2.756,2.47,3.114,3.351h0C392.355,293.851,383.128,311.687,378.558,300.851Zm1.278-2.34c1.085,3.447,2.027,3.71,2.206,3.727.374.042,1.178-.384,2.155-1.689,2.673-3.575,4.476-10.461,2.788-14.628h0c-.237-.586-.794-1.959-1.674-2.145-.852-.186-2.04.65-2.972,2.06a1,1,0,0,1-.822.447h-.012a1,1,0,0,1-.821-.43c-.672-.965-2.829-3.484-4.712-3.544a2.347,2.347,0,0,0-1.927,1.065,1,1,0,0,1-1.637-.1c-.471-.771-2.086-2.814-3.86-2.992a3.467,3.467,0,0,0-2.877,1.392,1,1,0,0,1-1.429.037c-.156-.15-3.9-3.69-6.644-.918-3.233,3.268.127,19.868,2.848,19,1.026-.338,2.159-2.654,2.637-4.191a1,1,0,0,1,1.907-.009c.51,1.591,1.717,3.829,2.657,3.894.222.019,1.052-.124,2.24-2.584a1,1,0,0,1,1.865.17c.259.941,1.325,3.679,2.776,3.925.936.164,2.2-.816,3.532-2.75A1,1,0,0,1,379.836,298.511Z" fill="#090817"/></g><path d="M379.192,300.718a1,1,0,0,1-.988-1.158l2.314-14.434a1,1,0,0,1,1.974.316l-2.313,14.434A1,1,0,0,1,379.192,300.718Z" fill="#080717"/><path d="M370.788,298.332a1,1,0,0,1-.993-1.123l1.906-15.378a1,1,0,0,1,1.985.246l-1.907,15.378A1,1,0,0,1,370.788,298.332Z" fill="#080717"/><path d="M364.039,296.892a1,1,0,0,1-1-1.061l.9-14.9a1.022,1.022,0,0,1,1.059-.938,1,1,0,0,1,.938,1.059l-.9,14.9A1,1,0,0,1,364.039,296.892Z" fill="#080717"/></g><circle cx="288.795" cy="299.22" fill="#080717" r="4.286"/><circle cx="303.997" cy="299.22" fill="#080717" r="4.286"/><circle cx="319.198" cy="299.22" fill="#080717" r="4.286"/><path d="M304.886,360.384l51.575-33.205a2.182,2.182,0,0,1,2.924.519l10.081,13.333a2.184,2.184,0,0,0,2.946.5l53.343-35.223a2.184,2.184,0,0,0,.379-3.327l-2.075-2.184a2.184,2.184,0,0,1,1.288-3.668l26.594-3.624a2.184,2.184,0,0,1,2.369,2.847l-8.265,25.091a2.183,2.183,0,0,1-3.625.854l-1.512-1.525a2.182,2.182,0,0,0-2.793-.258l-68.559,47.433a2.184,2.184,0,0,1-3.012-.515L355.319,351.92a2.184,2.184,0,0,0-2.981-.537l-37.432,24.955a2.184,2.184,0,0,1-3.067-.667l-7.626-12.3A2.183,2.183,0,0,1,304.886,360.384Z" fill="#080717"/><g><path d="M174,343.266s22.263-9.551,28-10.881,20.119-4.715,23.021-3.022-16.2,8.462-16.2,8.462,6.045,1.935.967,6.529c0,0,7.105,3.626,2.055,7.253,0,0,5.682,2.3,2.9,6.891s-16.683,13.782-21.277,14.387-8.342-1.209-14.749.967C178.715,373.852,163.966,350.519,174,343.266Z" fill="#fff"/><path d="M177.869,374.386c-.622-.986-15.128-24.215-4.455-31.931.345-.249,22.819-9.76,28.357-11.045,4.469-1.034,20.3-4.925,23.75-2.91a1.471,1.471,0,0,1,.79,1.43c-.2,2.146-7.877,5.448-15.066,8.084,1.878,1.5,2.242,3.725.144,6.136,2.909,1.959,4.451,4.742,2.18,7.262,2.86,1.868,3.827,4.63,2.028,7.6-2.869,4.739-16.852,14.182-22,14.86-4.775.629-8.36-1.183-14.559.923A1,1,0,0,1,177.869,374.386ZM174.5,344.14c-8.109,6.048,2.426,24.762,4.661,28.518,6.147-1.853,9.949-.21,14.173-.764,4.084-.539,17.883-9.5,20.553-13.914a3.192,3.192,0,0,0,.494-2.718c-.577-1.75-2.894-2.719-2.917-2.729a1,1,0,0,1-.206-1.738c.973-.7,1.442-1.4,1.391-2.082-.111-1.5-2.494-3.045-3.32-3.469a1,1,0,0,1-.215-1.632c.878-.8,1.882-1.947,1.674-2.924-.22-1.029-1.719-1.729-2.277-1.912a1,1,0,0,1-.027-1.893c6.443-2.283,13.688-5.367,15.49-6.859-3.6-.878-16.862,2.2-21.4,3.252C197.117,334.551,179.624,341.95,174.5,344.14Z" fill="#090817"/></g><path d="M103.7,353.836l71.975-12.37a54.229,54.229,0,0,0,10.462,31.862c-20.619,11.04-49.988,24.011-79.458,26.764-5.934.554-13.621.889-18.786-3.944-12.373-11.576.916-42.312.916-42.312Z" fill="#6556ff"/><path d="M202.424,338.175a26.132,26.132,0,0,1,6.727-1.469,1,1,0,0,1,0,2,26.753,26.753,0,0,0-6.08,1.361A1,1,0,0,1,202.424,338.175Z" fill="#080717"/><path d="M204.994,347.684a1,1,0,0,1-.438-1.9l4.791-2.33a1,1,0,0,1,.875,1.8C205.038,347.774,205.315,347.684,204.994,347.684Z" fill="#080717"/><path d="M207.121,355.938a1,1,0,0,1-.577-1.818l4.72-3.33a1,1,0,0,1,1.152,1.635C207.284,356.046,207.56,355.938,207.121,355.938Z" fill="#080717"/><path d="M159.382,208.882s-9.925-1.79-12.289-11.754,1.891-15.178,9.217-15.407,7.09,9.585,11.186,7.238.315-22.828,14.416-31.336,18.839-12.761,19.069-24.1c0,0,27.364-1.5,47.592,23.59.236-2.261,1.387-15.352-7.974-25.8-8.545-9.535-22.477-13.1-35.606-9.138-26.5-10.366-55.622-4.1-71.843,14.809-23.505,27.407-11.43,71.494,13.234,90.434,11.194,8.595,23.581,10.937,31.55,11.6C177.934,239.021,159.855,224.692,159.382,208.882Z" fill="#080717"/><path d="M120.544,176.893q63.965-14.27,126.3-34.856c-2.4-6.451-12.265-30.691-37.245-41.462C165.743,81.666,98.838,114.77,120.544,176.893Z" fill="#6556ff"/><path d="M163.789,166.571c33.48,8.987,58.3,5.611,73.142,1.848,5.732-1.454,30.548-7.747,30.406-16.19-.121-7.183-18.244-12.318-23.388-13.684A120.678,120.678,0,0,0,163.789,166.571Z" fill="#6556ff"/><path d="M79.109,363.451a1,1,0,0,1-.5-1.867,113.357,113.357,0,0,1,44.5-12.372,1.016,1.016,0,0,1,1.062.934,1,1,0,0,1-.935,1.062,111.271,111.271,0,0,0-43.63,12.11A.99.99,0,0,1,79.109,363.451Z" fill="#fff"/><path d="M157.008,201.983a1,1,0,0,1-.72-.305c-3.894-4.039-3.44-8.1.167-11.2l-4.976-.528a1,1,0,0,1,.21-1.989l7.685.816a1,1,0,0,1,.334,1.892c-.035.018-3.6,1.8-4.1,4.647-.272,1.557.441,3.229,2.119,4.969A1,1,0,0,1,157.008,201.983Z" fill="#080717"/><path d="M216.528,222.611a15.017,15.017,0,0,1-13.252-8.292,1,1,0,0,1,.75-1.439l25.8-3.753a1,1,0,0,1,1.127,1.169A14.844,14.844,0,0,1,216.528,222.611Zm-10.762-7.963a12.617,12.617,0,0,0,22.893-3.33Z" fill="#080717"/><path d="M125.858,246.643c-6.413-6.3-6.359-17.89-6.353-18.381a1,1,0,0,1,1-.988h.011a1,1,0,0,1,.989,1.01c0,.112-.046,11.242,5.76,16.936,2.6,2.55,5.5,3.319,9.074,3.319a1,1,0,0,1,.028,2A13.84,13.84,0,0,1,125.858,246.643Z" fill="#fff"/><path d="M148.345,248.485h-.017c-14.632-.236-17.879-13.978-17.91-14.116a1,1,0,0,1,1.951-.439c.114.5,2.958,12.345,15.992,12.555a1,1,0,0,1-.016,2Z" fill="#fff"/><path d="M144.275,209.882a.992.992,0,0,1-.593-.2c-10.847-8.03-13.187-27.043-13.282-27.849a1,1,0,0,1,.877-1.109,1.011,1.011,0,0,1,1.11.876c.022.189,2.338,18.962,12.484,26.474A1,1,0,0,1,144.275,209.882Z" fill="#fff"/><path d="M171.013,162.034a1,1,0,0,1-.52-1.855c.328-.2,33.288-19.926,72.547-20.825h.022a1,1,0,0,1,.023,2c-38.708.887-71.231,20.339-71.555,20.536A1,1,0,0,1,171.013,162.034Z" fill="#fff"/><rect fill="#080717" height="12.237" rx="3.953" width="39.213" x="151.584" y="299.22"/></g></g></svg>