<svg xmlns="http://www.w3.org/2000/svg" id="Layer_2" data-name="Layer 2" viewBox="0 0 985.37 237.44"><defs><style>      .cls-1 {        fill: #180e30;      }      .cls-2 {        fill: #5b0fff;      }    </style></defs><g id="LOGO"><g><g><polygon class="cls-2" points="157.74 236.14 93.74 236.14 0 73.79 64 73.79 157.74 236.14"></polygon><polygon class="cls-1" points="93.74 236.14 157.74 236.14 251.48 73.79 187.48 73.79 93.74 236.14"></polygon></g><polygon class="cls-1" points="145.22 0 125.74 0 106.26 0 87.72 32 125.74 98.45 163.76 32 145.22 0"></polygon><g><path class="cls-1" d="m372.89,1.95h13.63l12.11,35.08,12.18-35.08h13.01l-18.96,48.51h-13.15L372.89,1.95Z"></path><path class="cls-1" d="m433.92,1.95h12.66v48.51h-12.66V1.95Z"></path><path class="cls-1" d="m490.66,50.46l-7.06-13.42h-9.41v13.42h-12.66V1.95h21.8c6.41,0,11.38,1.49,14.91,4.46s5.29,7.16,5.29,12.56c0,3.64-.74,6.79-2.21,9.45-1.48,2.65-3.62,4.72-6.44,6.19l10.1,15.85h-14.32Zm-16.47-23.53h9.2c2.58,0,4.58-.65,5.99-1.94,1.41-1.29,2.11-3.16,2.11-5.6s-.7-4.16-2.11-5.43c-1.41-1.27-3.4-1.9-5.99-1.9h-9.2v14.88Z"></path><path class="cls-1" d="m511.56,1.95h41.59v10.45h-14.53v38.06h-12.66V12.4h-14.39V1.95Z"></path><path class="cls-1" d="m578.34,37.79c1.8,1.85,4.08,2.77,6.85,2.77s4.92-.91,6.61-2.73c1.68-1.82,2.53-4.28,2.53-7.37V1.95h12.66v28.51c0,4.2-.89,7.88-2.66,11.04-1.78,3.16-4.31,5.59-7.61,7.3-3.3,1.71-7.16,2.56-11.59,2.56s-8.32-.85-11.66-2.56c-3.35-1.71-5.93-4.14-7.75-7.3-1.82-3.16-2.73-6.84-2.73-11.04V1.95h12.66v28.51c0,3.04.9,5.49,2.7,7.34Z"></path><path class="cls-1" d="m656.29,4.44c3.99,2.17,7.13,5.14,9.41,8.93,2.28,3.78,3.42,8.03,3.42,12.73s-1.14,9.04-3.42,12.87c-2.28,3.83-5.42,6.85-9.41,9.07-3.99,2.21-8.46,3.32-13.39,3.32s-9.4-1.1-13.39-3.29c-3.99-2.19-7.13-5.21-9.41-9.07-2.28-3.85-3.42-8.15-3.42-12.91s1.14-8.95,3.42-12.73c2.28-3.78,5.42-6.76,9.41-8.93,3.99-2.17,8.45-3.25,13.39-3.25s9.4,1.08,13.39,3.25Zm-19.93,9.34c-2.05,1.25-3.68,2.96-4.88,5.16-1.2,2.19-1.8,4.6-1.8,7.23s.61,5.11,1.83,7.3c1.22,2.19,2.85,3.92,4.88,5.19,2.03,1.27,4.24,1.9,6.64,1.9s4.6-.63,6.61-1.9c2.01-1.27,3.59-3,4.74-5.19,1.15-2.19,1.73-4.62,1.73-7.3s-.58-5.04-1.73-7.23c-1.15-2.19-2.73-3.91-4.74-5.16s-4.21-1.87-6.61-1.87-4.63.62-6.68,1.87Z"></path><path class="cls-1" d="m695.49,37.79c1.8,1.85,4.08,2.77,6.85,2.77s4.92-.91,6.61-2.73c1.68-1.82,2.53-4.28,2.53-7.37V1.95h12.66v28.51c0,4.2-.89,7.88-2.66,11.04-1.78,3.16-4.31,5.59-7.61,7.3-3.3,1.71-7.16,2.56-11.59,2.56s-8.32-.85-11.66-2.56c-3.35-1.71-5.93-4.14-7.75-7.3-1.82-3.16-2.73-6.84-2.73-11.04V1.95h12.66v28.51c0,3.04.9,5.49,2.7,7.34Z"></path><path class="cls-1" d="m762.1,12.81c-2.93-.97-5.39-1.45-7.37-1.45-1.57,0-2.8.29-3.7.87-.9.58-1.35,1.42-1.35,2.53s.39,1.95,1.18,2.66c.78.72,1.75,1.29,2.91,1.73,1.15.44,2.86,1,5.12,1.7,3.37.97,6.15,1.94,8.34,2.91,2.19.97,4.07,2.46,5.64,4.46,1.57,2.01,2.35,4.63,2.35,7.85s-.85,5.99-2.56,8.27c-1.71,2.28-4.05,4-7.02,5.16-2.98,1.15-6.29,1.73-9.93,1.73-4.01,0-8.02-.7-12.01-2.11s-7.44-3.33-10.34-5.78l4.91-9.9c2.44,2.17,5.34,3.94,8.68,5.33,3.34,1.38,6.31,2.08,8.89,2.08,1.89,0,3.38-.35,4.46-1.04,1.08-.69,1.63-1.71,1.63-3.04,0-1.11-.4-2.03-1.21-2.77-.81-.74-1.82-1.33-3.04-1.76-1.22-.44-2.94-.96-5.16-1.56-3.32-.92-6.07-1.86-8.23-2.8-2.17-.94-4.03-2.38-5.57-4.29-1.55-1.91-2.32-4.46-2.32-7.65,0-3,.8-5.63,2.39-7.89,1.59-2.26,3.85-4,6.78-5.22,2.93-1.22,6.33-1.83,10.21-1.83,3.5,0,6.96.5,10.38,1.49,3.41.99,6.41,2.32,9,3.98l-4.78,10.1c-2.58-1.52-5.34-2.77-8.27-3.74Z"></path><path class="cls-1" d="m380.5,94.99h12.66v48.51h-12.66v-48.51Z"></path><path class="cls-1" d="m409.49,94.99h13.77l14.05,28.37,13.98-28.37h13.77v48.51h-11.21l-.07-30.72-12.39,25.88h-8.17l-12.46-25.88v30.72h-11.28v-48.51Z"></path><path class="cls-1" d="m515.71,99.45c3.41,2.98,5.12,7.16,5.12,12.56,0,5.72-1.71,10.16-5.12,13.32-3.42,3.16-8.21,4.74-14.39,4.74h-8.65v13.42h-12.66v-48.51h21.31c6.18,0,10.98,1.49,14.39,4.46Zm-9.03,18.58c1.41-1.29,2.11-3.16,2.11-5.6s-.7-4.16-2.11-5.43c-1.41-1.27-3.4-1.9-5.99-1.9h-8.03v14.88h8.03c2.58,0,4.58-.65,5.99-1.94Z"></path><path class="cls-1" d="m558.96,143.5l-7.06-13.42h-9.41v13.42h-12.66v-48.51h21.8c6.41,0,11.38,1.49,14.91,4.46s5.29,7.16,5.29,12.56c0,3.64-.74,6.79-2.21,9.45-1.48,2.65-3.62,4.72-6.44,6.19l10.1,15.85h-14.32Zm-16.47-23.53h9.2c2.58,0,4.58-.65,5.99-1.94,1.41-1.29,2.11-3.16,2.11-5.6s-.7-4.16-2.11-5.43c-1.41-1.27-3.4-1.9-5.99-1.9h-9.2v14.88Z"></path><path class="cls-1" d="m621.97,97.48c3.99,2.17,7.13,5.14,9.41,8.93,2.28,3.78,3.42,8.03,3.42,12.73s-1.14,9.04-3.42,12.87c-2.28,3.83-5.42,6.85-9.41,9.07-3.99,2.21-8.46,3.32-13.39,3.32s-9.4-1.09-13.39-3.29c-3.99-2.19-7.13-5.21-9.41-9.06-2.28-3.85-3.42-8.15-3.42-12.91s1.14-8.95,3.42-12.73c2.28-3.78,5.42-6.76,9.41-8.93,3.99-2.17,8.45-3.25,13.39-3.25s9.4,1.08,13.39,3.25Zm-19.93,9.34c-2.05,1.25-3.68,2.96-4.88,5.16-1.2,2.19-1.8,4.6-1.8,7.23s.61,5.11,1.83,7.3c1.22,2.19,2.85,3.92,4.88,5.19,2.03,1.27,4.24,1.9,6.64,1.9s4.6-.63,6.61-1.9c2.01-1.27,3.59-3,4.74-5.19,1.15-2.19,1.73-4.62,1.73-7.3s-.58-5.04-1.73-7.23c-1.15-2.19-2.73-3.91-4.74-5.16s-4.21-1.87-6.61-1.87-4.63.62-6.68,1.87Z"></path><path class="cls-1" d="m639.72,94.99h13.63l12.11,35.08,12.18-35.08h13.01l-18.96,48.51h-13.15l-18.82-48.51Z"></path><path class="cls-1" d="m699.37,94.99h38.27v10.1h-25.6v9.06h23.11v10.03l-23.11.07v9.13h26.3v10.1h-38.96v-48.51Z"></path><path class="cls-1" d="m751.61,94.99h13.77l14.05,28.37,13.98-28.37h13.77v48.51h-11.21l-.07-30.72-12.39,25.88h-8.17l-12.46-25.88v30.72h-11.28v-48.51Z"></path><path class="cls-1" d="m820.75,94.99h38.27v10.1h-25.6v9.06h23.11v10.03l-23.11.07v9.13h26.3v10.1h-38.96v-48.51Z"></path><path class="cls-1" d="m906.14,94.99h11.76v48.51h-11.07l-22-28.99v28.99h-11.83v-48.51h11.14l22.08,29.2-.07-29.2Z"></path><path class="cls-1" d="m927.31,94.99h41.59v10.45h-14.53v38.06h-12.66v-38.06h-14.39v-10.45Z"></path><path class="cls-1" d="m373.51,188.03h41.59v10.45h-14.53v38.06h-12.66v-38.06h-14.39v-10.45Z"></path><path class="cls-1" d="m424.37,188.03h38.27v10.1h-25.6v9.07h23.11v10.03l-23.11.07v9.13h26.3v10.1h-38.96v-48.51Z"></path><path class="cls-1" d="m504.71,199.76c-2.17-1.18-4.31-1.76-6.44-1.76-2.45,0-4.67.61-6.68,1.83-2.01,1.22-3.59,2.91-4.74,5.05-1.15,2.15-1.73,4.53-1.73,7.16s.58,5.02,1.73,7.16c1.15,2.15,2.73,3.83,4.74,5.05,2.01,1.22,4.23,1.83,6.68,1.83,1.98,0,4.06-.51,6.23-1.52,2.17-1.01,4.11-2.4,5.81-4.15l7.4,7.96c-2.63,2.77-5.76,4.97-9.38,6.61-3.62,1.64-7.21,2.46-10.76,2.46-4.8,0-9.13-1.11-13.01-3.32-3.88-2.21-6.92-5.24-9.13-9.07-2.21-3.83-3.32-8.12-3.32-12.87s1.13-8.95,3.39-12.73c2.26-3.78,5.36-6.76,9.31-8.93,3.94-2.17,8.36-3.25,13.25-3.25,3.6,0,7.15.75,10.66,2.25,3.51,1.5,6.48,3.54,8.93,6.12l-7.33,8.86c-1.57-1.98-3.44-3.56-5.61-4.74Z"></path><path class="cls-1" d="m530.04,188.03h12.66v19.79h19.58v-19.79h12.66v48.51h-12.66v-18.62h-19.58v18.62h-12.66v-48.51Z"></path><path class="cls-1" d="m623.04,188.03h11.76v48.51h-11.07l-22-29v29h-11.83v-48.51h11.14l22.08,29.2-.07-29.2Z"></path><path class="cls-1" d="m684.94,190.52c3.99,2.17,7.13,5.14,9.41,8.93,2.28,3.78,3.42,8.03,3.42,12.73s-1.14,9.04-3.42,12.87c-2.28,3.83-5.42,6.85-9.41,9.07-3.99,2.21-8.46,3.32-13.39,3.32s-9.4-1.09-13.39-3.29c-3.99-2.19-7.13-5.21-9.41-9.06-2.28-3.85-3.42-8.15-3.42-12.91s1.14-8.95,3.42-12.73c2.28-3.78,5.42-6.76,9.41-8.93,3.99-2.17,8.45-3.25,13.39-3.25s9.4,1.08,13.39,3.25Zm-19.93,9.34c-2.05,1.25-3.68,2.96-4.88,5.16-1.2,2.19-1.8,4.6-1.8,7.23s.61,5.11,1.83,7.3,2.85,3.92,4.88,5.19c2.03,1.27,4.24,1.9,6.64,1.9s4.6-.63,6.61-1.9c2.01-1.27,3.59-3,4.74-5.19,1.15-2.19,1.73-4.62,1.73-7.3s-.58-5.04-1.73-7.23c-1.15-2.19-2.73-3.91-4.74-5.16-2.01-1.25-4.21-1.87-6.61-1.87s-4.63.62-6.68,1.87Z"></path><path class="cls-1" d="m709.61,188.03h12.66v37.71h20.55v10.79h-33.22v-48.51Z"></path><path class="cls-1" d="m789.22,190.52c3.99,2.17,7.13,5.14,9.41,8.93,2.28,3.78,3.42,8.03,3.42,12.73s-1.14,9.04-3.42,12.87c-2.28,3.83-5.42,6.85-9.41,9.07-3.99,2.21-8.46,3.32-13.39,3.32s-9.4-1.09-13.39-3.29c-3.99-2.19-7.13-5.21-9.41-9.06-2.28-3.85-3.42-8.15-3.42-12.91s1.14-8.95,3.42-12.73c2.28-3.78,5.42-6.76,9.41-8.93,3.99-2.17,8.45-3.25,13.39-3.25s9.4,1.08,13.39,3.25Zm-19.93,9.34c-2.05,1.25-3.68,2.96-4.88,5.16-1.2,2.19-1.8,4.6-1.8,7.23s.61,5.11,1.83,7.3,2.85,3.92,4.88,5.19c2.03,1.27,4.24,1.9,6.64,1.9s4.6-.63,6.61-1.9c2.01-1.27,3.59-3,4.74-5.19,1.15-2.19,1.73-4.62,1.73-7.3s-.58-5.04-1.73-7.23c-1.15-2.19-2.73-3.91-4.74-5.16-2.01-1.25-4.21-1.87-6.61-1.87s-4.63.62-6.68,1.87Z"></path><path class="cls-1" d="m843.79,211.76h10.93v19.31c-2.58,1.89-5.76,3.43-9.51,4.6-3.76,1.18-7.33,1.76-10.69,1.76-4.89,0-9.31-1.09-13.25-3.29-3.94-2.19-7.05-5.2-9.31-9.03-2.26-3.83-3.39-8.12-3.39-12.87s1.16-8.96,3.49-12.77c2.33-3.81,5.54-6.79,9.62-8.96,4.08-2.17,8.64-3.25,13.67-3.25,3.6,0,7.2.66,10.79,1.97,3.6,1.31,6.64,3.08,9.13,5.29l-7.2,8.86c-1.75-1.66-3.77-2.98-6.05-3.94s-4.53-1.45-6.75-1.45c-2.58,0-4.91.62-6.99,1.87-2.08,1.25-3.71,2.95-4.91,5.12-1.2,2.17-1.8,4.59-1.8,7.27s.6,5.18,1.8,7.37c1.2,2.19,2.86,3.91,4.98,5.16,2.12,1.25,4.47,1.87,7.06,1.87,2.44,0,5.24-.78,8.37-2.35v-12.53Z"></path><path class="cls-1" d="m868.63,188.03h12.66v48.51h-12.66v-48.51Z"></path><path class="cls-1" d="m894.86,188.03h38.27v10.1h-25.6v9.07h23.11v10.03l-23.11.07v9.13h26.3v10.1h-38.96v-48.51Z"></path><path class="cls-1" d="m972.25,198.89c-2.93-.97-5.39-1.45-7.37-1.45-1.57,0-2.8.29-3.7.86-.9.58-1.35,1.42-1.35,2.53s.39,1.95,1.18,2.66c.78.72,1.75,1.29,2.91,1.73,1.15.44,2.86,1,5.12,1.7,3.37.97,6.15,1.94,8.34,2.91,2.19.97,4.07,2.46,5.64,4.46s2.35,4.63,2.35,7.85-.85,5.99-2.56,8.27c-1.71,2.28-4.05,4-7.02,5.16s-6.29,1.73-9.93,1.73c-4.01,0-8.02-.7-12.01-2.11-3.99-1.41-7.44-3.33-10.34-5.78l4.91-9.9c2.44,2.17,5.34,3.94,8.68,5.33,3.34,1.38,6.31,2.08,8.89,2.08,1.89,0,3.38-.35,4.46-1.04,1.08-.69,1.63-1.71,1.63-3.04,0-1.11-.4-2.03-1.21-2.77-.81-.74-1.82-1.33-3.04-1.76-1.22-.44-2.94-.96-5.16-1.56-3.32-.92-6.07-1.86-8.23-2.8-2.17-.95-4.03-2.38-5.57-4.29s-2.32-4.46-2.32-7.65c0-3,.8-5.63,2.39-7.89,1.59-2.26,3.85-4,6.78-5.22,2.93-1.22,6.33-1.83,10.21-1.83,3.5,0,6.96.5,10.38,1.49,3.41.99,6.41,2.32,9,3.98l-4.78,10.1c-2.58-1.52-5.34-2.77-8.27-3.74Z"></path></g><rect class="cls-1" x="310.81" width="1.94" height="236.14"></rect></g></g></svg>