<?xml version="1.0"?><svg height="512" viewBox="0 0 512 512" width="512" xmlns="http://www.w3.org/2000/svg"><title/><g><g opacity="0.2"><circle cx="232.324" cy="255.609" fill="#6556ff" r="200" transform="translate(-112.696 239.144) rotate(-45)"/></g><g><path d="M333.47,147.68s-9.835,10.241-5.128,21.249-13.325,17.936-13.325,17.936,8.514,16.048,23.445,16.391,29.507-4.763,29.507-4.763l2.618-30.4Z" fill="#080717"/><g><rect fill="#fff" height="62.987" width="26.553" x="368.966" y="163.332"/><path d="M395.519,227.318H368.966a1,1,0,0,1-1-1V163.332a1,1,0,0,1,1-1h26.553a1,1,0,0,1,1,1v62.986A1,1,0,0,1,395.519,227.318Zm-25.553-2h24.553V164.332H369.966Z" fill="#090817"/></g><path d="M299.315,280.61a65.922,65.922,0,0,0,11.757-14.429c5.752-9.593,5.727-37.078,11.558-48.971,12.566-25.626,79.42-33.5,112.906-5.774,4.678,3.874.329,1.506,32.55,45.069,7.193,9.724,11.824,15.81,11.581,24.413-.341,12.034-9.987,20.653-19.718,29.107-7.239,6.288-22.416,19.155-46.856,24.852-9.124,2.127-36.478,8.03-66.435-6.033C316.78,314.82,303.351,289.18,299.315,280.61Z" fill="#6556ff"/><g><path d="M423.381,138.869c.254-18.687-18.162-41.3-42.26-45.862-3.977-.753-25.313-4.269-39.242,9.628-10.21,10.188-10.648,23.954-11.018,35.584-.388,12.207-.816,25.677,8.014,35.781,18.285,20.926,59.6,8.34,69.033-1.626l.015-.016A45.239,45.239,0,0,0,423.381,138.869Z" fill="#fff"/><path d="M338.122,174.658c-9.088-10.4-8.648-24.248-8.261-36.467.367-11.5.822-25.8,11.312-36.264,13.681-13.649,34.178-11.03,40.135-9.9,25.692,4.864,43.321,28.6,43.073,46.859h0a46.441,46.441,0,0,1-15.772,34.2C398.353,183.806,356.625,195.832,338.122,174.658Zm32.5-81.608c-8.406,0-19.621,1.895-28.038,10.293-9.929,9.907-10.352,23.188-10.724,34.906-.377,11.855-.8,25.286,7.767,35.093,7.676,8.784,19.1,10.822,27.337,10.985,16.364.351,34.315-6.4,40.217-12.64a.918.918,0,0,1,.083-.082,44.439,44.439,0,0,0,15.116-32.75c.237-17.464-16.726-40.186-41.445-44.866A56.786,56.786,0,0,0,370.623,93.05Z" fill="#090817"/></g><rect fill="#6556ff" height="13.889" width="32.326" x="365.772" y="187.88"/><path d="M395.3,133.693a.993.993,0,0,1-.717-.3,16.555,16.555,0,0,0-16.506-4.746,1,1,0,0,1-.631-1.9A18.555,18.555,0,0,1,396.019,132,1,1,0,0,1,395.3,133.693Z" fill="#080717"/><g><path d="M383.491,138.471a3.127,3.127,0,0,0-2.527-.009,1,1,0,0,1-.848-1.811,5.111,5.111,0,0,1,4.356.077,11.667,11.667,0,0,1,1.23.839c1.361,1.019,1.792,1.206,2.56.528a1,1,0,0,1,1.324,1.5C387.007,141.873,384.849,139.234,383.491,138.471Z" fill="#080717"/><circle cx="381.984" cy="140.985" fill="#080717" r="4.589"/></g><path d="M337.908,129.139a1,1,0,0,1-.664-1.748,15.469,15.469,0,0,1,17.013-2.362,1,1,0,1,1-.871,1.8,13.466,13.466,0,0,0-14.814,2.056A.991.991,0,0,1,337.908,129.139Z" fill="#080717"/><g><path d="M338.955,135.169a1,1,0,1,1,1.557-1.255c.641.794,1.1.686,2.612-.093a11.569,11.569,0,0,1,1.353-.622,5.106,5.106,0,0,1,4.306.652,1,1,0,0,1-1.138,1.644,3.126,3.126,0,0,0-2.494-.413C343.6,135.638,341.105,137.833,338.955,135.169Z" fill="#080717"/><circle cx="346.218" cy="137.812" fill="#080717" r="4.589"/></g><path d="M358.37,149.242c-1.062-1.9,2.037-8.906,3.979-12.913a1,1,0,1,1,1.8.872c-2.192,4.524-4.328,10.067-4.013,11.107.364.645,3.272,1.1,5.644,1.046h.023a1,1,0,0,1,.023,2C363.638,151.408,359.441,151.157,358.37,149.242Z" fill="#080717"/><ellipse cx="388.63" cy="153.214" fill="#6556ff" rx="4.138" ry="6.34" transform="translate(227.498 538.628) rotate(-88.828)"/><ellipse cx="342.216" cy="151.112" fill="#6556ff" rx="4.138" ry="6.34" transform="translate(184.135 490.165) rotate(-88.828)"/><path d="M363.444,97.738s-24.094,7.7-31.732,27.6c0,0-6.95-17.265.766-30.265s28.6-7.433,28.6-7.433,32.834-16.492,57.657,1.667,6.266,31.206,20.439,52.669-10.649,30.636,10.554,47.069c0,0-5.216,20.441-54.673,18.381,0,0-13.221-16.531-5.889-29.408A82.885,82.885,0,0,1,407.041,156.7s10.45-2.338,10.981-12.607-7.975-11.354-10.662-8.876-6.944-.991-7.007-11.206S361.733,115.968,363.444,97.738Z" fill="#080717"/><path d="M339.734,232.319a1,1,0,0,1-.994-1.117l1.895-16.127a1,1,0,0,1,1.986.234l-1.894,16.127A1,1,0,0,1,339.734,232.319Z" fill="#fff"/><g><g><rect fill="#fff" height="140.557" rx="7.673" width="205.511" x="211.932" y="224.954"/><path d="M409.771,366.511H219.6a8.682,8.682,0,0,1-8.672-8.673V232.626a8.682,8.682,0,0,1,8.672-8.672H409.771a8.681,8.681,0,0,1,8.671,8.672V357.838A8.682,8.682,0,0,1,409.771,366.511ZM219.6,225.954a6.679,6.679,0,0,0-6.672,6.672V357.838a6.68,6.68,0,0,0,6.672,6.673H409.771a6.679,6.679,0,0,0,6.671-6.673V232.626a6.679,6.679,0,0,0-6.671-6.672Z" fill="#090817"/></g><circle cx="225.012" cy="236.029" fill="#080717" r="4.71"/><circle cx="244.347" cy="236.029" fill="#080717" r="4.71"/><circle cx="263.682" cy="236.029" fill="#080717" r="4.71"/><rect fill="#080717" height="52.305" rx="2.348" width="21.844" x="232.324" y="300.845"/><rect fill="#080717" height="72.462" rx="2.348" width="21.844" x="272.225" y="274.619"/><rect fill="#080717" height="91.343" rx="2.348" width="21.844" x="312.125" y="261.808"/><g><rect fill="#fff" height="11.226" rx="2.863" width="21.177" x="347.748" y="264.742"/><path d="M366.062,276.969H350.61a3.867,3.867,0,0,1-3.862-3.864v-5.5a3.867,3.867,0,0,1,3.862-3.863h15.452a3.869,3.869,0,0,1,3.863,3.863v5.5A3.869,3.869,0,0,1,366.062,276.969ZM350.61,265.742a1.865,1.865,0,0,0-1.862,1.863v5.5a1.865,1.865,0,0,0,1.862,1.864h15.452a1.866,1.866,0,0,0,1.863-1.864v-5.5a1.865,1.865,0,0,0-1.863-1.863Z" fill="#090817"/></g><path d="M398.458,271.355H375.687a1,1,0,0,1,0-2h22.771a1,1,0,1,1,0,2Z" fill="#080717"/><path d="M398.458,284.112h-50.71a1,1,0,0,1,0-2h50.71a1,1,0,0,1,0,2Z" fill="#080717"/><path d="M398.458,296.232h-50.71a1,1,0,0,1,0-2h50.71a1,1,0,0,1,0,2Z" fill="#080717"/><path d="M398.458,308.352h-50.71a1,1,0,1,1,0-2h50.71a1,1,0,0,1,0,2Z" fill="#080717"/></g><path d="M366.133,167.68c-5.08,0-9.059-2.488-9.059-5.663s3.979-5.663,9.059-5.663,9.059,2.487,9.059,5.663S371.213,167.68,366.133,167.68Zm0-9.326c-4.16,0-7.059,1.93-7.059,3.663s2.9,3.663,7.059,3.663,7.059-1.93,7.059-3.663S370.293,158.354,366.133,158.354Z" fill="#080717"/><path d="M420.2,292.872a1,1,0,0,1-.683-1.73c15.858-14.847,14.767-13.885,15.073-13.989a60.4,60.4,0,0,1,36.2-.8,1,1,0,1,1-.557,1.92,58.417,58.417,0,0,0-34.8.7L420.884,292.6A1.006,1.006,0,0,1,420.2,292.872Z" fill="#fff"/><path d="M434.6,279.1a1,1,0,0,1-.878-.52L418.356,250.57a1,1,0,0,1,1.754-.962l15.365,28.012A1,1,0,0,1,434.6,279.1Z" fill="#fff"/><g><g><path d="M264.835,205.666h-41.86A21.272,21.272,0,0,0,201.7,226.939V231.8a21.258,21.258,0,0,0,10.7,18.454,25.739,25.739,0,0,1-11.314,13.54,1.391,1.391,0,0,0,.856,2.588c7.7-.987,19.338-4.042,25.864-13.31h37.03A21.272,21.272,0,0,0,286.108,231.8v-4.857A21.273,21.273,0,0,0,264.835,205.666Z" fill="#fff"/><path d="M200.574,262.93a24.652,24.652,0,0,0,10.591-12.255A22.344,22.344,0,0,1,200.7,231.8v-4.858a22.3,22.3,0,0,1,22.273-22.272h41.859a22.3,22.3,0,0,1,22.272,22.272V231.8a22.3,22.3,0,0,1-22.272,22.272H228.318c-6.648,9.052-17.91,12.233-26.25,13.3A2.391,2.391,0,0,1,200.574,262.93Zm22.4-56.264A20.3,20.3,0,0,0,202.7,226.938V231.8A20.338,20.338,0,0,0,212.9,249.382a1,1,0,0,1,.442,1.21A26.622,26.622,0,0,1,201.6,264.649a.386.386,0,0,0-.185.492.335.335,0,0,0,.4.245c8.071-1.034,18.99-4.112,25.174-12.893a1,1,0,0,1,.818-.425h37.029A20.294,20.294,0,0,0,285.107,231.8v-4.858a20.294,20.294,0,0,0-20.272-20.272Z" fill="#090817"/></g><g><circle cx="224.285" cy="229.628" fill="#080717" r="5.194"/><circle cx="243.246" cy="229.628" fill="#080717" r="5.194"/><circle cx="262.208" cy="229.628" fill="#080717" r="5.194"/></g></g><path d="M334.2,111.729a1,1,0,0,1-.975-1.225c.119-.514,3.074-12.651,17.29-17.088a1,1,0,1,1,.6,1.909,23.6,23.6,0,0,0-15.937,15.631A1,1,0,0,1,334.2,111.729Z" fill="#fff"/><path d="M378.859,106.9a59.052,59.052,0,0,1-10.671-9.853,1,1,0,1,1,1.556-1.255c.161.2,16.381,20,33.021,15.29A1,1,0,0,1,403.31,113C394.766,115.416,386.054,112.037,378.859,106.9Z" fill="#fff"/><path d="M402.162,106.412a28.554,28.554,0,0,1-16.8-5.593,1,1,0,0,1,1.281-1.537,25.634,25.634,0,0,0,27.092,2.369,1,1,0,1,1,.873,1.8A28.215,28.215,0,0,1,402.162,106.412Z" fill="#fff"/><path d="M402.858,204.256c-3.934-.715-6.727-2.633-8.3-5.7-4.371-8.517,2.349-22.9,2.637-23.507A1,1,0,1,1,399,175.9c-.065.14-6.587,14.1-2.664,21.741,1.293,2.518,3.544,4.037,6.879,4.644a1,1,0,1,1-.358,1.967Z" fill="#fff"/><path d="M405.634,195.759c-4.187-1.6-5.516-6.91-3.951-15.794a77.2,77.2,0,0,1,3.372-12.334,1,1,0,1,1,1.871.707c-2.365,6.267-7.079,23.075-.579,25.552A1,1,0,0,1,405.634,195.759Z" fill="#fff"/><path d="M324.88,190.375a1,1,0,0,1-.4-1.919c.431-.186,10.528-4.68,8.724-15.527a1,1,0,1,1,1.973-.328c2.064,12.414-9.788,17.642-9.909,17.693A.987.987,0,0,1,324.88,190.375Z" fill="#fff"/><g><g><g><rect fill="#fff" height="50.221" width="26.535" x="125.462" y="289.138"/><path d="M152,340.359H125.462a1,1,0,0,1-1-1v-50.22a1,1,0,0,1,1-1H152a1,1,0,0,1,1,1v50.22A1,1,0,0,1,152,340.359Zm-25.535-2H151v-48.22H126.462Z" fill="#090817"/></g><path d="M127.5,316.037c-11.194.8-30.809,3.937-45.258,17.979-1.313,1.277-2.454,2.629-2.454,2.629a52.73,52.73,0,0,0-11.48,24.131c-6.759,30.544-32.642,61.2-20.657,79.34,2.091,3.163,10.792,14.205,44.131,11.268l24.786-109.253Z" fill="#6556ff"/><path d="M81.112,456.075A552.311,552.311,0,0,0,90.226,370.7c.525-19.6-.534-28.683,6.236-37.785,15.514-20.86,59.376-25.3,81.077-6.1,4.108,3.635,11.005,11.584,16.776,73.059,2.22,23.644,3.14,43.213,3.568,56.514Z" fill="#080717"/><path d="M143.082,314.407a81.051,81.051,0,0,1,30.545,4.273,52.611,52.611,0,0,1,11.111,5.008c17.569,10.829,15.144,23.245,43.66,56.336a214.192,214.192,0,0,0,36.462-48.512l27.2,10.447a145.664,145.664,0,0,1-8.735,27.267c-6.441,14.876-23.133,53.426-50.7,55.632-11.268.9-20.194-4.6-29.108-10.093-8.032-4.951-21.634-11.8-33.332-38.5Z" fill="#6556ff"/><g><path d="M266.441,343.68a11,11,0,0,1-2.659-9.786c1.193-5.783,3.7-16.793,6.164-20.535,3.4-5.164,10.84-18.889,13.252-18.89,8.863,0-2.454,17.482-2.454,17.482s5.281-1.174,4.695,3.756c0,0,5.4-1.174,5.047,3.4,0,0,4.421.04,4.89,4.108s3.512,18.636-4.5,25.2C284.66,353.508,272.457,350.048,266.441,343.68Z" fill="#fff"/><path d="M282.774,351.832a24.1,24.1,0,0,1-17.06-7.466,11.982,11.982,0,0,1-2.912-10.674c1.27-6.151,3.779-17.044,6.309-20.883,4.308-6.533,10.872-19.339,14.087-19.34a4.03,4.03,0,0,1,3.85,1.946c2.017,3.708-2.318,11.842-4.448,15.433a3.842,3.842,0,0,1,3.872,3.728c2.644-.126,4.767.994,5.007,3.628a5.58,5.58,0,0,1,4.89,4.9c.046.393.116.887.2,1.464.779,5.492,2.6,18.35-5.06,24.625A13.811,13.811,0,0,1,282.774,351.832Zm.426-56.363c-1.586,0-10.007,14.782-12.419,18.44-1.714,2.6-3.909,9.959-6.02,20.188a9.986,9.986,0,0,0,2.406,8.9h0c6.949,7.354,18.3,8.559,23.071,4.653,6.79-5.562,5.079-17.639,4.349-22.8-.085-.6-.157-1.109-.2-1.517-.355-3.071-3.548-3.216-3.91-3.222a1,1,0,0,1-.985-1.077,2.134,2.134,0,0,0-.553-1.887c-.881-.768-2.712-.587-3.284-.461a1,1,0,0,1-1.206-1.1,2.477,2.477,0,0,0-.514-2.2,3.89,3.89,0,0,0-2.973-.457,1,1,0,0,1-1.054-1.52c2.85-4.405,6.831-12.383,5.387-15.037C285.17,296.147,284.8,295.469,283.2,295.469Z" fill="#090817"/></g><g><path d="M190.354,255.131a5.16,5.16,0,0,0-5.128-4.823,128.262,128.262,0,0,0-4.163-14.28,36.107,36.107,0,0,0-38-24,47.857,47.857,0,0,0-14.151,94.646,59.77,59.77,0,0,0,41.729-5.156c15.187-7.877,18.374-24.25,16.335-41.207A5.163,5.163,0,0,0,190.354,255.131Z" fill="#fff"/><path d="M128.69,307.65a48.856,48.856,0,0,1,14.385-96.628A36.889,36.889,0,0,1,182.006,235.7a129.981,129.981,0,0,1,4.029,13.669,6.184,6.184,0,0,1,5.318,5.7h0a6.2,6.2,0,0,1-3.294,5.86c2.252,20.222-3.6,34.557-16.955,41.481A61.082,61.082,0,0,1,128.69,307.65Zm8.148-95.027A46.693,46.693,0,0,0,97.858,233.5c-19.007,28.524-1.805,66.632,31.224,72.192a58.369,58.369,0,0,0,41.1-5.057c12.888-6.685,18.206-20.209,15.8-40.2a1,1,0,0,1,.65-1.058,4.16,4.16,0,0,0-1.414-8.066,1,1,0,0,1-.972-.778,127.234,127.234,0,0,0-4.13-14.168,34.911,34.911,0,0,0-36.939-23.339A62,62,0,0,0,136.838,212.623Z" fill="#090817"/></g><g><path d="M88.262,329.556c-9.287,90.9-6.658,63-11.972,125.583l121.358.47-3.99-48.825c-16.423-25.7-20.067-55.973-11.972-84.27a58.974,58.974,0,0,0-15.023-6.573c-4.326-1.2-9.459-2.083-30.985-.938-22.3,1.185-26.778,2.66-29.107,3.521A58.157,58.157,0,0,0,88.262,329.556Z" fill="#fff"/><path d="M197.648,456.608c-1.493,0,15.788.061-121.362-.468a1,1,0,0,1-.992-1.085c5.318-62.632,2.673-34.566,11.973-125.6a1,1,0,0,1,.333-.648,59.006,59.006,0,0,1,18.625-11.221c2.23-.823,6.381-2.356,29.4-3.581,21.625-1.148,26.8-.28,31.306.974a59.958,59.958,0,0,1,15.278,6.683,1,1,0,0,1,.438,1.128c-8.21,28.694-4.059,58.546,11.853,83.457.209.327-.13-3.023,4.146,49.281A1,1,0,0,1,197.648,456.608Zm-120.27-2.464,119.185.46-3.882-47.492c-16.326-25.689-20.039-55.849-12.163-84.136A57.931,57.931,0,0,0,166.4,316.9c-4.184-1.164-9.378-2.036-30.666-.9-22.715,1.207-26.834,2.728-28.812,3.46a56.9,56.9,0,0,0-17.7,10.587C79.67,423.5,82.617,392.454,77.378,454.144Z" fill="#090817"/></g><path d="M148.431,253.341a1,1,0,0,1-.906-1.424A20.646,20.646,0,0,1,165.168,239.6a1,1,0,0,1,.014,2,18.674,18.674,0,0,0-15.844,11.16A1,1,0,0,1,148.431,253.341Z" fill="#080717"/><circle cx="165.582" cy="256.228" fill="#080717" r="5.144"/><ellipse cx="154.431" cy="274.823" fill="#6556ff" rx="7.106" ry="4.639" transform="translate(-85.776 70.673) rotate(-20.306)"/><path d="M135.678,274.823s-11.033-.159-11.737-10.623,7.277-11.583,11.737-7.972,7.746-2,6.338-9.756,5.751-29.354,21.009-31.936c-20.1-10.914-43.75-10.418-60.445,1.643-24.883,17.977-27.951,57.057-10.8,77.15,15.012,17.585,46.386,21.65,53.206,11.736C149.92,297.9,141.788,283.754,135.678,274.823Z" fill="#080717"/><g><path d="M73.239,253.267c-6.449-24.795,3.72-50.429,23.894-62.547,23.9-14.357,57.541-7.154,75.057,18.415l-18.96,13.681Z" fill="#fff"/><path d="M73.238,254.267a1,1,0,0,1-.967-.748c-6.494-24.969,3.518-51.145,24.347-63.656,24.841-14.921,59.111-6.528,76.4,18.707a1,1,0,0,1-.241,1.376l-18.961,13.681C153.655,223.742,73.54,254.267,73.238,254.267Zm50.6-69.8c-35.195,0-58.04,33.56-49.9,67.467l78.815-30L170.808,208.9A58.164,58.164,0,0,0,123.835,184.465Z" fill="#090817"/></g><g><path d="M76.166,271.594a5.917,5.917,0,0,0,8.06,4.015,392.5,392.5,0,0,0,89.291-53.338,5.89,5.89,0,0,0,.792-8.492c-15.034-17.016-36.447-25.3-56.236-21.073-19.963,4.267-30.889,19.694-33.8,23.943C70.143,237.253,73.325,260.359,76.166,271.594Z" fill="#fff"/><path d="M75.2,271.839c-3.016-11.93-5.956-35.038,8.25-55.756,8.935-13.03,20.836-21.452,34.418-24.355,19.87-4.245,41.785,3.949,57.194,21.389a6.888,6.888,0,0,1-.919,9.937A393.9,393.9,0,0,1,84.62,276.527,6.92,6.92,0,0,1,75.2,271.839Zm9.9-54.625c-13.763,20.07-10.9,42.532-7.961,54.135h0a4.916,4.916,0,0,0,6.7,3.34,391.942,391.942,0,0,0,89.065-53.2,4.887,4.887,0,0,0,.664-7.047C148.709,186.313,108.238,183.462,85.1,217.214Z" fill="#090817"/></g><g><path d="M168.776,206.723s16.889-7.734,21.59,0-53.4,41.325-53.4,41.325S177.852,217.455,168.776,206.723Z" fill="#fff"/><path d="M136.97,249.048a1,1,0,0,1-.6-1.8c8.856-6.628,38.821-31.392,31.643-39.879a1,1,0,0,1,.347-1.555c.722-.331,17.757-8.009,22.861.39a3.189,3.189,0,0,1,.284,2.527c-2.486,9.723-45.436,35.189-54.034,40.183A1,1,0,0,1,136.97,249.048Zm33.319-41.879c4.862,8.927-14.1,26.123-21.813,32.815,16.66-10.284,39.507-25.557,41.09-31.748a1.186,1.186,0,0,0-.055-.993C185.97,201.416,173.991,205.676,170.289,207.169Z" fill="#090817"/></g><path d="M133.778,270.821a1,1,0,0,1-.689-.276c-3.348-3.189-3.068-6.1-.943-8.173h-4.471a1,1,0,0,1,0-2h7.863a1,1,0,0,1,.351,1.937c-.8.3-2.962,1.448-3.286,3.053-.22,1.089.407,2.346,1.865,3.736A1,1,0,0,1,133.778,270.821Z" fill="#080717"/><path d="M176.2,284.238c-2.764,0-5.013-2.94-5.013-6.554s2.249-6.556,5.013-6.556,5.014,2.94,5.014,6.556S178.968,284.238,176.2,284.238Zm0-11.11c-1.633,0-3.013,2.086-3.013,4.556s1.38,4.554,3.013,4.554,3.014-2.086,3.014-4.554S177.837,273.128,176.2,273.128Z" fill="#080717"/><path d="M234.086,413.03a1,1,0,0,1-.8-.4c-8.127-10.76-5.978-31.823-5.883-32.715a1,1,0,1,1,1.989.213c-.023.21-2.159,21.17,5.49,31.3A1,1,0,0,1,234.086,413.03Z" fill="#fff"/><path d="M121.773,302.715c-15.291-3.674-25.658-16.617-26.092-17.166a1,1,0,0,1,1.569-1.24c.1.129,10.388,12.953,24.99,16.461A1,1,0,0,1,121.773,302.715Z" fill="#fff"/><path d="M130.547,294.336c-6.948,0-14.987-4.089-19.358-8.721a1,1,0,0,1,1.454-1.374c.074.079,7.585,7.879,17.924,8.1a1,1,0,0,1-.02,2Z" fill="#fff"/></g><g><path d="M276.686,320.462a1,1,0,0,1-.974-1.232c.806-3.38,3.817-6.879,3.945-7.027a1,1,0,0,1,1.511,1.311c-.028.032-2.82,3.28-3.511,6.179A1,1,0,0,1,276.686,320.462Z" fill="#080717"/><path d="M283.2,323.4a1,1,0,0,1-.949-1.313l1.908-5.785a1,1,0,0,1,1.9.627l-1.909,5.785A1,1,0,0,1,283.2,323.4Z" fill="#080717"/><path d="M288.651,326.976a1,1,0,0,1-.97-1.245l1.5-5.958a1,1,0,0,1,1.939.489l-1.5,5.958A1,1,0,0,1,288.651,326.976Z" fill="#080717"/></g></g><g><g><path d="M422.785,332.46c.708-.32,2.253-1.017,2.478-2.336.21-1.226-.782-2.632-2.466-3.655,0,0,6.256-4.7,2.065-7.786,0,0,5.913-3.906,1.343-7.834,0,0,3.966-4.422.551-7.548s-17.009.027-18.884,2.8,4.39,4.447,4.39,4.447-8.565,3.1-1.1,6.352c0,0-8.735,2.752-1.087,7.61-3.2,1.143-3.97,2.211-4.018,3.018C405.869,330.715,416.7,335.205,422.785,332.46Z" fill="#fff"/><path d="M418.336,334.3c-8.412,0-18.36-6.183-10.3-10.037-3.207-2.7-2.6-5.551.839-7.455-2.769-1.917-2.136-4.361.813-6.142a5.621,5.621,0,0,1-3.006-2.655c-1.57-4.185,7.867-6.342,11.948-6.824,2.95-.347,6.87-.394,8.8,1.372,2.878,2.634,1.566,6.167.12,8.2,2.388,2.615,1.494,5.621-1.161,7.986,2.05,2.462.359,5.469-1.975,7.655a4.355,4.355,0,0,1,1.834,3.889c-.314,1.841-2.229,2.707-3.047,3.077A11.544,11.544,0,0,1,418.336,334.3Zm4.449-1.844h0Zm-14.227-25.146c.339.913,2.565,1.893,3.963,2.269a1,1,0,0,1,.083,1.906c-1.45.528-3.47,1.711-3.5,2.562-.012.413.625,1.137,2.455,1.933a1,1,0,0,1-.1,1.87c-1.079.344-3.358,1.451-3.518,2.68-.111.858.836,1.97,2.666,3.133a1,1,0,0,1-.2,1.785c-2.435.871-3.33,1.695-3.356,2.137-.021.342.393,1.043,1.627,1.892,4.03,2.777,10.677,3.574,13.694,2.066.527-.239,1.765-.8,1.9-1.592.129-.756-.693-1.838-2-2.631a1,1,0,0,1-.083-1.653c.869-.656,3.123-2.741,3.112-4.474a2.138,2.138,0,0,0-1.038-1.708,1,1,0,0,1,.042-1.639c.694-.463,2.522-2.027,2.623-3.662a3.189,3.189,0,0,0-1.381-2.58,1,1,0,0,1-.092-1.426c.133-.15,3.258-3.729.62-6.144C422.93,301.157,407.687,304.952,408.558,307.314Z" fill="#090817"/></g><path d="M422.8,327.47c-.1,0,.695.091-13.679-1.644a1,1,0,1,1,.24-1.986l13.558,1.637a1,1,0,0,1-.119,1.993Z" fill="#080717"/><path d="M425.587,319.123c-.107,0-.326-.024-14.509-1.226a1,1,0,0,1,.168-1.992l14.424,1.222a1,1,0,0,1-.083,2Z" fill="#080717"/><path d="M426.205,311.85c-1.375,0,4.965.107-13.965-.3a1,1,0,0,1-.978-1.022,1.024,1.024,0,0,1,1.021-.978l13.944.3a1,1,0,0,1-.022,2Z" fill="#080717"/></g><path d="M410.529,151.355a1,1,0,0,1-.875-1.482,5.517,5.517,0,0,0,.681-4.435,6.9,6.9,0,0,0-3.317-3.546,1,1,0,0,1,.186-1.879l6.184-1.489a1,1,0,1,1,.468,1.944l-3.976.958c2.772,2.388,3.561,5.715,1.526,9.412A1,1,0,0,1,410.529,151.355Z" fill="#080717"/></g></g></svg>