<svg xmlns="http://www.w3.org/2000/svg" width="838" height="186" viewBox="0 0 838 186" fill="none"><mask id="mask0_54_2255" style="mask-type:alpha" maskUnits="userSpaceOnUse" x="0" y="0" width="838" height="186"><rect width="838" height="186" fill="#26C485"></rect></mask><g mask="url(#mask0_54_2255)"><path fill-rule="evenodd" clip-rule="evenodd" d="M823.354 -150.406C953.003 -374.965 876.064 -662.107 651.505 -791.755C426.947 -921.404 139.805 -844.465 10.1564 -619.906C-119.492 -395.348 -42.5531 -108.206 182.005 21.4425C406.564 151.091 693.705 74.1519 823.354 -150.406ZM904.761 -103.406C1060.37 -372.924 968.023 -717.556 698.505 -873.162C428.987 -1028.77 84.3562 -936.424 -71.25 -666.906C-226.856 -397.389 -134.513 -52.7574 135.005 102.849C404.523 258.455 749.154 166.111 904.761 -103.406Z" fill="url(#paint0_linear_54_2255)"></path></g><defs><linearGradient id="paint0_linear_54_2255" x1="-71.25" y1="-666.906" x2="904.761" y2="-103.406" gradientUnits="userSpaceOnUse"><stop stop-color="#651FFF"></stop><stop offset="1" stop-color="#651FFF" stop-opacity="0"></stop></linearGradient></defs></svg>