<?xml version="1.0"?><svg height="512" viewBox="0 0 512 512" width="512" xmlns="http://www.w3.org/2000/svg"><title/><g><g opacity="0.2"><circle cx="240.085" cy="256" fill="#651FFF" r="200" transform="translate(-110.7 244.746) rotate(-45)"/></g><g><g><g><polygon fill="#651FFF" points="393.176 316.198 431.588 316.198 424.202 200.741 400.563 200.741 393.176 316.198"/><path d="M431.588,317.2H393.176a1,1,0,0,1-.729-.315c-.455-.486-.789,7.381,7.117-116.2a1,1,0,0,1,1-.937H424.2a1,1,0,0,1,1,.937l7.386,115.457A1,1,0,0,1,431.588,317.2Zm-37.346-2h36.28l-7.258-113.457H401.5Z" fill="#090817"/></g><polygon fill="#080717" points="425.425 219.868 426.209 232.123 398.555 232.123 399.339 219.868 425.425 219.868"/></g><g><path d="M358.991,292.721V278.186L257.467,296.714l.372,87.4H438.633V278.186Z" fill="#fff"/><path d="M438.633,385.111H257.839a1,1,0,0,1-1-1l-.372-87.4a1,1,0,0,1,.82-.988L358.812,277.2a1,1,0,0,1,1.179.984v13.334L438.454,277.2a1,1,0,0,1,1.179.984V384.111A1,1,0,0,1,438.633,385.111Zm-179.8-2h178.8V279.386L359.171,293.7a1,1,0,0,1-1.18-.983V279.386L258.47,297.548Z" fill="#090817"/></g><rect fill="#080717" height="19.823" rx="1.598" width="40.047" x="271.231" y="316.198"/><rect fill="#080717" height="19.823" rx="1.598" width="40.047" x="327.768" y="316.198"/><rect fill="#080717" height="19.823" rx="1.598" width="40.047" x="384.305" y="316.198"/><path d="M471.916,385.111H229.2a1,1,0,1,1,0-2H471.916a1,1,0,1,1,0,2Z" fill="#080717"/><path d="M125.762,119.761a31.546,31.546,0,0,0-17.057-1.674c-1.319.247-13.979,2.8-20.063,13.157-7.567,12.885,3.7,23.112-3.947,37.5-4.607,8.666-9.6,6.656-12.5,14.8-4.178,11.746,5.418,18.157,1.644,30.917-2.871,9.708-9.36,9.151-10.854,17.761-1.812,10.446,5.864,22.073,15.323,27.876.574.352,14.431,8.559,28.422,2.712,15.521-6.487,22.759-26.74,21.114-42.039-1.8-16.687-13.844-24.566-9.274-35.254,2.568-6,7.546-6.265,11.809-11.105C136.3,167.7,139.692,153.472,125.762,119.761Z" fill="#080717"/><path d="M99.12,135.684s7.189,80.243,63.479,72.437-27.079-76.877-27.079-76.877Z" fill="#080717"/><g><path d="M175.75,222.217c21.122-4,32.012.576,38.053,5.482,12.192,9.9,10.183,25.675,27.411,49.662a122.138,122.138,0,0,0,11.609,13.867l38.7-55.467,23.863,8.062c-8.251,15.872-29.648,54.708-55.789,75.864-5,4.05-11.543,8.553-19.833,8.465-7.512-.08-17.184-3.937-30.8-22.09C189.255,279.778,180.009,248.5,175.75,222.217Z" fill="#fff"/><path d="M240,329.153c-13.013,0-23.965-11.992-31.838-22.491-16.712-22.285-27.951-50.642-33.4-84.285a1,1,0,0,1,.8-1.143c17.147-3.246,30.226-1.331,38.869,5.689,12.5,10.149,10.414,25.934,27.592,49.855A121.413,121.413,0,0,0,252.7,289.657l38-54.469a1,1,0,0,1,1.141-.375l23.864,8.063a1,1,0,0,1,.566,1.408c-24.069,46.3-45.447,67.6-56.047,76.18C254.906,324.768,248.352,329.153,240,329.153ZM176.9,223.022c5.457,32.9,16.514,60.63,32.869,82.441,20,26.666,33.98,25.764,49.2,13.446,10.4-8.417,31.31-29.253,54.992-74.513l-22.047-7.448L253.643,291.8a1,1,0,0,1-1.537.125,123.184,123.184,0,0,1-11.7-13.981c-17.233-23.994-15.368-39.835-27.229-49.468C205.166,221.973,192.963,220.139,176.9,223.022Z" fill="#090817"/></g><g><path d="M228.664,307.191c-4-60.634-13.82-70.487-17.995-74.059a48.972,48.972,0,0,0-16.613-9.089,10.66,10.66,0,0,1-7.415-10.093V179.37H157.8v37.878a6.9,6.9,0,0,1-4.871,6.586c-8.41,2.606-15.873,6.885-21.166,12.759-12.776,14.181-6.807,30.826-9.689,81.672a562.85,562.85,0,0,1-7.614,65.753l114.2,2.768A601.683,601.683,0,0,0,228.664,307.191Z" fill="#fff"/><path d="M228.665,387.786c-1.058,0,8.578.209-114.228-2.768a1,1,0,0,1-.96-1.174c6.845-38.853,8.5-70.347,8.551-104.883.03-22.041.045-33.1,8.994-43.037,5.19-5.761,12.664-10.272,21.613-13.045a5.876,5.876,0,0,0,4.167-5.631V179.37a1,1,0,0,1,1-1h28.839a1,1,0,0,1,1,1v34.58a9.66,9.66,0,0,0,6.727,9.143,49.745,49.745,0,0,1,16.951,9.279c6.1,5.22,14.639,18.648,18.344,74.753.1,0,2.869,36.651,0,79.728A1,1,0,0,1,228.665,387.786Zm-113.018-4.74,112.082,2.717a602.617,602.617,0,0,0-.062-78.507c-4.077-61.753-14.292-70.492-17.648-73.364a47.751,47.751,0,0,0-16.275-8.9,11.655,11.655,0,0,1-8.1-11.043V180.37H158.8v36.878a7.864,7.864,0,0,1-5.575,7.541c-8.6,2.667-15.77,6.981-20.718,12.473-12.43,13.8-6.575,30.6-9.435,81.059A565.475,565.475,0,0,1,115.647,383.046Z" fill="#090817"/></g><g><path d="M169.244,100.035a51.3,51.3,0,0,0-51.026,56.521,10.781,10.781,0,1,0,6.425,20.081,51.326,51.326,0,0,0,5.535,7.9c8.13,12.137,19.488,20.653,32.421,23.582,3.458.783,18.515,3.768,32.9-4.538,14.1-8.144,23.053-24.552,24.353-43.917A51.294,51.294,0,0,0,169.244,100.035Z" fill="#fff"/><path d="M173.382,210.294c-18.635,0-33.927-10.135-44-25.15a52.687,52.687,0,0,1-5.122-7.18,11.783,11.783,0,1,1-7.122-22.266,52.289,52.289,0,1,1,103.7,4.129C218.99,187.409,201.523,210.294,173.382,210.294Zm-47.87-34.15a51.171,51.171,0,0,0,5.5,7.838c8.126,12.132,19.424,20.359,31.811,23.164,5.3,1.2,19.029,3.163,32.175-4.429,13.654-7.886,22.572-24.005,23.855-43.118a50.29,50.29,0,1,0-99.895-8.275c0,4.961.555,5.23.037,5.865a1,1,0,0,1-.676.362,9.782,9.782,0,1,0,5.829,18.22A1,1,0,0,1,125.512,176.144Z" fill="#090817"/></g><path d="M138.576,153.485a1,1,0,0,1-.71-1.7,21.553,21.553,0,0,1,21.644-5.88,1,1,0,0,1-.652,1.892,19.562,19.562,0,0,0-19.572,5.4A1,1,0,0,1,138.576,153.485Z" fill="#080717"/><g><path d="M145.3,160.512a1,1,0,0,1,1.341-1.485c1.535,1.387,2.593-.4,4.654-1.531a5.817,5.817,0,0,1,4.945-.033,1,1,0,0,1-.867,1.8,3.821,3.821,0,0,0-3.116-.016C150.57,160.173,148.178,163.108,145.3,160.512Z" fill="#080717"/><circle cx="154.076" cy="162.364" fill="#080717" r="5.376"/></g><path d="M205.87,148.858a1,1,0,0,1-.672-.259,15.95,15.95,0,0,0-17.517-2.62,1,1,0,0,1-.851-1.811,17.954,17.954,0,0,1,19.713,2.95A1,1,0,0,1,205.87,148.858Z" fill="#080717"/><g><path d="M197.358,155.742a3.845,3.845,0,0,0-3.08.472,1,1,0,0,1-1.122-1.655,5.8,5.8,0,0,1,4.9-.692c2.183.81,3.51,2.428,4.829.834a1,1,0,1,1,1.543,1.272C201.97,158.951,199.118,156.394,197.358,155.742Z" fill="#080717"/><circle cx="196.017" cy="159.089" fill="#080717" r="5.376"/></g><path d="M172.883,174.538a1,1,0,0,1-.966-1.032.974.974,0,0,1,1.033-.966c2.877.1,6.3-.4,6.8-1.29.433-1.132-2.016-7.731-4.582-13.172a1,1,0,1,1,1.808-.853c1.781,3.775,5.785,12.8,4.51,15.019C180.248,174.409,175.372,174.624,172.883,174.538Z" fill="#080717"/><ellipse cx="146.139" cy="176.609" fill="#6556ff" rx="7.428" ry="4.848" transform="translate(-1.743 1.457) rotate(-0.568)"/><ellipse cx="200.541" cy="174.72" fill="#6556ff" rx="7.428" ry="4.848" transform="matrix(1, -0.01, 0.01, 1, -1.722, 1.996)"/><path d="M154.087,212.8h34.52l.909,5.191s19.6-.519,28.42,11.939,21.154,44.513,21.154,44.513q-4.349,4.606-8.695,9.214,1.21,45.681,2.422,91.362l-118.355-1.4s3.6-87.191,9.69-116.953S154.087,222.4,154.087,222.4Z" fill="#6556ff"/><path d="M116.711,356.332A175.512,175.512,0,0,0,105.473,456H240.085q-3.941-48.516-7.88-97.031Z" fill="#080717"/><path d="M140.406,221.669s7.192,28.161,3.3,44.686-15.633,30.973-15.633,30.973l-7.986,28.377L113.8,368.6l118.85.2q-.925-43.188-1.738-85.661A654.963,654.963,0,0,1,205.1,220.691s-4.193-2.232-11.467-2.509c3.742,9.176,7.742,22.616,5.746,35.758a12.625,12.625,0,0,1-2.206,5.969c-5.574,7.547-21.874,8.757-31.535,2.206,0,0-6.764-4.586-15.606-42.122A34.215,34.215,0,0,0,140.406,221.669Z" fill="#080717"/><g><path d="M170.574,235.322a11.936,11.936,0,0,0-12.244-14.616c-14.193.7-36.922,4.706-45.685,22.462C99.5,269.815,67.656,330.123,85.652,349.8s58.139,6.529,112.126-16.311l-9.6-23.533-67.483,11.42q9.168-29.66,18.334-59.319S165.772,256.153,170.574,235.322Z" fill="#fff"/><path d="M111.216,360.38c-11.307,0-20.051-3.067-26.3-9.9-18.709-20.46,14.327-82.4,26.834-107.752,9.123-18.485,33.07-22.357,46.533-23.019a12.932,12.932,0,0,1,13.267,15.84h0C167,255.293,143.869,261.889,139.812,262.9l-17.686,57.222,65.881-11.15a1,1,0,0,1,1.093.608l9.6,23.533a1,1,0,0,1-.537,1.3C160.534,350.335,131.68,360.379,111.216,360.38Zm47.163-138.675c-17.417.856-37.053,6.132-44.837,21.905C101.615,267.783,68.6,329.671,86.39,349.128c16.676,18.239,53.006,7.925,110.089-16.173l-8.928-21.876-66.693,11.287a1,1,0,0,1-1.122-1.281l18.334-59.319a1,1,0,0,1,.739-.682c.262-.058,26.189-6.024,30.79-25.986A10.933,10.933,0,0,0,158.379,221.705Zm12.2,13.617h0Z" fill="#090817"/></g><path d="M154.087,219.728c-15.294.094-24.664,5.134-29.416,8.386-10.2,6.977-15.213,17.2-24.83,37.376-5.269,11.05-8.982,20.537-11.421,27.252l38.241,9.431,17.044-35.818s29.069-14.881,31.492-28.032S172.349,216.471,154.087,219.728Z" fill="#6556ff"/><path d="M150.031,219.993s7.776,35.288,15.606,42.122l-22.278,6.143s2.976-13.248-6.645-45.557C136.714,222.7,141.732,219.279,150.031,219.993Z" fill="#080717"/><path d="M182.637,457a1,1,0,0,1-1-.961c-1.669-43.116-1.689-40.476-1.325-40.912l8.046-9.6a1,1,0,0,1,1.534,1.286l-7.8,9.307,1.542,39.845A1,1,0,0,1,182.637,457Z" fill="#fff"/><g><path d="M259.984,284.4l74.811-66,13.918,15.776a2.666,2.666,0,0,0,3.761.235l7.094-6.259a2.664,2.664,0,0,0,.235-3.76l-13.919-15.776,4.934-4.352,13.918,15.775a2.664,2.664,0,0,0,3.76.236l7.094-6.259a2.664,2.664,0,0,0,.235-3.76l-13.918-15.776.9-.789a10.259,10.259,0,0,0,.9-14.479l-7.256-8.224a10.257,10.257,0,0,0-14.478-.905L239.156,260.793c-16.663-11.358-36.466-12.665-48.829-1.757-15.491,13.667-13.428,41.32,4.608,61.763s45.217,25.937,60.708,12.269C268.006,322.161,269.177,302.35,259.984,284.4Zm-57.221,29.492c-7.867-8.917-10.3-19.624-5.438-23.915s15.184-.541,23.051,8.376,10.3,19.623,5.438,23.914S210.63,322.81,202.763,313.893Z" fill="#fff"/><path d="M234.64,341.593c-13.085,0-28.43-6.5-40.454-20.133-18.373-20.823-20.4-49.164-4.52-63.175,12.252-10.81,32.028-10.283,49.407,1.247l102.239-90.2a11.252,11.252,0,0,1,15.89.994l7.256,8.224a11.269,11.269,0,0,1-1.139,16.017l13.256,15.027a3.662,3.662,0,0,1-.323,5.171l-7.094,6.258a3.665,3.665,0,0,1-5.172-.324l-13.257-15.025L347.3,208.7l13.257,15.027a3.668,3.668,0,0,1-.324,5.171l-7.094,6.259a3.667,3.667,0,0,1-5.172-.324L334.707,219.81l-73.482,64.831C275.608,313.608,262.087,341.59,234.64,341.593Zm-23.216-89.078a30.366,30.366,0,0,0-20.435,7.27c-15.053,13.281-12.947,40.355,4.7,60.353,8.58,9.724,19.5,16.333,30.756,18.607,31.169,6.3,48.482-22.979,32.652-53.888a1,1,0,0,1,.229-1.206l74.81-66a1,1,0,0,1,1.412.089l13.918,15.776a1.667,1.667,0,0,0,2.349.146l7.094-6.259a1.666,1.666,0,0,0,.147-2.349l-13.919-15.776a1,1,0,0,1,.089-1.411l4.933-4.352a1,1,0,0,1,1.412.089l13.918,15.775a1.66,1.66,0,0,0,2.348.146l7.095-6.258a1.663,1.663,0,0,0,.147-2.348l-13.919-15.777a1,1,0,0,1,.089-1.411l.894-.79a9.269,9.269,0,0,0,.818-13.067l-7.256-8.224a9.267,9.267,0,0,0-13.067-.816L239.817,261.543a1,1,0,0,1-1.225.076C229.716,255.568,220.174,252.515,211.424,252.515ZM194.3,300.423c-1.111-4.89-.27-8.865,2.369-11.194,5.359-4.728,16.1-1.009,24.462,8.463s10.708,20.6,5.35,25.327C217.72,330.742,197.785,315.77,194.3,300.423Zm8.206-11.2c-5.86,0-7.571,4.975-6.255,10.76a31.4,31.4,0,0,0,7.267,13.252c7.362,8.344,17.273,12.144,21.639,8.288s1.837-14.159-5.526-22.5C214.224,292.893,207.45,289.219,202.5,289.219Z" fill="#090817"/></g><g><g><path d="M317.376,247.243c.7,0,2.231,0,2.9-1,.626-.931.331-2.456-.677-3.92,0,0,6.891-1.557,4.582-5.644,0,0,6.312-1.027,4-5.951,0,0,4.9-2.172,3.247-6.009s-14.008-6.273-16.579-4.685,1.968,5.286,1.968,5.286-8.2-.618-3.257,4.821c0,0-8.207-.968-3.711,5.861-3.052-.242-4.085.35-4.423,1C304.1,239.546,311.35,247.249,317.376,247.243Z" fill="#fff"/><path d="M317.369,248.243c-8.111,0-18.959-12.958-9.25-13.3-1.556-3.371.023-5.466,3.442-5.811-1.457-2.554-.051-4.327,2.917-4.743a5,5,0,0,1-1.4-3.233c.266-4.086,8.631-2.494,12.487-1.28,2.576.811,5.845,2.24,6.794,4.44,1.4,3.259-.95,5.7-2.909,6.874.948,3.011-.859,5.171-3.91,6.164.7,2.764-1.73,4.606-4.444,5.563a3.977,3.977,0,0,1,.017,3.877C320.29,248.017,318.806,248.243,317.369,248.243Zm.007-1h0Zm-8.808-10.3c-1.952,0-2.235.492-2.248.516-.1.189-.092.863.636,2.064,1.94,3.2,6.693,6.722,10.419,6.722.977,0,1.776-.116,2.075-.562s.216-1.508-.671-2.8a1,1,0,0,1,.6-1.542c.882-.2,3.538-1.089,4.15-2.475.536-1.21-.689-1.709-.249-2.626a1,1,0,0,1,.741-.554c.729-.123,2.775-.719,3.444-1.993a2.789,2.789,0,0,0-.184-2.548,1,1,0,0,1,.5-1.337c.161-.073,3.973-1.824,2.734-4.7-.491-1.139-2.569-2.382-5.558-3.324-4.12-1.3-8.531-1.551-9.577-.905-.3.184-.308.33-.313.408-.055.842,1.391,2.438,2.387,3.252a1,1,0,0,1-.707,1.772c-1.53-.115-3.452.189-3.73.76-.142.292.11,1.094,1.289,2.391a1,1,0,0,1-.856,1.666c-1-.117-3.232-.055-3.793.858-.383.621-.006,1.883,1.032,3.46a1,1,0,0,1-.914,1.547C309.317,236.957,308.916,236.941,308.568,236.941Z" fill="#090817"/></g><path d="M319.6,243.317c-.4,0,.464.448-11.069-6.508a1,1,0,1,1,1.033-1.713l10.553,6.365A1,1,0,0,1,319.6,243.317Z" fill="#080717"/><path d="M324.987,237.48c-.368,0,.568.46-11.9-6.47a1,1,0,0,1,.972-1.748l11.419,6.344A1,1,0,0,1,324.987,237.48Z" fill="#080717"/><path d="M328.189,231.723c-.323,0,.591.388-11.793-5.505a1,1,0,0,1,.859-1.807l11.365,5.408A1,1,0,0,1,328.189,231.723Z" fill="#080717"/></g><g><path d="M178.4,304.6c-.613-5.841-2.874-7.956-1.817-8.911,1.278-1.154,6.137.518,8.565,4.066,3.329,4.862,1.224,11.988,3.339,12.547a1.282,1.282,0,0,0,.814-.088c-2.407,3.406-5.3,5.138-7.277,4.416a4.616,4.616,0,0,1-2.24-2.6C178.136,310.742,178.807,308.491,178.4,304.6Z" fill="#fff"/><path d="M182.955,317.783c-2.167,0-3.172-1.525-4.067-3.309-1.769-3.531-1.078-5.916-1.485-9.774h0c-.635-6.061-3.283-8.14-1.492-9.759,2.092-1.889,7.668.751,10.061,4.244,3.083,4.5,1.937,11.273,2.792,12.153,0-.008.057-.013.147-.05a1,1,0,0,1,1.205,1.5C187.878,315.953,185.2,317.783,182.955,317.783Zm-3.562-13.292c.413,3.937-.238,6.05,1.283,9.086.536,1.07.971,1.848,1.688,2.109,1.074.389,3.051-.358,5.132-2.784-2.072-1.664-.144-8.158-3.175-12.588-2.094-3.058-6.009-4.357-7.018-3.918.069.961,1.6,3.4,2.09,8.095Z" fill="#090817"/></g><g><g><path d="M193.864,335.689c-.736,0-2.338,0-3.044-1.053-.657-.977-.347-2.575.709-4.11,0,0-7.222-1.631-4.8-5.915,0,0-6.616-1.076-4.2-6.237,0,0-5.138-2.276-3.4-6.3s14.682-6.576,17.376-4.91-2.061,5.539-2.061,5.539,8.591-.647,3.412,5.054c0,0,8.6-1.015,3.89,6.143,3.2-.254,4.282.366,4.637,1.044C207.779,327.622,200.18,335.7,193.864,335.689Z" fill="#fff"/><path d="M193.872,336.688c-.881.011-2.875,0-3.883-1.5a4.146,4.146,0,0,1,.044-4.064c-2.854-.992-5.437-2.93-4.665-5.834-3.184-1.023-5.122-3.267-4.1-6.45-2.045-1.21-4.529-3.762-3.062-7.164.987-2.29,4.4-3.782,7.092-4.628,4.035-1.273,12.75-2.93,13.024,1.3a5.276,5.276,0,0,1-1.513,3.419c3.177.418,4.649,2.282,3.069,4.977,3.659.338,5.276,2.563,3.611,6.1C213.726,323.152,202.326,336.688,193.872,336.688Zm-.224-29.046a27.651,27.651,0,0,0-7.748,1.318c-3.146.99-5.336,2.3-5.856,3.512-1.318,3.057,2.72,4.911,2.893,4.989a1,1,0,0,1,.5,1.337,2.96,2.96,0,0,0-.189,2.717c.852,1.614,3.614,2.1,3.642,2.108a1,1,0,0,1,.71,1.48,1.969,1.969,0,0,0-.229,1.829c.654,1.478,3.452,2.409,4.38,2.619a1,1,0,0,1,.6,1.542c-.807,1.174-1.1,2.4-.7,2.985.486.723,2.323.61,2.223.61,3.931,0,8.927-3.722,10.954-7.066.773-1.275.783-1.991.667-2.212-.041-.08-.5-.768-3.671-.512a1,1,0,0,1-.914-1.546c1.115-1.695,1.5-3,1.083-3.678-.6-.977-2.969-1.043-4.022-.922a1,1,0,0,1-.856-1.666c1.252-1.378,1.514-2.24,1.359-2.561-.309-.633-2.333-.939-3.957-.823a1,1,0,0,1-.707-1.771c1.051-.86,2.579-2.55,2.52-3.45C196.273,307.7,194.423,307.642,193.648,307.642Z" fill="#090817"/></g><path d="M191.53,331.526a1,1,0,0,1-.518-1.856L202.073,323a1,1,0,1,1,1.033,1.713C191,332.011,191.926,331.526,191.53,331.526Z" fill="#080717"/><path d="M185.887,325.408a1,1,0,0,1-.487-1.874l11.968-6.649a1,1,0,1,1,.971,1.748C185.233,325.915,186.256,325.408,185.887,325.408Z" fill="#080717"/><path d="M182.53,319.374a1,1,0,0,1-.43-1.9l11.911-5.669a1,1,0,0,1,.859,1.806C182.183,319.647,182.867,319.374,182.53,319.374Z" fill="#080717"/></g><path d="M151.177,316.539a1,1,0,0,1-1-1.066l1.7-25.494a1,1,0,0,1,1-.933h25.894a1,1,0,0,1,0,2H153.811l-1.638,24.559A1,1,0,0,1,151.177,316.539Z" fill="#fff"/><path d="M167.687,360.4c-16.369-1.14-16.108-9.126-16.089-9.465a1,1,0,0,1,2,.1,4.791,4.791,0,0,0,1.6,3.206c1.586,1.609,5.065,3.636,12.629,4.162,17.632,1.231,40.29.455,46.149-2.935,5.943-3.442,5.051-14.685,5.042-14.8a1,1,0,0,1,.91-1.082,1.009,1.009,0,0,1,1.082.909c.045.514,1.012,12.623-6.032,16.7C206.91,361.867,177.567,361.085,167.687,360.4Z" fill="#fff"/><path d="M110.021,161.01c3.5-3.926,5.613-4.537,6.942-4.126a2.4,2.4,0,0,1,1.609,1.024c2.8,3.1,8.552,6.444,7.565-8.63s12.77-36.819,27.939-43.031c0,0,.921,13.649,26.7,16.363,5.63.592,9.411,2.2,12.163,4.316,7.408,5.7,6.672,12.8,13.343,17.042,2.571,1.633,7.037,3.306,14.827,1.83,1.147-10.572,1.4-29.567-9.621-46.623-2.575-3.987-5.618-8.6-11.1-12.087-19.2-12.226-46.088,3.428-48.6,4.934C110.778,83.442,93.635,124.86,110.021,161.01Z" fill="#080717"/><path d="M119.663,174.5c-4.77-1.542-5.654-4.814-3.35-8.465l-2.548.543a1,1,0,1,1-.417-1.955l5.3-1.132a1,1,0,0,1,.894,1.7c-.805.761-2.805,3.13-2.4,4.939.234,1.038,1.287,1.867,3.129,2.463A1,1,0,0,1,119.663,174.5Z" fill="#080717"/><path d="M178.133,189.1a15.67,15.67,0,0,1-8.826-3.044,1,1,0,0,1,1.231-1.577c.256.2,6.354,4.834,12.58,1.277a1,1,0,1,1,.992,1.736A11.884,11.884,0,0,1,178.133,189.1Z" fill="#080717"/><path d="M104.758,144.071a367.2,367.2,0,0,1,112.451-33.535c-1.687-7.61-6.529-23.966-21.015-34.22-27.1-19.185-74.11-7.212-89.462,23.353C97.569,117.91,102.546,137.07,104.758,144.071Z" fill="#6556ff"/><path d="M145.872,124.83c11.72,7.331,29.566,15.287,50.569,13.321,14.54-1.362,36.628-8.044,37-17.761.3-7.753-13.346-14.321-18.994-16.775Z" fill="#6556ff"/><path d="M112.026,182.458a1,1,0,0,1-.839-.453c-5.6-8.579-8.2-31.64-8.313-32.617a1,1,0,0,1,.884-1.1,1.011,1.011,0,0,1,1.1.885c.026.234,2.656,23.561,8,31.742A1,1,0,0,1,112.026,182.458Z" fill="#fff"/><path d="M78.528,252.11c-8.483,0-16.951-14.48-6.492-21.782,9.388-6.555,12.075-18.2,7.187-31.14-5.3-14.028,8.121-20.463,8.257-20.526a1,1,0,0,1,.845,1.813c-.487.228-11.866,5.732-7.231,18,5.155,13.65,2.122,26.482-7.914,33.489-8.837,6.17-1.162,18.125,5.351,18.141a1,1,0,0,1,0,2Z" fill="#fff"/><path d="M90.368,189.084a1,1,0,0,1-.758-1.651c7.98-9.289,5.721-21.522,5.7-21.644a1,1,0,0,1,1.964-.381c.1.539,2.46,13.312-6.144,23.327A1,1,0,0,1,90.368,189.084Z" fill="#fff"/><path d="M140.373,201.612c-8.944-2.268-15.647-13.948-15.928-14.444a1,1,0,0,1,1.74-.986c.065.114,6.567,11.433,14.679,13.491A1,1,0,0,1,140.373,201.612Z" fill="#fff"/><path d="M148.879,124.9a1,1,0,0,1-.295-1.955l65.569-20.284a1,1,0,1,1,.591,1.91C145.064,126.126,149.113,124.9,148.879,124.9Z" fill="#fff"/><circle cx="176.947" cy="94.884" fill="#fff" r="12.432"/><g><g><path d="M251.38,83.506h71.966a5.351,5.351,0,0,1,5.351,5.351v58.532a5.351,5.351,0,0,1-5.351,5.351H260.669l-4.924,14.823a.988.988,0,0,1-1.919-.2l-1.59-14.618h-.856a5.35,5.35,0,0,1-5.35-5.351V88.857A5.35,5.35,0,0,1,251.38,83.506Z" fill="#fff"/><path d="M252.832,167.467l-1.493-13.727a6.358,6.358,0,0,1-6.309-6.351V88.857a6.356,6.356,0,0,1,6.35-6.35h71.966a6.357,6.357,0,0,1,6.351,6.35v58.532a6.358,6.358,0,0,1-6.351,6.351H261.391l-4.7,14.139A1.988,1.988,0,0,1,252.832,167.467Zm-1.452-82.96a4.355,4.355,0,0,0-4.35,4.35v58.532a4.355,4.355,0,0,0,4.35,4.351h.856a1,1,0,0,1,.994.892l1.59,14.618,4.9-14.825a1,1,0,0,1,.949-.685h62.677a4.356,4.356,0,0,0,4.351-4.351V88.857a4.356,4.356,0,0,0-4.351-4.35Z" fill="#090817"/></g><g><circle cx="287.363" cy="117.745" fill="#080717" r="27.944"/><g><path d="M276.471,130.849c-.787-1.536.028-4.063,1.195-4.683.515-.274,1.029-.073,2.3.343,2.488.816,9.814,3.105,11.307.966a3.306,3.306,0,0,0,.485-1.5c.148-5.454-6.226-5.528-11.292-7.716-4.665-2.014-5.5-13.68,1.627-16.336,4.626-1.723,9.506.407,13.216,3.683a1.419,1.419,0,0,1,.387,1.529c-.78,2.281-2.138,2.886-4.692,1.389-2.337-1.37-6.273-1.478-7.44.762a3.833,3.833,0,0,0,.069,2.989c1.92,4.554,8.866,2.63,12.369,6.469,2.491,2.732,2.535,7.356,1.148,10.073C293.627,135.712,278.644,135.09,276.471,130.849Z" fill="#fff"/><rect fill="#fff" height="39.464" rx="1.063" transform="translate(3.297 -7.746) rotate(1.553)" width="3.93" x="285.398" y="98.014"/></g><path d="M287.38,141.832A24.086,24.086,0,1,1,311.441,118.4h0A24.075,24.075,0,0,1,287.38,141.832Zm-.033-46.173a22.086,22.086,0,1,0,22.1,22.685A22.074,22.074,0,0,0,287.347,95.659Zm23.094,22.712h0Z" fill="#fff"/></g></g></g></g></svg>