<?xml version="1.0"?><svg height="512" viewBox="0 0 512 512" width="512" xmlns="http://www.w3.org/2000/svg"><title/><g><g opacity="0.2"><circle cx="243.876" cy="256" fill="#6556ff" r="200" transform="translate(-109.59 247.427) rotate(-45)"/></g><g><g><rect fill="#fff" height="171.67" rx="4.913" transform="translate(695.971 356.488) rotate(-180)" width="226.116" x="234.928" y="92.409"/><path d="M456.131,265.079H239.841a5.919,5.919,0,0,1-5.913-5.913V97.321a5.919,5.919,0,0,1,5.913-5.912h216.29a5.919,5.919,0,0,1,5.913,5.912V259.166A5.919,5.919,0,0,1,456.131,265.079ZM239.841,93.409a3.917,3.917,0,0,0-3.913,3.912V259.166a3.918,3.918,0,0,0,3.913,3.913h216.29a3.918,3.918,0,0,0,3.913-3.913V97.321a3.917,3.917,0,0,0-3.913-3.912Z" fill="#090817"/></g><rect fill="#080717" height="10.754" rx="5.184" transform="translate(695.971 188.443) rotate(-180)" width="240.276" x="227.848" y="88.845"/><g><rect fill="#fff" height="54.44" rx="2.211" transform="translate(833.453 275.816) rotate(-180)" width="44.695" x="394.379" y="110.688"/><path d="M436.862,166.128H396.591a3.214,3.214,0,0,1-3.212-3.211V112.9a3.215,3.215,0,0,1,3.212-3.211h40.271a3.215,3.215,0,0,1,3.212,3.211v50.018A3.214,3.214,0,0,1,436.862,166.128Zm-40.271-54.44a1.213,1.213,0,0,0-1.212,1.211v50.018a1.213,1.213,0,0,0,1.212,1.211h40.271a1.213,1.213,0,0,0,1.212-1.211V112.9a1.213,1.213,0,0,0-1.212-1.211Z" fill="#090817"/></g><rect fill="#080717" height="4.817" transform="translate(842.078 219.472) rotate(-180)" width="18.035" x="412.022" y="107.328"/><g><rect fill="#fff" height="54.44" rx="2.211" transform="translate(695.971 364.92) rotate(-180)" width="44.695" x="325.638" y="155.24"/><path d="M368.122,210.68H327.85a3.215,3.215,0,0,1-3.211-3.211V157.451a3.215,3.215,0,0,1,3.211-3.211h40.272a3.215,3.215,0,0,1,3.211,3.211v50.018A3.215,3.215,0,0,1,368.122,210.68ZM327.85,156.24a1.212,1.212,0,0,0-1.211,1.211v50.018a1.212,1.212,0,0,0,1.211,1.211h40.272a1.212,1.212,0,0,0,1.211-1.211V157.451a1.212,1.212,0,0,0-1.211-1.211Z" fill="#090817"/></g><rect fill="#080717" height="4.817" transform="translate(704.597 308.575) rotate(-180)" width="18.035" x="343.281" y="151.879"/><g><rect fill="#fff" height="54.44" rx="2.211" transform="translate(548.482 276.934) rotate(-180)" width="44.695" x="251.894" y="111.247"/><path d="M294.377,166.688H254.105a3.215,3.215,0,0,1-3.211-3.212V113.459a3.215,3.215,0,0,1,3.211-3.212h40.272a3.216,3.216,0,0,1,3.212,3.212v50.017A3.216,3.216,0,0,1,294.377,166.688Zm-40.272-54.441a1.214,1.214,0,0,0-1.211,1.212v50.017a1.214,1.214,0,0,0,1.211,1.212h40.272a1.214,1.214,0,0,0,1.212-1.212V113.459a1.214,1.214,0,0,0-1.212-1.212Z" fill="#090817"/></g><rect fill="#080717" height="4.817" transform="translate(557.108 220.59) rotate(-180)" width="18.035" x="269.537" y="107.887"/><g><rect fill="#fff" height="54.44" rx="2.211" transform="translate(824.044 452.934) rotate(-180)" width="44.695" x="389.675" y="199.247"/><path d="M432.158,254.687H391.886a3.215,3.215,0,0,1-3.211-3.211V201.458a3.215,3.215,0,0,1,3.211-3.211h40.272a3.215,3.215,0,0,1,3.211,3.211v50.018A3.215,3.215,0,0,1,432.158,254.687Zm-40.272-54.44a1.212,1.212,0,0,0-1.211,1.211v50.018a1.212,1.212,0,0,0,1.211,1.211h40.272a1.212,1.212,0,0,0,1.211-1.211V201.458a1.212,1.212,0,0,0-1.211-1.211Z" fill="#090817"/></g><rect fill="#080717" height="4.817" transform="translate(832.669 396.589) rotate(-180)" width="18.035" x="407.317" y="195.886"/><path d="M432.633,119.306H402.164a1,1,0,0,1,0-2h30.469a1,1,0,0,1,0,2Z" fill="#080717"/><path d="M432.633,125.8H402.164a1,1,0,0,1,0-2h30.469a1,1,0,0,1,0,2Z" fill="#080717"/><path d="M432.633,132.3H402.164a1,1,0,0,1,0-2h30.469a1,1,0,0,1,0,2Z" fill="#080717"/><path d="M432.633,138.8H413.142a1,1,0,0,1,0-2h19.491a1,1,0,0,1,0,2Z" fill="#080717"/><path d="M363.22,171.057H332.751a1,1,0,0,1,0-2H363.22a1,1,0,0,1,0,2Z" fill="#080717"/><path d="M363.22,177.554H332.751a1,1,0,0,1,0-2H363.22a1,1,0,0,1,0,2Z" fill="#080717"/><path d="M363.22,184.051H332.751a1,1,0,0,1,0-2H363.22a1,1,0,0,1,0,2Z" fill="#080717"/><path d="M363.22,190.548H343.729a1,1,0,0,1,0-2H363.22a1,1,0,0,1,0,2Z" fill="#080717"/><g><rect fill="#fff" height="54.44" rx="2.211" transform="translate(578.727 444.855) rotate(-180)" width="44.695" x="267.016" y="195.207"/><path d="M309.5,250.647H269.228a3.214,3.214,0,0,1-3.212-3.21V197.419a3.214,3.214,0,0,1,3.212-3.212H309.5a3.214,3.214,0,0,1,3.212,3.212v50.018A3.214,3.214,0,0,1,309.5,250.647Zm-40.271-54.44a1.214,1.214,0,0,0-1.212,1.212v50.018a1.213,1.213,0,0,0,1.212,1.21H309.5a1.213,1.213,0,0,0,1.212-1.21V197.419a1.214,1.214,0,0,0-1.212-1.212Z" fill="#090817"/></g><rect fill="#080717" height="4.817" transform="translate(587.352 388.511) rotate(-180)" width="18.035" x="284.659" y="191.847"/><path d="M304.6,211.024H274.129a1,1,0,0,1,0-2H304.6a1,1,0,1,1,0,2Z" fill="#080717"/><path d="M304.6,217.521H274.129a1,1,0,0,1,0-2H304.6a1,1,0,0,1,0,2Z" fill="#080717"/><path d="M304.6,224.019H274.129a1,1,0,0,1,0-2H304.6a1,1,0,0,1,0,2Z" fill="#080717"/><path d="M304.6,230.516H285.106a1,1,0,0,1,0-2H304.6a1,1,0,0,1,0,2Z" fill="#080717"/><path d="M427.256,213.175H396.788a1,1,0,0,1,0-2h30.468a1,1,0,0,1,0,2Z" fill="#080717"/><path d="M427.256,219.672H396.788a1,1,0,0,1,0-2h30.468a1,1,0,0,1,0,2Z" fill="#080717"/><path d="M427.256,226.169H396.788a1,1,0,0,1,0-2h30.468a1,1,0,0,1,0,2Z" fill="#080717"/><path d="M427.256,232.666h-19.49a1,1,0,0,1,0-2h19.49a1,1,0,0,1,0,2Z" fill="#080717"/><path d="M287.571,125.8H257.1a1,1,0,0,1,0-2h30.468a1,1,0,0,1,0,2Z" fill="#080717"/><path d="M287.571,132.3H257.1a1,1,0,0,1,0-2h30.468a1,1,0,0,1,0,2Z" fill="#080717"/><path d="M287.571,138.8H257.1a1,1,0,0,1,0-2h30.468a1,1,0,0,1,0,2Z" fill="#080717"/><path d="M287.571,145.293H268.08a1,1,0,0,1,0-2h19.491a1,1,0,0,1,0,2Z" fill="#080717"/><g><path d="M332.561,228.884a41.128,41.128,0,0,1,14.119-5.049,15.7,15.7,0,0,0,4.963-1.2c4.485-2.041,5.906-5.762,7.359-5.22,1.351.5,1.047,4.064,1.027,4.279a6.975,6.975,0,0,1-4.706,6.075c13.146,1.044,18.167-6.913,21.906-4.706a5.321,5.321,0,0,1,2.054,3.423,6.864,6.864,0,0,1-.941,4.54c-2.394,4.453-10.1,9.9-20.794,13.259a38.33,38.33,0,0,1-12.152,1.626c-3.424-.1-5.06-.633-6.332-1.669C336.781,242.385,337.21,240.634,332.561,228.884Z" fill="#fff"/><path d="M346.438,246.928c-2.9,0-5.9-.195-8-1.908-2.579-2.1-2.123-3.943-6.8-15.768a1,1,0,0,1,.447-1.244,42.107,42.107,0,0,1,15.1-5.249c3.539-.465,5.534-1.3,8.745-4.586,1.143-1.167,2.13-2.171,3.426-1.694,1.952.73,1.773,4.25,1.671,5.312a8.506,8.506,0,0,1-2.333,5.055c10.718-.4,14.887-7.095,19.046-4.643a6.231,6.231,0,0,1,2.53,4.1,7.8,7.8,0,0,1-1.044,5.2c-2.762,5.14-11.153,10.532-21.375,13.74A39.487,39.487,0,0,1,346.438,246.928Zm-12.623-17.585c1.331,3.4,2.376,6.319,3.388,9.326,1.493,4.432,2.122,6.069,8.222,6.244a37.571,37.571,0,0,0,11.824-1.58c11.088-3.479,18.141-8.925,20.212-12.778a5.883,5.883,0,0,0,.84-3.883,4.452,4.452,0,0,0-1.579-2.746c-2.887-1.7-8.415,5.878-21.479,4.843a1,1,0,0,1-.233-1.948,6,6,0,0,0,4.023-5.217c.148-1.544-.1-3.043-.394-3.257-.644.292-2.781,3.47-6.581,5.2a16.2,16.2,0,0,1-5.238,1.278A40.155,40.155,0,0,0,333.815,229.343Z" fill="#090817"/></g><g><rect fill="#fff" height="56.96" transform="translate(344.898 384.164) rotate(-180)" width="23.886" x="160.506" y="163.602"/><path d="M184.392,221.562H160.506a1,1,0,0,1-1-1V163.6a1,1,0,0,1,1-1h23.886a1,1,0,0,1,1,1v56.96A1,1,0,0,1,184.392,221.562Zm-22.886-2h21.886V164.6H161.506Z" fill="#090817"/></g><path d="M280.137,254.033a278.373,278.373,0,0,0,68.169-7.478q-4.878-10.4-9.755-20.8c-34.26,3.754-79,.534-109.344-16.762a103.2,103.2,0,0,0-26.034-11.3,97.632,97.632,0,0,0-19.205-3.2c-10.74,11.8-11.859,28.406-.1,40.16C215.752,248.031,246.2,253.607,280.137,254.033Z" fill="#6556ff"/><path d="M216.6,322.87c1.115-22.405,1.411-44.768.743-68.2-.919-32.154-3.04-39.765-8.947-46.311-16.509-18.291-55.025-18.151-68.872-1.582-3.416,4.088-2.545,7.382-4.571,28.591-1.618,16.934-.172-3.154-2.63,24.165-6.034,67.048-4.365,59.438-5.433,63.333Z" fill="#6556ff"/><path d="M216.837,303.094,251.58,453.467,195.3,454.552,157.665,306.17Z" fill="#080717"/><path d="M129.132,295.819s-11.156,28.446-5.608,54.5S118.215,456,118.215,456H172.5l14.838-144.039Z" fill="#080717"/><path d="M174.79,287.154l-43.541-15.47L144.567,230.3c12.5-7.556,30.691-22.81,23.183-35.3l-.3-.491c-11.776-.107-30.822,2.486-38.284,11.66-8.727,10.726-38.262,64.523-29.815,81.8,7.264,14.855,58.917,19.621,75.435,20.539Z" fill="#6556ff"/><g><path d="M136.363,131.943a25.9,25.9,0,0,1,4.869-8.743,39.689,39.689,0,0,1,36-16,53.289,53.289,0,0,1,11.863-.323,25.949,25.949,0,0,1,23.317,21.893c2.759,17.953,4.48,46.851-10.879,55.384-22.8,12.667-53.062-1.894-59.182-12.42A39.7,39.7,0,0,1,136.363,131.943Z" fill="#fff"/><path d="M181.549,190.137c-18.378,0-35.674-10.468-40.025-17.834a40.738,40.738,0,0,1-6.088-40.734,26.591,26.591,0,0,1,5.032-9.014,40.944,40.944,0,0,1,36.744-16.364,54.482,54.482,0,0,1,11.972-.311A26.883,26.883,0,0,1,213.4,128.617c2.65,17.234,4.694,47.48-11.381,56.409A41.711,41.711,0,0,1,181.549,190.137Zm-39.513-66.344a24.954,24.954,0,0,0-4.722,8.457,38.745,38.745,0,0,0,5.813,38.854,1.074,1.074,0,0,1,.087.125c5.79,9.961,35.635,24.379,57.831,12.049,15.016-8.341,12.946-37.637,10.376-54.357A24.888,24.888,0,0,0,189,107.872a56.714,56.714,0,0,0-11.873.321A38.884,38.884,0,0,0,142.036,123.793Z" fill="#090817"/></g><path d="M159.688,142.761a1,1,0,0,1-.717-1.7,16.367,16.367,0,0,1,16.394-4.61,1,1,0,0,1,.631,1.266,1.025,1.025,0,0,1-1.264.632,14.379,14.379,0,0,0-14.328,4.107A1,1,0,0,1,159.688,142.761Z" fill="#080717"/><circle cx="171.34" cy="149.034" fill="#080717" r="4.018"/><path d="M210.021,138.749a1,1,0,0,1-.665-.253,11.667,11.667,0,0,0-12.831-1.8,1,1,0,1,1-.869-1.8,13.659,13.659,0,0,1,15.031,2.1A1,1,0,0,1,210.021,138.749Z" fill="#080717"/><circle cx="202.736" cy="146.211" fill="#080717" r="4.018"/><path d="M185.552,158.173a1,1,0,0,1-.975-1.024,1.018,1.018,0,0,1,1.023-.976c2.224.053,4.566-.378,4.849-.883.21-.882-1.643-5.686-3.524-9.578a1,1,0,0,1,1.8-.87c2.085,4.315,4.378,9.8,3.467,11.427C191.226,158,187.524,158.219,185.552,158.173Z" fill="#080717"/><ellipse cx="165.587" cy="159.655" fill="#6556ff" rx="5.551" ry="3.623" transform="translate(-3.058 3.234) rotate(-1.109)"/><ellipse cx="206.228" cy="157.86" fill="#6556ff" rx="5.551" ry="3.623" transform="translate(-3.016 4.019) rotate(-1.109)"/><path d="M157.308,202.023h31.2q-1.479-5.7-2.957-11.39a25.232,25.232,0,0,1-26.014-.342Q158.42,196.156,157.308,202.023Z" fill="#6556ff"/><path d="M177.589,194.5l3,4.878-3.594,7.145c10.345,14.858,13.637,27.62,14.633,36.839,1.513,14.013-.695,34.487-.695,34.487l-23.18-1.11s1.622-10.784,2.871-22.85c1.847-17.846,2.588-24.558.63-30.551a26.451,26.451,0,0,1,.093-17.585l-2.7-6.161q1.091-2.418,2.182-4.835A9.524,9.524,0,0,0,177.589,194.5Z" fill="#080717"/><g><rect fill="#fff" height="88.105" rx="3.444" transform="translate(343.388 597.413) rotate(-169.87)" width="67.773" x="164.282" y="239.437"/><path d="M221,333.264c-.612,0,3.428.683-60.72-10.779a4.439,4.439,0,0,1-3.592-5.155l14.284-79.952a4.44,4.44,0,0,1,5.155-3.593l59.938,10.708a4.448,4.448,0,0,1,3.592,5.156L225.369,329.6A4.454,4.454,0,0,1,221,333.264Zm-45.66-97.549a2.442,2.442,0,0,0-2.4,2.014l-14.285,79.953a2.442,2.442,0,0,0,1.976,2.835c.1,0-2.684-.48,59.936,10.709a2.451,2.451,0,0,0,2.836-1.976L237.685,249.3a2.443,2.443,0,0,0-1.976-2.836C171.663,235.02,175.67,235.715,175.336,235.715Z" fill="#090817"/></g><circle cx="200.175" cy="280.657" fill="#080717" r="10.827"/><g><path d="M150.718,281.828l7.326,4a31.571,31.571,0,0,0,9.679-2.9c4.623-2.353,9.022-4.14,10.074-3.067s-.17,3.953-6,7.062c0,0,6.606,1.411,12.115-.346s12.216-2.933,10.9,1.239c0,0,5.888,1.525,1.27,5.522,0,0,2.385,1.437.777,3.425s-5.994,3.535-5.994,3.535,3.62.549,2.271,2.426-13.206,5.715-18.857,5.692-11.706-1.516-22.53-5.883C151.757,302.537,140.32,290.594,150.718,281.828Z" fill="#fff"/><path d="M174.333,309.42c-7.508,0-15.46-2.934-22.949-5.955a1.027,1.027,0,0,1-.349-.236c-.246-.258-6.038-6.39-5.666-13.356a12.174,12.174,0,0,1,4.705-8.81,1,1,0,0,1,1.124-.113l7.04,3.845a30.789,30.789,0,0,0,9.032-2.754c8.245-4.195,10.276-3.861,11.242-2.876a2.321,2.321,0,0,1,.592,2.033c-.25,1.618-1.769,3.4-4.349,5.132a23.412,23.412,0,0,0,8.858-.7c6.165-1.967,10.079-2.178,11.635-.629a2.6,2.6,0,0,1,.725,2.161c2.972,1.23,3.893,3.623,1.594,6.142a2.974,2.974,0,0,1,.078,4.094,12.579,12.579,0,0,1-4.116,2.868,2.056,2.056,0,0,1,.428,3.048C192.3,305.61,180.052,309.42,174.333,309.42Zm-21.991-7.726c6.966,2.8,14.787,5.726,22,5.726,5.839,0,17.019-3.926,17.991-5.276a.594.594,0,0,0,.113-.212,3.879,3.879,0,0,0-1.722-.642,1,1,0,0,1-.184-1.932c1.525-.538,6.137-2.615,5.872-4.1a2,2,0,0,0-.838-1.057,1,1,0,0,1-.138-1.612c1.03-.893,1.529-1.684,1.4-2.229-.181-.78-1.609-1.4-2.272-1.57a1,1,0,0,1-.7-1.267c.171-.542.16-.914-.03-1.1-.737-.734-4-.674-9.615,1.118-5.693,1.816-12.348.432-12.627.37a1,1,0,0,1-.262-1.859c4.022-2.148,5.636-4.116,5.8-5.15.014-.092.027-.258-.043-.33-.1-.041-1.449-.538-8.908,3.259a32.285,32.285,0,0,1-10.026,3c-.423.047,0,.206-7.3-3.78a10.029,10.029,0,0,0-3.488,6.937C147.069,295.535,151.494,300.749,152.342,301.694Z" fill="#090817"/></g><path d="M179.858,293.527a1,1,0,0,1-.046-2c5.746-.272,14.563-3.62,14.651-3.653a1,1,0,1,1,.715,1.867C191.516,291.142,183.735,293.527,179.858,293.527Z" fill="#080717"/><path d="M181.184,297.7a1,1,0,1,1,.195-1.99c5.214.507,14.232-3.25,14.323-3.288a1,1,0,1,1,.776,1.844C192.542,295.919,185.567,298.128,181.184,297.7Z" fill="#080717"/><path d="M181.078,302.414a1,1,0,0,1-.923-1.071.978.978,0,0,1,1.072-.923c2.758.2,10.266-1.433,10.342-1.449a1,1,0,1,1,.428,1.953C189.507,301.469,183.625,302.6,181.078,302.414Z" fill="#080717"/><polygon fill="#6556ff" points="155.511 281.596 152.174 303.625 137.926 300.594 142.547 276.719 155.511 281.596"/><path d="M217.692,240.065a1,1,0,0,1-1-.99c-.193-20.538-10.9-31.918-11.011-32.031a1,1,0,0,1,1.44-1.388c.464.481,11.369,12.024,11.571,33.4A1,1,0,0,1,217.692,240.065Z" fill="#fff"/><path d="M155.511,282.6c-.307,0,1.623.748-28.836-11.775-4.549-.126-16.176.558-18.438,5.32a1,1,0,1,1-1.806-.858c3.324-7,19.8-6.479,20.493-6.454.276.009-1.674-.755,28.967,11.842A1,1,0,0,1,155.511,282.6Z" fill="#fff"/><path d="M126.888,270.829a1,1,0,0,1-.946-1.327l17.072-49.268a1,1,0,1,1,1.89.655l-17.071,49.267A1,1,0,0,1,126.888,270.829Z" fill="#fff"/><path d="M179.91,385.093a1,1,0,0,1-1-1.1l5.043-48.957a1.01,1.01,0,0,1,1.1-.892,1,1,0,0,1,.892,1.1L180.9,384.2A1,1,0,0,1,179.91,385.093Z" fill="#fff"/><path d="M212.41,128.769c-.486-4.691-2.082-12.8-8.123-19.687-13.048-14.87-37.322-11.143-50.06-6.418-5.83,2.164-19.717,7.316-26.7,21.394-10.159,20.485.828,46.711,16.431,56.477,7.171,4.489,15.583,5.671,16.547,4.279,1.423-2.054-10.728-9.156-13.21-15.66s-2.139-9.926-4.963-10.44-6.076-2.4-6.76-7.488-.086-9.284,3.251-10.14,4.365,4.519,7.189,3.929-1.2-6.41,1.711-14.967,17-16.944,27.323-17.971S201.449,107.979,212.41,128.769Z" fill="#080717"/><path d="M142.331,157.031a.994.994,0,0,1-.643-.235c-3.762-3.171-3.565-6.517-.562-9.1l-2.786-.4a1,1,0,1,1,.283-1.981l5.392.77a1,1,0,0,1,.277,1.9c-.865.4-3.165,1.834-3.4,3.613-.153,1.139.549,2.374,2.087,3.67A1,1,0,0,1,142.331,157.031Z" fill="#080717"/><path d="M184.344,175.717c-4.21,0-7.508-2.32-7.508-5.279s3.3-5.279,7.508-5.279,7.508,2.319,7.508,5.279S188.554,175.717,184.344,175.717Zm0-8.558c-2.986,0-5.508,1.5-5.508,3.279s2.522,3.279,5.508,3.279,5.508-1.5,5.508-3.279S187.329,167.159,184.344,167.159Z" fill="#080717"/><path d="M161.766,205.713l-4.042-10.44a1,1,0,1,1,1.865-.722l3.465,8.95c2.754-3.015,6.36-7.348,6.81-9.008a1,1,0,1,1,1.93.524c-.812,3-7.6,10.21-8.37,11.023A1,1,0,0,1,161.766,205.713Z" fill="#fff"/><path d="M182.58,203.688l-5.4-7.952a1,1,0,0,1,1.654-1.123l4.411,6.493,2.71-5.835a1,1,0,0,1,1.815.842l-3.454,7.435A1,1,0,0,1,182.58,203.688Z" fill="#fff"/><g><path d="M375.408,58.387H319.115a4.186,4.186,0,0,0-4.186,4.186v45.785a4.186,4.186,0,0,0,4.186,4.185h49.027l3.852,11.6a.772.772,0,0,0,1.5-.16q.623-5.716,1.244-11.435h.669a4.185,4.185,0,0,0,4.185-4.185V62.573A4.186,4.186,0,0,0,375.408,58.387Z" fill="#fff"/><path d="M371.045,124.454l-3.625-10.911H319.114a5.191,5.191,0,0,1-5.184-5.186V62.573a5.191,5.191,0,0,1,5.184-5.185h56.294a5.191,5.191,0,0,1,5.186,5.185v45.784a5.191,5.191,0,0,1-4.958,5.181l-1.147,10.549A1.773,1.773,0,0,1,371.045,124.454ZM319.114,59.388a3.187,3.187,0,0,0-3.184,3.185v45.784a3.188,3.188,0,0,0,3.184,3.186h49.028a1,1,0,0,1,.949.685l3.523,10.6,1.13-10.4a1,1,0,0,1,.994-.892h.67a3.189,3.189,0,0,0,3.186-3.186V62.573a3.188,3.188,0,0,0-3.186-3.185Z" fill="#090817"/></g><g><g><path d="M330.268,90.334a17.5,17.5,0,1,1,21.4,12.43A17.509,17.509,0,0,1,330.268,90.334Zm13.967-15.606a11.5,11.5,0,1,0,12.892,16.9A11.519,11.519,0,0,0,344.235,74.728Z" fill="#080717"/><path d="M349.985,105.881a1.3,1.3,0,0,0,1.312.395l2.436-.646a1.309,1.309,0,0,0,.947-1.519l-.873-4.375a1.307,1.307,0,0,0-1.612-1.009l-2.978.789a1.309,1.309,0,0,0-.906,1.674C349.886,105.917,349.746,105.612,349.985,105.881Z" fill="#080717"/><path d="M340.805,72.351a1.3,1.3,0,0,0,1.313.394l2.973-.788a1.307,1.307,0,0,0,.9-1.683c-1.553-4.662-1.428-4.408-1.672-4.682a1.3,1.3,0,0,0-1.307-.395l-2.44.646a1.309,1.309,0,0,0-.946,1.523C340.562,72.045,340.485,71.991,340.805,72.351Z" fill="#080717"/><path d="M349.985,105.881a1.3,1.3,0,0,0,1.312.395l2.436-.646a1.309,1.309,0,0,0,.947-1.519l-.873-4.375a1.307,1.307,0,0,0-1.612-1.009l-2.978.789a1.309,1.309,0,0,0-.906,1.674C349.886,105.917,349.746,105.612,349.985,105.881Z" fill="#080717"/><path d="M340.805,72.351a1.3,1.3,0,0,0,1.313.394l2.973-.788a1.307,1.307,0,0,0,.9-1.683c-1.553-4.662-1.428-4.408-1.672-4.682a1.3,1.3,0,0,0-1.307-.395l-2.44.646a1.309,1.309,0,0,0-.946,1.523C340.562,72.045,340.485,71.991,340.805,72.351Z" fill="#080717"/><path d="M361.221,84.208a1.3,1.3,0,0,0,1.393.369l4.229-1.408a1.312,1.312,0,0,0,.85-1.577l-.646-2.434a1.307,1.307,0,0,0-1.518-.947l-4.376.873a1.306,1.306,0,0,0-1.007,1.616C360.988,83.875,360.943,83.9,361.221,84.208Z" fill="#080717"/><path d="M327.547,92.849a1.313,1.313,0,0,0,1.235.413l4.372-.872a1.309,1.309,0,0,0,1.008-1.617c-.838-3.16-.8-3.195-1.075-3.507A1.306,1.306,0,0,0,331.7,86.9l-4.232,1.41a1.308,1.308,0,0,0-.848,1.58C327.3,92.459,327.27,92.538,327.547,92.849Z" fill="#080717"/><path d="M358.511,95.548c.243.273.13.169,4.382,2.3a1.309,1.309,0,0,0,1.714-.512l1.266-2.179a1.308,1.308,0,0,0-.393-1.736l-3.722-2.485a1.308,1.308,0,0,0-1.855.428l-1.546,2.662A1.307,1.307,0,0,0,358.511,95.548Z" fill="#080717"/><path d="M328.589,77.847c.161.182.032.073,3.961,2.7a1.309,1.309,0,0,0,1.86-.438l1.541-2.653a1.3,1.3,0,0,0-.154-1.525c-.237-.267-.113-.16-4.381-2.3a1.311,1.311,0,0,0-1.714.51l-1.267,2.181A1.3,1.3,0,0,0,328.589,77.847Z" fill="#080717"/><path d="M352.459,72.728c.2.222.122.146,2.98,1.806A1.31,1.31,0,0,0,357.261,74l2-4a1.3,1.3,0,0,0-.192-1.453c-.182-.2-.1-.134-2.5-1.527a1.308,1.308,0,0,0-1.746.408l-2.474,3.707A1.307,1.307,0,0,0,352.459,72.728Z" fill="#080717"/><path d="M335.24,102.929c.182.2.1.133,2.5,1.527a1.308,1.308,0,0,0,1.746-.409l2.474-3.707a1.306,1.306,0,0,0-.435-1.858l-2.656-1.542a1.306,1.306,0,0,0-1.827.55l-1.993,3.985A1.3,1.3,0,0,0,335.24,102.929Z" fill="#080717"/></g><circle cx="347.154" cy="85.737" fill="#080717" r="8.88"/></g><g><g><path d="M214.139,122.715l-87.557,10.874a3.648,3.648,0,0,1-4.071-3.966c2-22.045,16.413-40.044,35.285-44.891a46,46,0,0,1,40.7,9.645A47.372,47.372,0,0,1,214.139,122.715Z" fill="#fff"/><path d="M121.515,129.533c2.03-22.362,16.509-40.756,36.032-45.769a47.055,47.055,0,0,1,41.6,9.852,47.948,47.948,0,0,1,15.982,28.944,1,1,0,0,1-.189.756c-.4.527,5.528-.379-88.233,11.265A4.649,4.649,0,0,1,121.515,129.533Zm47.058-45.145c-24.454,0-42.811,20.474-45.066,45.326a2.649,2.649,0,0,0,2.952,2.883l86.518-10.745C208.8,99.133,189.824,84.388,168.573,84.388Z" fill="#090817"/></g><g><path d="M207.664,116.087c-8.687-19.648-21.607-32.51-32.374-35.2-2.028-.506-9.551-2.382-16.537.151-5.689,2.062-6.847,3.551-10.744,7.585a27.876,27.876,0,0,1,14.175-1.168c7.147,1.321,11.684,5.223,14.866,8.03,10.028,8.847,13.5,20.341,14.772,26.015A26.93,26.93,0,0,0,207.664,116.087Z" fill="#fff"/><path d="M191.821,122.506a1,1,0,0,1-.975-.781c-1.62-7.237-5.444-17.533-14.458-25.486-2.933-2.588-7.367-6.5-14.385-7.8a26.909,26.909,0,0,0-13.666,1.129,1,1,0,0,1-1.047-1.639c3.83-3.964,5.078-5.638,11.122-7.83,4.821-1.749,10.58-1.811,17.113-.183,11.776,2.936,24.746,16.974,33.053,35.763a1,1,0,0,1-.313,1.2A27.938,27.938,0,0,1,191.821,122.506ZM162.366,86.477c7.564,1.4,12.435,5.695,15.345,8.262,9.086,8.017,13.114,18.274,14.9,25.743a25.919,25.919,0,0,0,13.809-4.726c-8.072-17.874-20.331-31.141-31.372-33.894-6.148-1.532-11.512-1.49-15.954.121a18.488,18.488,0,0,0-7.784,4.686A28.343,28.343,0,0,1,162.366,86.477Z" fill="#090817"/></g><g><path d="M211.369,112.606c14.727,5.675,17.308,9.233,17.061,11.408-.753,6.628-28.67,8.336-31.212,8.479a124.153,124.153,0,0,1-37.294-3.594A184.056,184.056,0,0,0,211.369,112.606Z" fill="#fff"/><path d="M190.32,133.688a125.518,125.518,0,0,1-30.64-3.819,1,1,0,0,1,.084-1.957,184.457,184.457,0,0,0,40.921-11.586c10.18-4.213,10.14-4.994,11.044-4.654,16.41,6.324,17.958,10.137,17.694,12.455C228.523,132.053,198.454,133.688,190.32,133.688Zm-25.38-4.656a122.885,122.885,0,0,0,32.221,2.463c14.711-.831,29.833-3.706,30.276-7.595.129-1.15-1.182-4.436-16.022-10.205A184.9,184.9,0,0,1,164.94,129.032Z" fill="#090817"/></g></g></g></g></svg>