<svg xmlns="http://www.w3.org/2000/svg" width="663" height="255" viewBox="0 0 663 255" fill="none"><mask id="mask0_54_1580" style="mask-type:alpha" maskUnits="userSpaceOnUse" x="0" y="0" width="663" height="255"><rect width="663" height="255" fill="#8b00ff"></rect></mask><g mask="url(#mask0_54_1580)"><path fill-rule="evenodd" clip-rule="evenodd" d="M632 490.767C632 285.818 435.057 97.34 162.5 97.34C-110.057 97.34 -307 285.818 -307 490.767C-307 695.717 -110.057 884.195 162.5 884.195C435.057 884.195 632 695.717 632 490.767ZM726 490.767C726 221.569 473.712 3.33997 162.5 3.33997C-148.712 3.33997 -401 221.569 -401 490.767C-401 759.966 -148.712 978.195 162.5 978.195C473.712 978.195 726 759.966 726 490.767Z" fill="url(#paint0_linear_54_1580)"></path></g><defs><linearGradient id="paint0_linear_54_1580" x1="-401" y1="490.767" x2="726" y2="490.767" gradientUnits="userSpaceOnUse"><stop stop-color="#8b00ff"></stop><stop offset="1" stop-color="#8b00ff" stop-opacity="0"></stop></linearGradient></defs></svg>